<?xml version="1.0" encoding="UTF-8"?>
<!DOCTYPE svg PUBLIC "-//W3C//DTD SVG 1.1//EN" "http://www.w3.org/Graphics/SVG/1.1/DTD/svg11.dtd">
<!-- Creator: CorelDRAW X8 -->
<svg xmlns="http://www.w3.org/2000/svg" xml:space="preserve" width="217px" height="35px" version="1.1" style="shape-rendering:geometricPrecision; text-rendering:geometricPrecision; image-rendering:optimizeQuality; fill-rule:evenodd; clip-rule:evenodd"
viewBox="0 0 2170003 351288"
 xmlns:xlink="http://www.w3.org/1999/xlink">
 <defs>
  <style type="text/css">
   <![CDATA[
    .fil0 {fill:#2B2A29}
    .fil6 {fill:black}
    .fil1 {fill:#1D1D1D}
    .fil2 {fill:#C2F8DE}
    .fil3 {fill:#C8BFEA}
    .fil5 {fill:#F2F6C3}
    .fil4 {fill:#FDD2E5}
   ]]>
  </style>
 </defs>
 <g id="Слой_x0020_1">
  <metadata id="CorelCorpID_0Corel-Layer"/>
  <g id="_2430015181440">
   <path class="fil0" d="M1238762 99885l3 0 43 -3 42 -3 43 -6 45 -5 31 -3 12 0 42 -3 43 -3 43 -6 45 0 34 -2 11 -3 43 -3 46 -3 45 -6 45 -2 29 -6 20 0 45 -3 46 -3 48 -5 48 -3 20 0 23 -3 51 -3 45 -6 49 -2 51 -6 11 0 37 0 48 -3 49 -3 45 -6 51 -2 11 0 40 -3 51 -3 49 -3 48 -3 54 -5 0 0 48 -3 54 -3 48 -3 157 -11 51 -3 54 -3 51 0 40 -3 11 0 54 -5 54 -3 54 -3 51 -3 37 -3 17 0 57 0 51 -3 54 -5 54 -3 31 -3 26 0 54 0 54 -6 59 0 54 -5 20 -3 37 -3 51 0 57 -3 57 0 56 -6 15 0 42 -2c4664,-202 11040,-114 14323,783 -5504,6479 -9665,8751 -14638,17339 -10696,18470 -7367,36803 -4831,55772 -2488,-10787 -7592,-21670 -15206,-32445 -7106,-10060 -15683,-18689 -23965,-27317l250 -165 292 -190 54 -28 250 -162 298 -188 74 -42 225 -142 301 -191 99 -59 202 -122 304 -185 122 -74 176 -108 304 -181 147 -86 154 -93 301 -177 176 -99 128 -77 304 -173 201 -116 102 -60 532 -295 79 -49 560 -303 51 -32 306 -167 276 -151 31 -14 304 -165 307 -159 0 -5 31 -15 338 -179 91 -48 185 -96 93 -49 26 -11 65 -34 94 -48 554 -282 22 -11 69 -37 90 -48 375 -182 91 -48 94 -43 20 -8 74 -37 463 -230 93 -43 91 -45 14 -6 80 -37 94 -48 93 -40 91 -45 94 -46 94 -45 91 -43 96 -45 12 -3 79 -37 94 -48 94 -40 93 -43 91 -42 97 -49 93 -39 91 -43 9 -3 88 -43 91 -39 93 -46 97 -39 185 -86 93 -42 97 -40 3 -3 88 -40 94 -42 96 -40 91 -43 94 -39 93 -43 97 -40 91 -42 227 -97 230 -102 230 -97 230 -96 233 -97 227 -94 228 -96 2 0 230 -97 233 -91 230 -90 0 0 233 -94 230 -94 236 -88 230 -88 0 -3 236 -88 230 -91 236 -82 0 0 230 -91 235 -85 236 -85 233 -86 236 -85 233 -82 0 0 238 -83 233 -82 3 0 233 -79 0 0 236 -80 0 0 238 -85 3 0 236 -77 233 -79 2 0 239 -77 233 -80 3 0 238 -73 0 -3 236 -77 3 0 236 -74 3 0 232 -74 3 0 239 -71 0 -2 238 -71 0 0 242 -74 236 -71 2 0 239 -71 3 0 238 -69 0 -2 236 -69 3 0 241 -68 239 -71 0 0 241 -65 0 -3 245 -65 238 -65 0 0 242 -66 0 0 238 -65 3 0 239 -65 241 -63 0 0 241 -62 0 0 242 -63 0 0 244 -62 241 -63 3 0 239 -60 0 0 241 -59 3 0 242 -60 241 -57 3 0 241 -56 0 0 244 -60 0 0 245 -54 0 0 241 -57 0 0 54 -11 148 -31 204 -49 91 -20 114 -25 204 -43 131 -28 68 -17 207 -43 176 -40 26 -5 204 -43 205 -40 11 -2 193 -43 202 -40 54 -11 151 -31 204 -37 94 -20 111 -23 204 -40 134 -25 71 -14 207 -40 170 -31 32 -9 204 -37 205 -37 8 -3 199 -37 201 -36 52 -3 150 -32 207 -34 91 -14 114 -20 204 -37 134 -25 74 -9 204 -34 171 -31 34 -6 204 -31 205 -31 8 0 401 -66 48 -8 156 -26 208 -28 88 -14 119 -20 202 -26 127 -22 80 -12 204 -28 168 -23 37 -6 204 -28 208 -28 2 0 202 -29 205 -25 42 -9 162 -17 205 -28 88 -12 119 -14 204 -25 125 -17 80 -12 202 -23 170 -19 37 -3 207 -26 208 -23 201 -25 205 -23 42 -5 162 -18 208 -19 82 -9 122 -14 204 -20 123 -17 82 -3 207 -23 159 -17 46 -3 201 -19 202 -20z"/>
   <path class="fil1" d="M1149468 41915c4184,-3701 13357,-10631 18484,-12599 -793,10818 -3369,16297 -2025,28890 4002,37606 35658,54579 55678,82918 23905,33828 23121,68711 -5930,98436 -8012,8199 -34198,27901 -38013,31843l-11380 11142c-2301,2076 -1815,2142 -3653,4593l-9531 13070c-11807,18569 -11150,28274 -16016,45437 -10997,-9345 -16739,-68115 11600,-95918 6398,-6276 15776,-22067 -909,-35913 -4547,-3775 -8725,-7969 -12511,-12508 -14187,-17012 7339,-34553 5314,-57533 -2150,-26194 1533,2488 12726,-16685 6271,-10745 -13047,-77028 -3834,-85173z"/>
   <path class="fil2" d="M1149474 41912c858,-758 1928,-1653 3130,-2616 -1014,8273 -2772,13840 -1616,24709 1667,15658 12545,37553 24269,48024 -2940,4573 -5499,8844 -7317,12147 -428,784 -857,1568 -1280,2355 -1256,-1403 -4266,-971 -5209,-2227 -1934,-2567 -1247,-1508 -3454,-3698l-4967 -10309c-1951,-2454 -2020,-3082 -3289,-4942 -6802,-9969 -15842,-17657 -17189,-30287 -826,-7774 4164,-15882 4979,-21159 3726,-4280 7745,-8291 11943,-11997z"/>
   <path class="fil3" d="M1159377 140970c-7574,-7671 -17691,-14328 -24442,-22749 -1951,-2454 -2022,-3082 -3289,-4942 -6802,-9969 -8631,-22466 -9977,-35096l-34 -338c1241,-2547 2570,-5024 3976,-7432 3420,-5857 7458,-11378 11923,-16504 -818,5277 -1480,10338 -653,18111 2300,21608 15760,38867 29779,54511 -2545,4726 -4979,9546 -7283,14439z"/>
   <path class="fil4" d="M1152661 156438c-7266,-7746 -17527,-12426 -21759,-18050 -1934,-2567 -1247,-1508 -3453,-3695 -4814,-12025 -10361,-18406 -15164,-29230 2000,-9858 5200,-19112 9353,-27618l31 338c2607,24465 20761,45616 37708,62787 -2385,5075 -4632,10236 -6716,15468z"/>
   <path class="fil5" d="M1145634 176361c-8449,-11894 -22826,-23883 -29140,-32272 -1934,-2571 -1247,-1509 -3453,-3698l-2880 -3590c-673,-10960 119,-21455 2124,-31338 8665,19526 25968,35612 40376,50975 -2605,6538 -4962,13189 -7027,19923z"/>
   <path class="fil2" d="M1145634 176361c26,94 -4902,15803 -6345,29484 -16572,-17561 -26731,-41350 -28941,-66431 -2153,-26195 7191,-2687 18382,-21861l16904 58808z"/>
   <path class="fil2" d="M1149474 41912c858,-758 1928,-1653 3130,-2616 -1014,8273 -2772,13840 -1616,24709 1667,15658 12545,37553 24269,48024 -2940,4573 -5499,8844 -7317,12147 -428,784 -857,1568 -1280,2355 -1256,-1403 -4266,-971 -5209,-2227 -1934,-2567 -1247,-1508 -3454,-3698l-4967 -10309c-1951,-2454 -2020,-3082 -3289,-4942 -6802,-9969 -15842,-17657 -17189,-30287 -826,-7774 4164,-15882 4979,-21159 3726,-4280 7745,-8291 11943,-11997z"/>
   <path class="fil3" d="M1159377 140970c-7574,-7671 -17691,-14328 -24442,-22749 -1951,-2454 -2022,-3082 -3289,-4942 -6802,-9969 -8631,-22466 -9977,-35096l-34 -338c1241,-2547 2570,-5024 3976,-7432 3420,-5857 7458,-11378 11923,-16504 -818,5277 -1480,10338 -653,18111 2300,21608 15760,38867 29779,54511 -2545,4726 -4979,9546 -7283,14439z"/>
   <path class="fil4" d="M1152095 157863c-7265,-7745 -16961,-13851 -21193,-19475 -1934,-2567 -1244,-1508 -3450,-3697 -4817,-12023 -10364,-18404 -15167,-29228 2000,-9858 5200,-19112 9353,-27618l31 338c2610,24465 20761,45616 37711,62787 -2388,5078 -5197,11659 -7285,16893z"/>
   <path class="fil5" d="M1145634 176361c-12505,-10744 -24564,-25956 -35473,-39560 -673,-10960 119,-21452 2124,-31338 8665,19529 25414,37010 39825,52372 -2605,6538 -4411,11795 -6476,18526z"/>
   <path class="fil6" d="M27424 318925l-809 -139105c43883,-440 91364,-1462 134952,-2 35266,1178 64445,33755 64695,70202 253,37277 -28154,68160 -64707,68885 -44323,880 -89705,99 -134131,20zm997186 -203559l-5 1838c-9887,0 -34599,-3016 -39990,4095 -1726,4357 -1849,13775 327,18271 7336,5751 28986,3090 39609,3081 766,46721 -86,93887 68,140670 68,21295 4487,42681 16330,52954 11963,10375 38311,14837 56670,9756l778 -21199c-11608,-7799 -31506,2758 -41509,-15075 -7464,-13306 -5396,-35789 -5396,-52179 0,-38169 -594,-76812 68,-114921 15138,0 36769,2860 48586,-2848 1324,-6200 1273,-13960 -36,-20148 -11676,-4914 -33934,-2451 -48601,-2451l-17 -45718c0,-29404 3366,-34366 -13502,-32108 -18745,2505 -13371,12003 -13368,30594 0,15130 -12,30259 -12,45388zm419656 180403c-10273,2312 -47024,45550 -106894,21826 -77011,-30517 -78348,-139237 -1349,-171328 64772,-26996 100501,23746 109757,20560 1485,-1273 10999,-10537 11638,-12789 2997,-10546 -32005,-27624 -40239,-31202 -75777,-32943 -163892,23462 -162986,109027 593,56263 39017,97192 81304,111802 41375,14297 79672,3843 112225,-20611 4675,-3510 11014,-6544 7740,-14323 -2031,-4825 -6936,-11073 -11196,-12962zm-676853 -166787l3 122543c0,91455 99638,124668 149652,79379 10844,-9818 15008,-16748 18498,-19977 2829,30685 -3959,36302 24772,33258 2025,-4422 2175,-5022 2175,-10963 0,-38532 1778,-187177 -1295,-213968 -9423,-1522 -14203,-2959 -23877,302 -4396,12064 -707,113068 -1655,136548 -3661,90523 -138500,89538 -141061,-26 -705,-24508 1999,-122347 -1639,-136897 -12750,-2008 -25573,-5255 -25573,9801zm982409 23036c-239,-10662 1142,-25214 -2860,-33420 -7035,-1278 -16484,-2380 -22693,1307 -3081,3550 -1204,177429 -1349,211891 -6,1664 -65,5714 250,7169 88,408 173,815 295,1190 3153,9662 22349,4268 23164,3652 4860,-3695 2932,-19955 2932,-30253l-15 -104401c193,-39142 31091,-68978 69902,-69927 39597,-963 70801,30188 71341,68394l-25 121103c-69,9708 -2386,22718 25771,15362 4243,-16705 1568,-84996 1568,-107686 0,-36865 -1960,-65636 -21540,-89198 -15621,-18798 -39540,-35487 -75530,-34519 -23361,628 -41597,10818 -57076,24303l-11681 12608c-2315,2417 -361,622 -2454,2425zm-1445888 64136c-1383,-19821 16794,-44309 25755,-53451 59390,-60594 136764,6686 135201,53451l-160956 0zm-1056 25641c30557,-1917 125270,-250 162535,-187 15987,28 25999,1221 26413,-15709 824,-33650 -16447,-64596 -38464,-86340 -28628,-28274 -82330,-36187 -122069,-11546 -29608,18359 -58342,56800 -56078,108283 4303,97869 106800,149000 187352,86537 14488,-11233 14599,-13162 6933,-23983 -8946,-12632 -15166,-2098 -23164,4695 -62690,53233 -146037,-1582 -143458,-61750zm1739086 -101203c54829,-10661 92614,29930 99703,76056 8316,54096 -24317,98556 -67266,106772 -54985,10520 -94699,-30863 -100947,-76359 -7390,-53810 24564,-97923 68510,-106469zm100668 157898c1651,38751 -10650,52383 25448,45896 3093,-13735 2156,-219252 -696,-224481 -5870,-3403 -14075,-2840 -20480,-778 -4896,7069 -3760,33445 -4104,44959 -10537,-15462 -13905,-31750 -46308,-44397 -68135,-26589 -149778,23062 -150065,112171 -179,55931 33156,96863 72577,112046 23403,9012 54139,9342 77533,199 26638,-10415 32929,-22167 46095,-45615zm-585153 -157881c54772,-10744 92873,30018 99828,76051 8203,54289 -24272,98621 -67396,106783 -54818,10372 -94696,-31025 -100794,-76434 -7222,-53795 24292,-97754 68362,-106400zm100712 157869c724,13917 -1707,34250 1295,46082 6452,999 17367,2155 23374,-762 3959,-3695 2039,-166579 2048,-196662 0,-7617 2272,-21994 -2690,-26632 -906,-937 -20980,-10781 -22829,7379l-1031 36246c-11522,-17569 -13516,-31015 -46470,-44386 -23321,-9463 -53801,-8850 -77312,133 -95695,36567 -97749,186075 -39,223988 33539,13016 79058,8500 105374,-17285 9302,-9111 11523,-15985 18280,-28101zm-1051194 -157908c113949,-22216 139288,162223 32491,182836 -54957,10605 -94645,-30670 -100993,-76314 -7500,-53912 24627,-97968 68502,-106522zm100663 157940c1340,37782 -9146,52315 25464,45854 2673,-11605 2607,-211173 12,-225195 -6351,-1815 -13823,-2394 -21165,-68 -4959,6862 -3795,33514 -4138,44942 -2860,-4243 -5294,-10176 -8049,-14462 -43664,-67941 -187918,-42247 -188261,82282 -247,89351 82281,138894 150072,112208 25386,-9992 33846,-22548 46065,-45561zm-680807 -272216c21580,-88 107295,-1059 122223,327 82730,7674 76050,119609 165,126371l-122609 279 221 -126977zm-26850 -13806l-3 322248c0,8648 1309,10585 10230,10585l148261 0c48521,-6 83738,-33463 92702,-75133 10821,-50285 -22255,-96125 -54996,-107602l4922 -4643c1993,-1542 3220,-2210 5223,-3846 8594,-7023 17739,-21207 22499,-31937 8188,-18458 8799,-42696 2045,-62580 -11699,-34439 -43471,-59580 -89035,-59580l-131621 0c-9673,0 -10227,3357 -10227,12488z"/>
  </g>
 </g>
</svg>
