<?xml version="1.0" encoding="UTF-8"?>
<!DOCTYPE svg PUBLIC "-//W3C//DTD SVG 1.1//EN" "http://www.w3.org/Graphics/SVG/1.1/DTD/svg11.dtd">
<!-- Creator: CorelDRAW X8 -->
<svg xmlns="http://www.w3.org/2000/svg" xml:space="preserve" width="29px" height="86px" version="1.1" style="shape-rendering:geometricPrecision; text-rendering:geometricPrecision; image-rendering:optimizeQuality; fill-rule:evenodd; clip-rule:evenodd"
viewBox="0 0 290000 859957"
 xmlns:xlink="http://www.w3.org/1999/xlink">
 <defs>
  <style type="text/css">
   <![CDATA[
    .fil0 {fill:white;fill-rule:nonzero}
   ]]>
  </style>
 </defs>
 <g id="Слой_x0020_1">
  <metadata id="CorelCorpID_0Corel-Layer"/>
  <g id="_2429995951744">
   <path class="fil0" d="M129214 129993c0,-11043 8957,-20001 20001,-20001 11044,0 20001,8958 20001,20001l0 60004c0,11044 -8957,20001 -20001,20001 -11044,0 -20001,-8957 -20001,-20001l0 -60004zm15783 -129993c39895,0 76150,16310 102421,42582 26272,26271 42582,62526 42582,102415l0 140003c0,39889 -16310,76144 -42582,102415 -26271,26271 -62526,42582 -102415,42582 -39895,0 -76150,-16311 -102421,-42582 -26272,-26271 -42582,-62526 -42582,-102415l0 -140003c0,-39889 16310,-76144 42582,-102415 26271,-26272 62526,-42582 102415,-42582zm6 30002c-31618,0 -60367,12943 -81212,33789 -20846,20845 -33789,49594 -33789,81206l0 140003c0,31612 12943,60360 33789,81206 20845,20846 49594,33789 81206,33789 31618,0 60367,-12943 81212,-33789 20846,-20846 33789,-49594 33789,-81206l0 -140003c0,-31612 -12943,-60361 -33789,-81206 -20845,-20846 -49594,-33789 -81206,-33789z"/>
   <path class="fil0" d="M139212 573993c0,-5521 4478,-10000 10000,-10000 5522,0 10001,4479 10001,10000l0 245148 46919 -64964c3211,-4465 9439,-5477 13904,-2265 4464,3212 5476,9439 2264,13904l-64887 89841c-629,913 -1426,1737 -2378,2423 -4465,3212 -10693,2200 -13904,-2265l-65001 -89999c-3212,-4465 -2200,-10692 2265,-13904 4464,-3212 10692,-2200 13903,2265l46914 64956 0 -245140z"/>
  </g>
 </g>
</svg>
