<?xml version="1.0" encoding="UTF-8"?>
<!DOCTYPE svg PUBLIC "-//W3C//DTD SVG 1.1//EN" "http://www.w3.org/Graphics/SVG/1.1/DTD/svg11.dtd">
<!-- Creator: CorelDRAW X8 -->
<svg xmlns="http://www.w3.org/2000/svg" xml:space="preserve" width="26px" height="17px" version="1.1" style="shape-rendering:geometricPrecision; text-rendering:geometricPrecision; image-rendering:optimizeQuality; fill-rule:evenodd; clip-rule:evenodd"
viewBox="0 0 260000 165444"
 xmlns:xlink="http://www.w3.org/1999/xlink">
 <defs>
  <style type="text/css">
   <![CDATA[
    .fil0 {fill:white}
   ]]>
  </style>
 </defs>
 <g id="Слой_x0020_1">
  <metadata id="CorelCorpID_0Corel-Layer"/>
  <path class="fil0" d="M257985 76584c-2686,-3215 -51165,-76584 -127873,-76584 -76707,0 -125186,73369 -127873,76584 -2984,3507 -2984,8474 0,12273 2687,3218 51166,76587 127873,76587 76708,0 125187,-73661 127873,-76587 2687,-3506 2687,-8766 0,-12273zm-103705 6137c0,-13078 -10826,-23677 -24179,-23677 -13352,0 -24176,10599 -24176,23677 0,13080 10824,23679 24176,23679 13353,0 24179,-10599 24179,-23679zm-24168 50274c-28354,0 -51336,-22507 -51336,-50274 0,-27771 22982,-50275 51336,-50275 28355,0 51337,22504 51337,50275 0,27767 -22982,50274 -51337,50274z"/>
 </g>
</svg>
