<?xml version="1.0" encoding="UTF-8"?>
<!DOCTYPE svg PUBLIC "-//W3C//DTD SVG 1.1//EN" "http://www.w3.org/Graphics/SVG/1.1/DTD/svg11.dtd">
<!-- Creator: CorelDRAW X8 -->
<svg xmlns="http://www.w3.org/2000/svg" xml:space="preserve" width="20px" height="13px" version="1.1" style="shape-rendering:geometricPrecision; text-rendering:geometricPrecision; image-rendering:optimizeQuality; fill-rule:evenodd; clip-rule:evenodd"
viewBox="0 0 200003 127265"
 xmlns:xlink="http://www.w3.org/1999/xlink">
 <defs>
  <style type="text/css">
   <![CDATA[
    .fil0 {fill:gray}
   ]]>
  </style>
 </defs>
 <g id="Слой_x0020_1">
  <metadata id="CorelCorpID_0Corel-Layer"/>
  <path class="fil0" d="M198452 58911c-2066,-2474 -39358,-58911 -98366,-58911 -59005,0 -96297,56437 -98362,58911 -2297,2699 -2297,6519 0,9440 2065,2474 39357,58914 98362,58914 59008,0 96300,-56662 98366,-58914 2065,-2696 2065,-6741 0,-9440zm-79774 4720c0,-10060 -8329,-18214 -18600,-18214 -10272,0 -18597,8154 -18597,18214 0,10060 8325,18214 18597,18214 10271,0 18600,-8154 18600,-18214zm-18592 38674c-21811,0 -39491,-17313 -39491,-38674 0,-21360 17680,-38673 39491,-38673 21814,0 39491,17313 39491,38673 0,21361 -17677,38674 -39491,38674z"/>
 </g>
</svg>
