<?xml version="1.0" encoding="UTF-8"?>
<!DOCTYPE svg PUBLIC "-//W3C//DTD SVG 1.1//EN" "http://www.w3.org/Graphics/SVG/1.1/DTD/svg11.dtd">
<!-- Creator: CorelDRAW X8 -->
<svg xmlns="http://www.w3.org/2000/svg" xml:space="preserve" width="18px" height="20px" version="1.1" style="shape-rendering:geometricPrecision; text-rendering:geometricPrecision; image-rendering:optimizeQuality; fill-rule:evenodd; clip-rule:evenodd"
viewBox="0 0 180000 197998"
 xmlns:xlink="http://www.w3.org/1999/xlink">
 <defs>
  <style type="text/css">
   <![CDATA[
    .fil0 {fill:#333333;fill-rule:nonzero}
   ]]>
  </style>
 </defs>
 <g id="Слой_x0020_1">
  <metadata id="CorelCorpID_0Corel-Layer"/>
  <path class="fil0" d="M177463 181501c3651,4056 3320,10309 -735,13960 -4056,3652 -10309,3320 -13960,-735l-42870 -47557c-11894,7134 -25812,11243 -40692,11243 -43745,0 -79206,-35460 -79206,-79206 0,-43745 35461,-79206 79206,-79206 43746,0 79206,35461 79206,79206 0,21734 -8753,41419 -22926,55729l41977 46566zm-56249 -144303c-10746,-10746 -25601,-17398 -42008,-17398 -16404,0 -31262,6652 -42008,17398 -10746,10746 -17398,25601 -17398,42008 0,16404 6652,31262 17398,42008 10746,10747 25604,17398 42008,17398 16407,0 31262,-6651 42008,-17398 10747,-10746 17398,-25604 17398,-42008 0,-16407 -6651,-31262 -17398,-42008z"/>
 </g>
</svg>
