<?xml version="1.0" encoding="UTF-8"?>
<!DOCTYPE svg PUBLIC "-//W3C//DTD SVG 1.1//EN" "http://www.w3.org/Graphics/SVG/1.1/DTD/svg11.dtd">
<!-- Creator: CorelDRAW X8 -->
<svg xmlns="http://www.w3.org/2000/svg" xml:space="preserve" width="23px" height="20px" version="1.1" style="shape-rendering:geometricPrecision; text-rendering:geometricPrecision; image-rendering:optimizeQuality; fill-rule:evenodd; clip-rule:evenodd"
viewBox="0 0 230000 196998"
 xmlns:xlink="http://www.w3.org/1999/xlink">
 <defs>
  <style type="text/css">
   <![CDATA[
    .fil0 {fill:#333333}
   ]]>
  </style>
 </defs>
 <g id="Слой_x0020_1">
  <metadata id="CorelCorpID_0Corel-Layer"/>
  <path class="fil0" d="M20021 19422c12285,-11987 29217,-19422 47843,-19422 8326,0 16551,1534 24281,4450 7677,2898 14852,7195 21126,12736l1743 1621 1718 -1604c6273,-5544 13446,-9849 21129,-12751 7721,-2918 15935,-4452 24264,-4452 18625,0 35564,7432 47849,19425 12360,12059 20026,28708 20026,47049 0,11556 -1927,22093 -6028,32264 -4032,9994 -10125,19445 -18517,29004 -22371,25481 -75101,61930 -81313,66201l-566 399c-1272,863 -2637,1509 -4029,1946l-39 0c-1534,476 -3060,710 -4508,710 -1231,0 -2526,-170 -3834,-518l-710 -192c-1473,-459 -2879,-1136 -4149,-2022l-162 -125c-4611,-3169 -58842,-40478 -81600,-66399 -8392,-9559 -14487,-19013 -18517,-29006 -4098,-10167 -6028,-20703 -6028,-32262 0,-18341 7663,-34990 20021,-47052zm29379 3787c-5948,2414 -11286,5928 -15721,10255 -4436,4330 -8023,9512 -10467,15265 -2298,5396 -3567,11391 -3567,17745 0,4804 359,9167 1094,13121 741,3996 1896,7930 3475,11851 1576,3909 3539,7691 5900,11389l34 -23c2609,4077 5650,8073 9130,12038 10283,11711 28536,26653 44767,39047 14404,10996 26065,19216 30955,22613 4981,-3461 17069,-11974 31844,-23290 15997,-12252 33778,-26868 43878,-38370 3597,-4102 6638,-8070 9127,-11963l0 -75c2434,-3803 4408,-7574 5937,-11363 1584,-3926 2737,-7861 3478,-11854 732,-3954 1091,-8314 1091,-13121 0,-6354 -1269,-12349 -3567,-17745 -2444,-5750 -6036,-10932 -10472,-15262 -4436,-4330 -9774,-7844 -15721,-10255 -5656,-2298 -11899,-3567 -18470,-3567 -3183,0 -6120,253 -8774,738 -2851,523 -5731,1333 -8585,2411 -2651,1000 -5301,2297 -7905,3868 -2511,1517 -4789,3152 -6791,4875l-15031 14059 -15120 -14061c-1980,-1732 -4257,-3361 -6769,-4876 -2606,-1571 -5257,-2865 -7911,-3868 -2848,-1075 -5733,-1885 -8596,-2408 -2659,-485 -5596,-738 -8779,-738 -6572,0 -12809,1269 -18464,3564z"/>
 </g>
</svg>
