<?xml version="1.0" encoding="UTF-8"?>
<!DOCTYPE svg PUBLIC "-//W3C//DTD SVG 1.1//EN" "http://www.w3.org/Graphics/SVG/1.1/DTD/svg11.dtd">
<!-- Creator: CorelDRAW X8 -->
<svg xmlns="http://www.w3.org/2000/svg" xml:space="preserve" width="18px" height="20px" version="1.1" style="shape-rendering:geometricPrecision; text-rendering:geometricPrecision; image-rendering:optimizeQuality; fill-rule:evenodd; clip-rule:evenodd"
viewBox="0 0 180000 197998"
 xmlns:xlink="http://www.w3.org/1999/xlink">
 <defs>
  <style type="text/css">
   <![CDATA[
    .fil0 {fill:url(#id0)}
   ]]>
  </style>
  <linearGradient id="id0" gradientUnits="userSpaceOnUse" x1="-0" y1="98997.8" x2="180000" y2="98997.8">
   <stop offset="0" style="stop-opacity:1; stop-color:#A655E8"/>
   <stop offset="1" style="stop-opacity:1; stop-color:#8651E7"/>
  </linearGradient>
 </defs>
 <g id="Слой_x0020_1">
  <metadata id="CorelCorpID_0Corel-Layer"/>
  <path class="fil0" d="M177463 181501c3651,4056 3320,10309 -735,13960 -4056,3652 -10309,3320 -13960,-735l-42870 -47557c-11894,7134 -25812,11243 -40692,11243 -43745,0 -79206,-35460 -79206,-79206 0,-43745 35461,-79206 79206,-79206 43746,0 79206,35461 79206,79206 0,21734 -8753,41419 -22926,55729l41977 46566zm-68266 -132286c-7673,-7670 -18276,-12421 -29991,-12421 -11712,0 -22318,4751 -29991,12421 -7670,7673 -12421,18277 -12421,29991 0,11712 4751,22318 12421,29991 7673,7670 18279,12421 29991,12421 11715,0 22318,-4751 29991,-12421 7670,-7673 12421,-18279 12421,-29991 0,-11714 -4751,-22318 -12421,-29991z"/>
 </g>
</svg>
