<?xml version="1.0" encoding="UTF-8"?>
<!DOCTYPE svg PUBLIC "-//W3C//DTD SVG 1.1//EN" "http://www.w3.org/Graphics/SVG/1.1/DTD/svg11.dtd">
<!-- Creator: CorelDRAW X8 -->
<svg xmlns="http://www.w3.org/2000/svg" xml:space="preserve" width="24px" height="20px" version="1.1" style="shape-rendering:geometricPrecision; text-rendering:geometricPrecision; image-rendering:optimizeQuality; fill-rule:evenodd; clip-rule:evenodd"
viewBox="0 0 240000 197725"
 xmlns:xlink="http://www.w3.org/1999/xlink">
 <defs>
  <style type="text/css">
   <![CDATA[
    .fil0 {fill:url(#id0)}
   ]]>
  </style>
  <linearGradient id="id0" gradientUnits="userSpaceOnUse" x1="-0" y1="98862.3" x2="240000" y2="98862.3">
   <stop offset="0" style="stop-opacity:1; stop-color:#A655E8"/>
   <stop offset="1" style="stop-opacity:1; stop-color:#8651E7"/>
  </linearGradient>
 </defs>
 <g id="Слой_x0020_1">
  <metadata id="CorelCorpID_0Corel-Layer"/>
  <path class="fil0" d="M207230 30542l32075 76680c838,1911 723,3581 628,5083l-34 493c-451,9637 -5697,18265 -13227,24562 -7894,6605 -18388,10705 -28457,10705 -10324,0 -21043,-4318 -28981,-11237 -7578,-6586 -12695,-15606 -12731,-25610 -14,-482 31,-1023 123,-1626 90,-583 230,-1149 418,-1684l27344 -64416 -54779 0 0 135104 41491 0c2628,0 5019,1076 6753,2802 1738,1738 2820,4131 2820,6759 0,2623 -1079,5019 -2811,6757 -1724,1737 -4120,2811 -6762,2811l-102119 0c-2623,0 -5016,-1077 -6753,-2808 -1738,-1724 -2808,-4117 -2808,-6760 0,-2636 1070,-5030 2799,-6761 1746,-1724 4134,-2800 6762,-2800l41502 0 0 -135104 -54779 0 27185 63962c244,723 395,1589 471,2489 64,793 73,1759 39,2735l0 44c-423,9668 -5677,18325 -13224,24641 -7894,6599 -18389,10702 -28454,10702 -10274,0 -20948,-4273 -28881,-11128 -7566,-6543 -12717,-15480 -12837,-25403 -9,-613 11,-1182 73,-1690l14 -25c87,-653 227,-1297 451,-1928l32313 -77349c684,-1813 1917,-3334 3430,-4402 1595,-1124 3531,-1780 5509,-1780l68682 0 0 -14796c0,-2631 1082,-5024 2819,-6762 1732,-1726 4128,-2802 6751,-2802 2628,0 5016,1076 6748,2799 1740,1749 2816,4137 2816,6765l0 14796 68684 0c1973,0 3929,665 5527,1791 1518,1071 2746,2587 3410,4391z"/>
 </g>
</svg>
