<?xml version="1.0" encoding="UTF-8"?>
<!DOCTYPE svg PUBLIC "-//W3C//DTD SVG 1.1//EN" "http://www.w3.org/Graphics/SVG/1.1/DTD/svg11.dtd">
<!-- Creator: CorelDRAW X8 -->
<svg xmlns="http://www.w3.org/2000/svg" xml:space="preserve" width="23px" height="20px" version="1.1" style="shape-rendering:geometricPrecision; text-rendering:geometricPrecision; image-rendering:optimizeQuality; fill-rule:evenodd; clip-rule:evenodd"
viewBox="0 0 230000 196998"
 xmlns:xlink="http://www.w3.org/1999/xlink">
 <defs>
  <style type="text/css">
   <![CDATA[
    .fil0 {fill:url(#id0)}
   ]]>
  </style>
  <linearGradient id="id0" gradientUnits="userSpaceOnUse" x1="-0" y1="98499" x2="230000" y2="98499">
   <stop offset="0" style="stop-opacity:1; stop-color:#A655E8"/>
   <stop offset="1" style="stop-opacity:1; stop-color:#8651E7"/>
  </linearGradient>
 </defs>
 <g id="Слой_x0020_1">
  <metadata id="CorelCorpID_0Corel-Layer"/>
  <path class="fil0" d="M20021 19422c12285,-11987 29217,-19422 47843,-19422 8326,0 16551,1534 24281,4450 7677,2898 14852,7195 21126,12736l1743 1621 1718 -1604c6273,-5544 13446,-9849 21129,-12751 7721,-2918 15935,-4452 24264,-4452 18625,0 35564,7432 47849,19425 12360,12059 20026,28708 20026,47049 0,11556 -1927,22093 -6028,32264 -4032,9994 -10125,19445 -18517,29004 -22371,25481 -75101,61930 -81313,66201l-566 399c-1272,863 -2637,1509 -4029,1946l-39 0c-1534,476 -3060,710 -4508,710 -1231,0 -2526,-170 -3834,-518l-710 -192c-1473,-459 -2879,-1136 -4149,-2022l-162 -125c-4611,-3169 -58842,-40478 -81600,-66399 -8392,-9559 -14487,-19013 -18517,-29006 -4098,-10167 -6028,-20703 -6028,-32262 0,-18341 7663,-34990 20021,-47052z"/>
 </g>
</svg>
