<?xml version="1.0" encoding="UTF-8"?>
<!DOCTYPE svg PUBLIC "-//W3C//DTD SVG 1.1//EN" "http://www.w3.org/Graphics/SVG/1.1/DTD/svg11.dtd">
<!-- Creator: CorelDRAW X8 -->
<svg xmlns="http://www.w3.org/2000/svg" xml:space="preserve" width="18px" height="21px" version="1.1" style="shape-rendering:geometricPrecision; text-rendering:geometricPrecision; image-rendering:optimizeQuality; fill-rule:evenodd; clip-rule:evenodd"
viewBox="0 0 180000 202328"
 xmlns:xlink="http://www.w3.org/1999/xlink">
 <defs>
  <style type="text/css">
   <![CDATA[
    .fil0 {fill:#D2D2D2;fill-rule:nonzero}
   ]]>
  </style>
 </defs>
 <g id="Слой_x0020_1">
  <metadata id="CorelCorpID_0Corel-Layer"/>
  <path class="fil0" d="M180000 51468c0,-2452 -2452,-4085 -4904,-4085l-20151 0 3814 -42210c0,-272 0,-544 0,-544 0,-2452 -1362,-4629 -4085,-4629l-40574 0c-2995,0 -4901,2452 -5175,5173l-3811 42210 -21785 0 3811 -42210c0,-272 0,-272 0,-544 0,-2452 -1633,-4629 -4082,-4629l-40848 0c-2724,0 -4901,2452 -5176,5173l-3811 42210 -18245 0c-2724,0 -5176,1905 -5448,4629l-2995 27504c0,271 0,271 0,543 0,2449 2452,3811 4901,3811l18791 0 -3267 35129 -18520 0c-2721,0 -5173,1905 -5444,4632l-2996 27501c0,274 0,274 0,546 0,2449 2452,3814 4901,3814l18792 0 -3542 41663c0,272 0,272 0,544 0,2449 1905,4629 4357,4629l40848 0c2721,0 4629,-2452 4901,-5173l3539 -41663 21787 0 -3542 41663c0,272 0,272 0,544 0,2449 1637,4629 4358,4629l40573 0c2996,0 4632,-2452 4904,-5173l3539 -41663 19607 0c2724,0 5173,-1637 5445,-4360l2995 -27501c0,-275 0,-275 0,-547 0,-2452 -2449,-4085 -4901,-4085l-19878 0 3267 -35129 19607 0c2724,0 5176,-1633 5447,-4354l2996 -27504c0,-272 0,-272 0,-544zm-77882 32402l-3267 35129 -21787 0 3267 -35129 21787 0z"/>
 </g>
</svg>
