<?xml version="1.0" encoding="UTF-8"?>
<!DOCTYPE svg PUBLIC "-//W3C//DTD SVG 1.1//EN" "http://www.w3.org/Graphics/SVG/1.1/DTD/svg11.dtd">
<!-- Creator: CorelDRAW X8 -->
<svg xmlns="http://www.w3.org/2000/svg" xml:space="preserve" width="21px" height="22px" version="1.1" style="shape-rendering:geometricPrecision; text-rendering:geometricPrecision; image-rendering:optimizeQuality; fill-rule:evenodd; clip-rule:evenodd"
viewBox="0 0 210000 221597"
 xmlns:xlink="http://www.w3.org/1999/xlink">
 <defs>
  <style type="text/css">
   <![CDATA[
    .fil0 {fill:#D2D2D2}
   ]]>
  </style>
 </defs>
 <g id="Слой_x0020_1">
  <metadata id="CorelCorpID_0Corel-Layer"/>
  <path class="fil0" d="M200825 33005l-191650 0c-5098,0 -9175,4077 -9175,9175l0 8834c0,5099 4077,9175 9175,9175l191650 0c5095,0 9175,-4076 9175,-9175l0 -8834c0,-5098 -4080,-9175 -9175,-9175zm-9856 149853l0 -112813 -171938 0 0 112475 55046 0 0 -41116 24126 0 0 41116 13592 0 0 -41116 24128 0 0 41116 55046 0 0 338zm-119951 -68979c0,2037 -1699,3737 -3736,3737l-16991 0c-2039,0 -3739,-1700 -3739,-3737l0 -16990c0,-2040 1700,-3739 3739,-3739l16991 0c2037,0 3736,1699 3736,3739l0 16990zm46215 0c0,2037 -1699,3737 -3739,3737l-16988 0c-2040,0 -3739,-1700 -3739,-3737l0 -16990c0,-2040 1699,-3739 3739,-3739l16988 0c2040,0 3739,1699 3739,3739l0 16990zm21749 -16990c0,-2040 1696,-3739 3736,-3739l16991 0c2039,0 3736,1699 3736,3739l0 16990c0,2037 -1697,3737 -3736,3737l-16991 0c-2040,0 -3736,-1700 -3736,-3737l0 -16990zm-3059 -90092c0,-3398 -2720,-6457 -6457,-6457 -43103,0 12183,-340 -48932,-340 -3399,0 -6457,2718 -6457,6457l0 19754 61846 0 0 -19414zm64902 187616l-191650 0c-5098,0 -9175,4077 -9175,9175l0 8834c0,5096 4077,9175 9175,9175l191650 0c5095,0 9175,-4079 9175,-9175l0 -8834c0,-5098 -4080,-9175 -9175,-9175z"/>
 </g>
</svg>
