<?xml version="1.0" encoding="UTF-8"?>
<!DOCTYPE svg PUBLIC "-//W3C//DTD SVG 1.1//EN" "http://www.w3.org/Graphics/SVG/1.1/DTD/svg11.dtd">
<!-- Creator: CorelDRAW X8 -->
<svg xmlns="http://www.w3.org/2000/svg" xml:space="preserve" width="22px" height="22px" version="1.1" style="shape-rendering:geometricPrecision; text-rendering:geometricPrecision; image-rendering:optimizeQuality; fill-rule:evenodd; clip-rule:evenodd"
viewBox="0 0 220000 220000"
 xmlns:xlink="http://www.w3.org/1999/xlink">
 <defs>
  <style type="text/css">
   <![CDATA[
    .fil0 {fill:#D2D2D2}
   ]]>
  </style>
 </defs>
 <g id="Слой_x0020_1">
  <metadata id="CorelCorpID_0Corel-Layer"/>
  <path class="fil0" d="M110000 0c60751,0 110000,49249 110000,110000 0,60751 -49249,110000 -110000,110000 -60751,0 -110000,-49249 -110000,-110000 0,-60751 49249,-110000 110000,-110000zm0 58821l-6185 0 0 -16580 6185 0 0 -12690c-22218,0 -42332,9005 -56888,23561 -14556,14556 -23561,34670 -23561,56888 0,22218 9005,42332 23561,56888 14556,14556 34670,23561 56888,23561 22218,0 42332,-9005 56888,-23561 14556,-14556 23561,-34670 23561,-56888l0 -3 -12690 0 0 6188 -16577 0 0 -6188 -51182 3 0 -51179zm-30945 92408l10714 6186 -8291 14360 -10715 -6188 8292 -14358zm-16470 -20998l6186 10714 -14358 8292 -6188 -10715 14360 -8291zm-3764 -26416l0 12370 -16577 0 0 -12370 16577 0zm9950 -24760l-6186 10712 -14357 -8286 6185 -10718 14358 8292zm103004 59467l-6185 10715 -14358 -8292 6185 -10712 14358 8289zm-82006 -75937l-10714 6186 -8292 -14358 10715 -6188 8291 14360zm59468 103005l-10715 6185 -8289 -14360 10712 -6186 8292 14361zm-33049 12169l-12373 0 0 -16580 12373 0 0 16580z"/>
 </g>
</svg>
