<?xml version="1.0" encoding="UTF-8"?>
<!DOCTYPE svg PUBLIC "-//W3C//DTD SVG 1.1//EN" "http://www.w3.org/Graphics/SVG/1.1/DTD/svg11.dtd">
<!-- Creator: CorelDRAW X8 -->
<svg xmlns="http://www.w3.org/2000/svg" xml:space="preserve" width="22px" height="22px" version="1.1" style="shape-rendering:geometricPrecision; text-rendering:geometricPrecision; image-rendering:optimizeQuality; fill-rule:evenodd; clip-rule:evenodd"
viewBox="0 0 220003 220006"
 xmlns:xlink="http://www.w3.org/1999/xlink">
 <defs>
  <style type="text/css">
   <![CDATA[
    .fil0 {fill:#D2D2D2}
   ]]>
  </style>
 </defs>
 <g id="Слой_x0020_1">
  <metadata id="CorelCorpID_0Corel-Layer"/>
  <path class="fil0" d="M70000 0l-40001 0c-16565,0 -29999,13436 -29999,30002l0 40001c0,16565 13434,29999 29999,29999l40001 0c16566,0 29999,-13434 29999,-29999l0 -40001c0,-16566 -13433,-30002 -29999,-30002l0 0zm120001 0l-40001 0c-16566,0 -29999,13436 -29999,30002l0 40001c0,16565 13433,29999 29999,29999l40001 0c16565,0 29999,-13434 29999,-29999l3 -40001c-3,-16566 -13437,-30002 -30002,-30002l0 0zm0 120004l-40001 0c-16566,0 -29999,13433 -29999,29999l0 40000c0,16566 13433,30000 29999,30000l40001 3c16565,-3 29999,-13437 29999,-30003l3 -40000c-3,-16566 -13437,-29999 -30002,-29999l0 0zm-120001 0l-40001 0c-16565,0 -29999,13433 -29999,29999l0 40000c0,16566 13434,30000 29999,30000l40001 3c16566,-3 29999,-13437 29999,-30003l0 -40000c0,-16566 -13433,-29999 -29999,-29999l0 0z"/>
 </g>
</svg>
