<?xml version="1.0" encoding="UTF-8"?>
<!DOCTYPE svg PUBLIC "-//W3C//DTD SVG 1.1//EN" "http://www.w3.org/Graphics/SVG/1.1/DTD/svg11.dtd">
<!-- Creator: CorelDRAW X8 -->
<svg xmlns="http://www.w3.org/2000/svg" xml:space="preserve" width="18px" height="23px" version="1.1" style="shape-rendering:geometricPrecision; text-rendering:geometricPrecision; image-rendering:optimizeQuality; fill-rule:evenodd; clip-rule:evenodd"
viewBox="0 0 180000 227963"
 xmlns:xlink="http://www.w3.org/1999/xlink">
 <defs>
  <style type="text/css">
   <![CDATA[
    .fil0 {fill:#D2D2D2}
   ]]>
  </style>
 </defs>
 <g id="Слой_x0020_1">
  <metadata id="CorelCorpID_0Corel-Layer"/>
  <path class="fil0" d="M179915 196783c-107,-1224 -341,-2440 -688,-3634 -3857,-13251 -8948,-21662 -14001,-27057 -8316,-8863 -16541,-9557 -19063,-10135 -472,-113 -934,-215 -1425,-308 -1541,-1416 -2752,-3409 -3702,-5782 -2368,-5965 -3076,-14432 -2994,-22850 138,-15143 2793,-30158 2793,-30158l0 0c0,-2099 -48,-4116 -132,-6083 -23,-629 -62,-1222 -99,-1837 -71,-1326 -158,-2635 -263,-3899 -59,-672 -124,-1321 -191,-1978 -110,-1180 -252,-2323 -398,-3440 -88,-624 -164,-1250 -260,-1851 -172,-1151 -367,-2272 -573,-3361 -93,-491 -177,-1001 -276,-1495 -294,-1482 -624,-2926 -979,-4306 -14,-57 -29,-116 -43,-175 -378,-1448 -793,-2836 -1230,-4170 -113,-390 -262,-748 -386,-1129 -311,-934 -644,-1843 -985,-2723 -48,-127 -99,-246 -147,-367l14 -5 0 -19067 4941 -2138 14927 -6465c3905,-1687 3905,-4450 0,-6143l-57656 -24957c-3902,-1693 -10285,-1693 -14196,0l-57652 24955c-3905,1690 -3905,4455 0,6142l4368 1894 -370 2934c-1673,288 -2948,1741 -2948,3496 0,1580 1027,2921 2455,3375l-2650 37153c-107,1546 200,4024 691,5499l2153 6459c494,1476 1287,1476 1784,0l2153 -6459c493,-1475 804,-3953 691,-5499l-2647 -37153c1422,-460 2458,-1795 2458,-3375 0,-1755 -1273,-3208 -2954,-3496l-339 -2728 10085 4368 4940 2138 0 19067 9 5c-51,124 -102,243 -150,370 -341,880 -668,1789 -985,2723 -124,381 -270,739 -386,1128 -437,1338 -849,2726 -1228,4171 -16,56 -28,118 -42,175 -355,1380 -688,2824 -979,4306 -99,493 -183,1004 -282,1495 -200,1086 -395,2209 -570,3361 -93,604 -172,1227 -257,1851 -149,1120 -288,2260 -398,3439 -73,658 -135,1304 -192,1978 -107,1264 -194,2571 -268,3900 -28,615 -73,1208 -98,1837 -85,1966 -127,3984 -127,6083l0 0c0,0 2652,15014 2790,30158 82,8417 -626,16885 -2996,22850 -951,2376 -2162,4365 -3697,5782 -491,93 -959,192 -1425,307 -2522,579 -10747,1273 -19066,10136 -5053,5395 -10144,13803 -14001,27057 -344,1193 -581,2407 -688,3634 -339,3654 361,7365 2040,10539 8352,15787 52243,20638 87717,20638 54,0 107,0 161,0 51,0 101,0 152,0 35477,0 79368,-4851 87720,-20638 1676,-3174 2382,-6885 2040,-10542zm-56512 -43524c-158,1321 -748,2593 -1685,3804 -4432,5666 -16868,13834 -31529,13834 -59,0 -124,-5 -183,-5 -65,0 -127,5 -189,5 -14659,0 -27100,-8168 -31533,-13834 -936,-1211 -1523,-2481 -1681,-3804 0,-8 0,-8 0,-8 217,-79 722,-254 1396,-562 271,-116 576,-268 884,-437 2683,-1405 6622,-4340 6622,-9501 0,0 0,0 0,0 4227,4182 8939,7511 13962,9501 3377,1340 6902,2082 10525,2082 5,0 8,0 14,0l8 0c3623,0 7147,-742 10525,-2082 5023,-1990 9735,-5319 13962,-9501 5,0 5,0 5,0 0,5161 3936,8096 6617,9501 308,166 612,321 886,437 672,308 1177,480 1397,562 -3,0 -3,0 -3,8zm7342 -49292c-629,3505 -1953,6431 -3395,7878 -708,717 -1467,1073 -2164,948 -350,-64 -652,-237 -937,-491 -3417,10635 -9946,21239 -18180,27642 -4859,3769 -10307,6075 -16066,6075l0 0c-5762,0 -11213,-2306 -16067,-6075 -8236,-6400 -14766,-17007 -18183,-27642 -285,254 -587,427 -939,491 -694,125 -1451,-231 -2162,-948 -1439,-1447 -2765,-4373 -3391,-7878 -209,-1157 -322,-2277 -353,-3326 -87,-3152 587,-5661 1812,-6538 217,-158 462,-263 719,-305 578,-102 1191,118 1786,604 0,0 0,-48 6,-136 87,-849 621,-5378 2483,-10194 76,-192 152,-390 231,-584 237,-582 500,-1169 776,-1747 45,-93 85,-183 130,-277 28,-53 56,-107 85,-160 265,-528 550,-1056 852,-1569 209,-353 423,-697 646,-1041 76,-113 144,-229 217,-342 76,-110 164,-217 243,-327 152,-217 305,-438 468,-646 1640,-2136 3733,-3922 6335,-5012l7906 0 9303 4030c3908,1690 10294,1690 14196,0l9312 -4030 7898 0c2601,1087 4695,2876 6334,5012 161,208 316,429 471,646 77,110 161,217 240,327 76,113 147,226 220,342 223,344 438,688 646,1041 302,516 587,1041 853,1569 31,53 59,107 84,160 43,94 85,184 130,277 277,578 539,1162 776,1747 79,197 158,392 234,584 1860,4819 2393,9345 2483,10194 6,91 6,136 6,136 598,-486 1208,-706 1789,-604 254,42 491,150 714,305 1224,877 1896,3386 1808,6538 -33,1049 -149,2169 -355,3326z"/>
 </g>
</svg>
