<?xml version="1.0" encoding="UTF-8"?>
<!DOCTYPE svg PUBLIC "-//W3C//DTD SVG 1.1//EN" "http://www.w3.org/Graphics/SVG/1.1/DTD/svg11.dtd">
<!-- Creator: CorelDRAW X8 -->
<svg xmlns="http://www.w3.org/2000/svg" xml:space="preserve" width="120px" height="120px" version="1.1" style="shape-rendering:geometricPrecision; text-rendering:geometricPrecision; image-rendering:optimizeQuality; fill-rule:evenodd; clip-rule:evenodd"
viewBox="0 0 1200000 1200000"
 xmlns:xlink="http://www.w3.org/1999/xlink">
 <defs>
  <style type="text/css">
   <![CDATA[
    .fil6 {fill:#7B7179}
    .fil5 {fill:#8C808A}
    .fil2 {fill:#C44895}
    .fil1 {fill:#D957A8}
    .fil4 {fill:#F7B081}
    .fil0 {fill:#FCF2F8}
    .fil3 {fill:#FFC89F}
   ]]>
  </style>
 </defs>
 <g id="Слой_x0020_1">
  <metadata id="CorelCorpID_0Corel-Layer"/>
  <g id="_2429985874896">
   <path class="fil0" d="M600000 0c331370,0 600000,268630 600000,600000 0,331370 -268630,600000 -600000,600000 -331370,0 -600000,-268630 -600000,-600000 0,-331370 268630,-600000 600000,-600000z"/>
   <g>
    <path class="fil1" d="M759582 475449l-35039 -35042c-11291,-11288 -10270,-29880 2185,-39869l110109 -88280 50893 50891 -88282 110109c-9983,12455 -28579,13478 -39866,2191z"/>
    <path class="fil2" d="M732999 448865l26586 26584c11287,11287 29880,10270 39866,-2189l88282 -110108 -26586 -26584 -88279 110109c-9987,12456 -28579,13476 -39869,2188z"/>
    <path class="fil3" d="M66192 874198l246163 -246163c71691,-71691 187919,-71691 259610,0 71688,71688 71688,187919 0,259607l-246166 246166c-111279,-57279 -202328,-148328 -259607,-259610z"/>
    <path class="fil4" d="M545382 861059l-253720 253720c11154,6696 22532,13054 34140,19029l246163 -246166c71691,-71688 71691,-187919 0,-259610 -4487,-4487 -9147,-8694 -13963,-12620 58788,72105 54584,178446 -12620,245647z"/>
    <path class="fil5" d="M998020 151075l-161183 161183 50893 50891 161186 -161184c-15939,-17960 -32935,-34954 -50896,-50890z"/>
    <path class="fil6" d="M1023107 174605l-161960 161963 26583 26584 161186 -161184c-8325,-9382 -16920,-18519 -25809,-27363z"/>
    <path class="fil1" d="M350793 849207c-46216,-46218 -46216,-121149 0,-167365l176615 -176615c46216,-46216 121147,-46216 167363,0 46216,46218 46216,121149 0,167365l-176613 176615c-46219,46214 -121149,46214 -167365,0z"/>
    <path class="fil2" d="M668190 646009l-176615 176615c-41692,41692 -106744,45757 -153011,12229 3640,5023 7704,9828 12229,14354 46218,46216 121149,46216 167362,0l176616 -176615c46216,-46216 46216,-121147 0,-167365 -4525,-4524 -9335,-8589 -14355,-12229 33531,46267 29463,111319 -12229,153011l3 0z"/>
   </g>
  </g>
 </g>
</svg>
