<?xml version="1.0" encoding="UTF-8"?>
<!DOCTYPE svg PUBLIC "-//W3C//DTD SVG 1.1//EN" "http://www.w3.org/Graphics/SVG/1.1/DTD/svg11.dtd">
<!-- Creator: CorelDRAW X8 -->
<svg xmlns="http://www.w3.org/2000/svg" xml:space="preserve" width="120px" height="120px" version="1.1" style="shape-rendering:geometricPrecision; text-rendering:geometricPrecision; image-rendering:optimizeQuality; fill-rule:evenodd; clip-rule:evenodd"
viewBox="0 0 1200000 1200000"
 xmlns:xlink="http://www.w3.org/1999/xlink">
 <defs>
  <style type="text/css">
   <![CDATA[
    .fil6 {fill:#B3B3B3}
    .fil7 {fill:#BDBDBD}
    .fil5 {fill:#CCCCCC}
    .fil2 {fill:#D9D9D9}
    .fil4 {fill:#E06E8E}
    .fil1 {fill:#E6E6E6}
    .fil3 {fill:#F07A9C}
    .fil0 {fill:#FEF5F7}
   ]]>
  </style>
 </defs>
 <g id="Слой_x0020_1">
  <metadata id="CorelCorpID_0Corel-Layer"/>
  <path class="fil0" d="M600000 0c331370,0 600000,268630 600000,600000 0,331370 -268630,600000 -600000,600000 -331370,0 -600000,-268630 -600000,-600000 0,-331370 268630,-600000 600000,-600000z"/>
  <g id="_2429839004064">
   <path class="fil1" d="M723100 310886l166014 166014c13750,13751 13750,36054 0,49805l-58105 58104c-13751,13751 -36054,13751 -49805,0l-166016 -166013c-13748,-13751 -13748,-36054 3,-49805l58104 -58105c13751,-13750 36054,-13750 49805,0z"/>
   <path class="fil2" d="M889116 476897l-104 -102c-1313,1440 -2657,2863 -4048,4252 -34,34 -66,68 -97,99 -14930,14930 -33483,25773 -53824,31439 -35124,14131 -73627,17986 -110885,11157l61049 61064c13757,13734 36046,13734 49805,0l58104 -58104c13731,-13762 13731,-36043 0,-49802l0 -3z"/>
   <path class="fil3" d="M274861 925136c-50349,-50439 -50349,-132173 3,-182619l85218 -85215c37451,-37604 56389,-89889 51701,-142761 -5687,-67087 14694,-122842 62302,-170452l83010 -83007c32088,-32043 84104,-32043 116203,0 4584,4581 4584,12016 0,16599l-80932 80932c-19457,19488 -19457,51066 0,70557l178464 178464c19488,19454 51069,19454 70557,0l80932 -80932c4583,-4584 12018,-4584 16602,0 32040,32099 32040,84112 -3,116212l-83007 83006c-47607,47608 -103365,67989 -170449,62306 -52875,-4697 -105157,14238 -142770,51695l-85218 85218c-50437,50349 -132173,50349 -182616,-6l3 3z"/>
   <path class="fil4" d="M951104 542264c-16798,42216 -42012,80671 -74162,112822 -85,87 -202,204 -287,289 -130654,130654 -342487,130654 -473141,0 -7764,-7779 -15063,-15829 -21900,-24157 -6322,9337 -13556,18108 -21541,26093l-85218 85218c-50411,50411 -50411,132187 6,182607 50420,50420 132196,50420 182616,0l85218 -85218c37607,-37451 89889,-56389 142758,-51701 67088,5684 122842,-14694 170453,-62305l83007 -83007c26705,-26762 31733,-68284 12197,-100641l-6 0z"/>
   <path class="fil5" d="M482379 717618c-32040,-32097 -32040,-84110 3,-116209l99610 -99609c4580,-4584 12016,-4584 16599,0l99607 99609c4583,4583 4583,12019 0,16602l-99610 99607c-32096,32043 -84109,32043 -116209,0l0 0z"/>
   <path class="fil6" d="M598588 501802l99607 99610c4586,4583 4586,12016 3,16599l-33205 33205c-4584,4584 -12016,4584 -16600,0l-99609 -99609c-4584,-4584 -4584,-12019 0,-16602l33202 -33203c4583,-4583 12019,-4583 16602,0z"/>
   <path class="fil5" d="M274861 925136c-79,-79 -179,-178 -258,-255 -19672,-19675 -32394,-45241 -36264,-72785 -524,-3662 706,-7353 3320,-9967l58104 -58104c32086,-32085 84127,-32085 116212,0 32085,32085 32085,84124 0,116209l-58107 58107c0,0 -3,0 -3,3 -2608,2608 -6299,3841 -9952,3322 -27550,-3869 -53113,-16591 -72788,-36263 -77,-80 -187,-190 -264,-267l0 0z"/>
   <path class="fil7" d="M665004 468603c-3,0 -6,-3 -6,-3 -3038,-3039 -4175,-7497 -2959,-11619l15094 -51310c559,-1859 1571,-3557 2946,-4932 4583,-4584 12016,-4584 16599,0 3025,3024 4164,7452 2979,11560l-15097 51309c-555,1883 -1573,3603 -2962,4989 -4581,4584 -12010,4587 -16594,9l0 -3z"/>
   <path class="fil7" d="M691412 378802c-3,-3 -6,-3 -9,-6 -3036,-3039 -4173,-7498 -2957,-11616l15098 -51310c541,-1933 1576,-3699 2996,-5120 4584,-4583 12019,-4583 16602,0 3070,3073 4196,7594 2920,11744l-15094 51310c-556,1885 -1574,3603 -2963,4992 -4580,4581 -12010,4586 -16593,6l0 0z"/>
   <path class="fil7" d="M706506 510108c0,0 -6,-6 -6,-6 -3038,-3039 -4175,-7495 -2959,-11616l26407 -89804c556,-1866 1571,-3566 2948,-4944 4584,-4584 12017,-4584 16600,0 3028,3025 4167,7461 2977,11568l-26408 89804c-556,1883 -1576,3600 -2965,4992 -4581,4581 -12010,4584 -16594,6l0 0z"/>
   <path class="fil7" d="M763108 500303c-3,-3 -6,-6 -8,-6 -3036,-3039 -4173,-7495 -2963,-11616l11311 -38495c555,-1882 1573,-3600 2962,-4989 4583,-4583 12019,-4583 16602,0 3036,3036 4173,7492 2962,11611l-11310 38495c-552,1885 -1570,3602 -2962,4994 -4581,4581 -12010,4584 -16594,6l0 0z"/>
   <path class="fil7" d="M789513 593115c0,0 -3,-3 -6,-6 -3036,-3036 -4172,-7495 -2959,-11616l15097 -51310c556,-1863 1570,-3558 2942,-4932 4584,-4584 12019,-4584 16603,0 3024,3021 4164,7452 2979,11559l-15097 51307c-556,1885 -1576,3603 -2962,4992 -4584,4581 -12011,4586 -16597,6l0 0z"/>
   <path class="fil7" d="M815920 503313c-3,-3 -5,-5 -5,-5 -3039,-3039 -4173,-7498 -2960,-11620l15098 -51309c544,-1931 1576,-3697 2999,-5117 4583,-4584 12016,-4584 16599,0 3073,3073 4196,7591 2923,11744l-15098 51310c-552,1882 -1573,3603 -2959,4992 -4584,4580 -12010,4583 -16597,5l0 0z"/>
   <path class="fil6" d="M437612 861873c-50905,47403 -130221,45989 -179413,-3203 -5542,-5542 -10585,-11611 -15035,-18049l-1511 1511c6,-3 3,0 3,0 -2611,2611 -3841,6302 -3322,9953 3951,27643 16772,53302 36524,73057 19752,19752 45414,32570 73060,36519 3648,524 7339,-709 9947,-3317 0,-3 3,-3 3,-6l58107 -58104c17,-17 45,-45 65,-65 10548,-10548 18023,-23817 21575,-38299l-3 3z"/>
  </g>
 </g>
</svg>
