<?xml version="1.0" encoding="UTF-8"?>
<!DOCTYPE svg PUBLIC "-//W3C//DTD SVG 1.1//EN" "http://www.w3.org/Graphics/SVG/1.1/DTD/svg11.dtd">
<!-- Creator: CorelDRAW X8 -->
<svg xmlns="http://www.w3.org/2000/svg" xml:space="preserve" width="120px" height="120px" version="1.1" style="shape-rendering:geometricPrecision; text-rendering:geometricPrecision; image-rendering:optimizeQuality; fill-rule:evenodd; clip-rule:evenodd"
viewBox="0 0 1200000 1200000"
 xmlns:xlink="http://www.w3.org/1999/xlink">
 <defs>
  <style type="text/css">
   <![CDATA[
    .fil2 {fill:#3B4254}
    .fil1 {fill:#606572}
    .fil9 {fill:#9347D1}
    .fil8 {fill:#A655E8}
    .fil7 {fill:#DDA84A}
    .fil11 {fill:#E66761}
    .fil4 {fill:#F7B081}
    .fil0 {fill:#F8F1FE}
    .fil6 {fill:#FDCA67}
    .fil5 {fill:#FEE9A1}
    .fil10 {fill:#FF7870}
    .fil12 {fill:#FF9794}
    .fil3 {fill:#FFC89F}
   ]]>
  </style>
 </defs>
 <g id="Слой_x0020_1">
  <metadata id="CorelCorpID_0Corel-Layer"/>
  <path class="fil0" d="M600000 0c331370,0 600000,268630 600000,600000 0,331370 -268630,600000 -600000,600000 -331370,0 -600000,-268630 -600000,-600000 0,-331370 268630,-600000 600000,-600000z"/>
  <g id="_2429985873040">
   <path class="fil1" d="M647577 907703l-94456 0c-107615,0 -194848,-87236 -194848,-194847l-3 -224442c0,-133693 108383,-242075 242079,-242075l0 0c133693,0 242072,108382 242072,242075l0 224442c3,107611 -87233,194847 -194844,194847z"/>
   <path class="fil2" d="M600349 246339l0 0c-6367,0 -12671,249 -18910,731 124857,9646 223168,114015 223168,241344l0 224442c0,107611 -87236,194847 -194847,194847l37817 0c107611,0 194844,-87236 194844,-194847l0 -224439c3,-133699 -108379,-242078 -242072,-242078z"/>
   <path class="fil3" d="M807686 940367l-415372 0 3504 -55571c2602,-41241 31649,-76028 71773,-85937l60361 -14916c2985,-734 5071,-3402 5071,-6475l0 -135101 134637 -3 0 135272c0,3070 2103,5737 5071,6471l59678 14752c40124,9909 69171,44693 71773,85935l3504 55573z"/>
   <path class="fil4" d="M804182 884794c-2602,-41242 -31649,-76028 -71773,-85938l-59678 -14749c-2970,-731 -5071,-3401 -5071,-6471l0 -135269 -34240 0 0 135269c0,3070 2101,5740 5072,6474l59677 14749c40122,9909 69168,44693 71773,85935l3504 55573 34240 0 -3504 -55573z"/>
   <path class="fil4" d="M533023 755301c22643,12223 46040,18613 67326,18613 21279,0 44674,-6390 67311,-18610l0 -112940 -134637 0 0 112937z"/>
   <path class="fil3" d="M773959 570421c-20891,107106 -107455,168749 -173610,168749 -62314,0 -142753,-54684 -169322,-150565 118420,-16864 218248,-126658 243229,-190375 0,3 0,140309 99703,172191z"/>
   <path class="fil4" d="M728713 543608c-5616,117158 -79577,188118 -139252,195003 3676,354 7313,559 10885,559 66158,0 152722,-61643 173613,-168752 -18210,-5823 -33080,-15271 -45246,-26810z"/>
   <path class="fil5" d="M856252 774398l-79016 -73026c-15140,-13991 -10103,-39047 9272,-46096l97398 -35453c19372,-7053 39339,8903 36734,29355l-13589 106733 -50799 18487z"/>
   <path class="fil6" d="M883906 619823l-24687 8985c15495,-5638 32956,11226 32128,31028l-4320 103360 20024 -7288 13589 -106733c2605,-20449 -17362,-36405 -36734,-29352z"/>
   <path class="fil7" d="M888172 657608c-1967,-11270 -6780,-24389 -13098,-34571l-21260 7739c4396,5706 10406,17521 12688,30614l4983 28533c1043,5981 6738,9987 12725,8944 5984,-1046 9989,-6744 8943,-12728l-4981 -28531z"/>
   <path class="fil7" d="M807521 686958l14528 25061c2041,3518 5729,5485 9524,5485 1871,0 3767,-479 5505,-1485 5255,-3044 7047,-9777 4000,-15029l-14525 -25064c-6664,-11497 -9658,-24409 -9958,-31606l-21249 7735c1704,11860 6441,25008 12175,34903z"/>
   <path class="fil8" d="M852241 781978l43854 120487c6307,17328 25467,26263 42795,19956l0 0c17328,-6307 26263,-25470 19956,-42795l-43855 -120489c-2109,-5794 -8518,-8785 -14312,-6676l-41766 15202c-5794,2112 -8781,8518 -6672,14315z"/>
   <path class="fil9" d="M958849 879626l-43855 -120489c-2109,-5797 -8518,-8782 -14312,-6673l-21784 7929c3381,-1234 7829,2468 9938,8265l43854 120487c5273,14488 3966,28737 -2508,35178 2908,-238 5834,-859 8708,-1902l0 0c17328,-6307 26266,-25467 19959,-42795z"/>
   <polygon class="fil1" points="932090,806115 924569,785445 924566,785445 861819,808287 861816,808287 869339,828957 869339,828957 "/>
   <polygon class="fil2" points="924566,785445 898411,794967 905934,815637 932090,806115 924569,785445 "/>
   <path class="fil10" d="M433743 725087l0 108303 -99780 0 0 -154241c0,-1868 420,-3586 1279,-5085 6202,-10724 32967,-6843 59805,8651 23071,13320 38696,30883 38696,42372z"/>
   <path class="fil11" d="M400302 685907l0 147483 33441 0 0 -108303c0,-10593 -13289,-26348 -33441,-39180z"/>
   <path class="fil8" d="M433842 833390l-99978 0c-8201,0 -14848,6650 -14848,14851l0 134019c0,8200 6647,14848 14848,14848l99978 0c8198,0 14848,-6648 14848,-14848l0 -134022c0,-8201 -6650,-14848 -14848,-14848z"/>
   <path class="fil9" d="M433842 833390l-33440 0c8200,0 14847,6650 14847,14851l0 134019c0,8198 -6647,14848 -14847,14848l33440 0c8198,0 14848,-6650 14848,-14851l0 -134019c0,-8201 -6650,-14848 -14848,-14848z"/>
   <path class="fil12" d="M433743 725087c0,1882 -420,3603 -1299,5102 -6185,10724 -32967,6843 -59805,-8651 -23071,-13320 -38676,-30900 -38676,-42389 0,-1868 423,-3586 1282,-5085 6202,-10724 32966,-6843 59805,8651 23068,13320 38693,30883 38693,42372z"/>
   <polygon class="fil1" points="319016,889179 448690,889179 448690,867185 319016,867185 "/>
   <polygon class="fil2" points="415249,889179 448690,889179 448690,867185 415249,867185 "/>
  </g>
 </g>
</svg>
