<?xml version="1.0" encoding="UTF-8"?>
<!DOCTYPE svg PUBLIC "-//W3C//DTD SVG 1.1//EN" "http://www.w3.org/Graphics/SVG/1.1/DTD/svg11.dtd">
<!-- Creator: CorelDRAW X8 -->
<svg xmlns="http://www.w3.org/2000/svg" xml:space="preserve" width="120px" height="120px" version="1.1" style="shape-rendering:geometricPrecision; text-rendering:geometricPrecision; image-rendering:optimizeQuality; fill-rule:evenodd; clip-rule:evenodd"
viewBox="0 0 1200000 1200000"
 xmlns:xlink="http://www.w3.org/1999/xlink">
 <defs>
  <style type="text/css">
   <![CDATA[
    .fil1 {fill:#3B4254}
    .fil2 {fill:#606572}
    .fil3 {fill:#6C7282}
    .fil4 {fill:#788094}
    .fil6 {fill:#BCDDFE}
    .fil10 {fill:#E0698B}
    .fil9 {fill:#E1F4FE}
    .fil5 {fill:#EB8723}
    .fil7 {fill:#F07A9C}
    .fil8 {fill:#FF8E42}
    .fil0 {fill:#FFF6F0}
   ]]>
  </style>
 </defs>
 <g id="Слой_x0020_1">
  <metadata id="CorelCorpID_0Corel-Layer"/>
  <path class="fil0" d="M600000 0c331370,0 600000,268630 600000,600000 0,331370 -268630,600000 -600000,600000 -331370,0 -600000,-268630 -600000,-600000 0,-331370 268630,-600000 600000,-600000z"/>
  <g id="_2429985918480">
   <path class="fil1" d="M785105 469757c-5650,0 -10230,4581 -10230,10230l0 250911c0,5647 4580,10227 10230,10227 5647,0 10227,-4580 10227,-10227l0 -250914c0,-5646 -4580,-10227 -10227,-10227z"/>
   <path class="fil1" d="M759508 297875l-36530 0c-5649,-2 -10230,4578 -10230,10228 0,5646 4581,10227 10230,10227l36530 0c5650,0 10230,-4581 10230,-10227 0,-5650 -4580,-10230 -10230,-10230l0 2z"/>
   <path class="fil1" d="M759508 335106l-36530 0c-5649,0 -10230,4580 -10230,10230 0,5646 4581,10227 10230,10227l36530 0c5650,0 10230,-4581 10230,-10227 0,-5650 -4580,-10230 -10230,-10230z"/>
   <path class="fil1" d="M759508 372344l-36530 0c-5649,0 -10230,4581 -10230,10231 0,5646 4581,10227 10230,10227l36530 0c5650,0 10230,-4581 10230,-10227 0,-5650 -4580,-10231 -10230,-10231z"/>
   <path class="fil1" d="M759508 409577l-36530 0c-5649,0 -10230,4581 -10230,10228 0,5649 4581,10230 10230,10230l36530 0c5650,0 10230,-4581 10230,-10230 0,-5647 -4580,-10228 -10230,-10228z"/>
   <path class="fil1" d="M759508 446810l-36530 0c-5649,0 -10230,4581 -10230,10228 0,5649 4581,10230 10230,10230l36530 0c5650,0 10230,-4581 10230,-10230 0,-5647 -4580,-10228 -10230,-10228l0 0z"/>
   <path class="fil1" d="M810705 318330l36530 0c5649,0 10230,-4581 10230,-10227 0,-5650 -4581,-10230 -10230,-10230l-36530 2c-5650,-2 -10228,4578 -10228,10228 0,5646 4578,10227 10228,10227z"/>
   <path class="fil1" d="M847240 335106l-36530 0c-5649,0 -10227,4580 -10227,10230 0,5646 4578,10227 10227,10227l36530 0c5650,0 10230,-4581 10230,-10227 0,-5650 -4580,-10230 -10230,-10230z"/>
   <path class="fil1" d="M847240 372344l-36530 0c-5649,0 -10227,4581 -10227,10231 0,5646 4578,10227 10227,10227l36530 0c5650,0 10230,-4581 10230,-10227 0,-5650 -4580,-10231 -10230,-10231z"/>
   <path class="fil1" d="M847240 409577l-36530 0c-5649,0 -10227,4581 -10227,10228 0,5649 4578,10230 10227,10230l36530 0c5650,0 10230,-4581 10230,-10230 0,-5647 -4580,-10228 -10230,-10228z"/>
   <path class="fil1" d="M847240 446810l-36530 0c-5649,0 -10227,4581 -10227,10228 0,5649 4578,10230 10227,10230l36530 0c5650,0 10230,-4581 10230,-10230 0,-5647 -4580,-10228 -10230,-10228l0 0z"/>
   <path class="fil2" d="M408180 285156c-53399,0 -89269,11690 -108266,20152 -5891,2667 -9681,8541 -9681,15012 0,2968 802,5882 2322,8433l72476 122944 86267 -3 72530 -122941c1510,-2545 2313,-5454 2313,-8416 0,-6486 -3810,-12370 -9723,-15029 -18967,-8462 -54842,-20152 -108238,-20152l0 0z"/>
   <path class="fil1" d="M516418 305308c-18967,-8462 -54845,-20152 -108238,-20152 -53393,0 -89269,11690 -108266,20152 128514,-48027 116792,146296 116790,146389l34594 -3 72530 -122941c1510,-2545 2313,-5454 2313,-8416 0,-6486 -3810,-12370 -9723,-15029l0 0z"/>
   <path class="fil3" d="M389423 461925c-5647,0 -10227,-4581 -10227,-10231l0 -90357c0,-5646 4580,-10227 10227,-10227 5649,0 10230,4581 10230,10227l0 90357c0,5650 -4581,10231 -10230,10231l0 0z"/>
   <path class="fil4" d="M426931 461925c-5649,0 -10227,-4581 -10227,-10231l0 -57478c0,-5646 4578,-10227 10227,-10227 5649,0 10227,4581 10227,10227l0 57481c0,5647 -4578,10228 -10227,10228l0 0z"/>
   <path class="fil5" d="M408180 904721c-9,0 -14,0 -20,0 -14119,0 -25724,-11149 -26283,-25257l-16846 -427770 86267 0 -16852 427770c-556,14100 -12155,25249 -26266,25257l0 0z"/>
   <polygon class="fil6" points="446691,568672 448826,514499 367528,514499 369663,568672 "/>
   <polygon class="fil7" points="524278,599306 664638,599306 664638,680405 524278,680405 "/>
   <polygon class="fil8" points="504960,680396 683962,680396 683962,904616 504960,904616 "/>
   <polygon class="fil2" points="524278,554858 664638,554858 664638,599306 524278,599306 "/>
   <polygon class="fil7" points="643515,554858 545408,554858 545408,374893 643515,465023 "/>
   <path class="fil2" d="M785108 285156l0 0c14133,0 25597,11464 25597,25600l0 143628c0,14137 -11464,25603 -25597,25603l0 0c-14137,0 -25600,-11466 -25600,-25603l0 -143628c0,-14136 11463,-25600 25600,-25600z"/>
   <polygon class="fil8" points="724982,730892 845236,730892 845236,904721 724982,904721 "/>
   <path class="fil8" d="M390880 898116c5428,-4716 8677,-11471 8972,-18660l16852 -427762 -51670 0 16849 427770c300,7189 3557,13941 8997,18652l0 0z"/>
   <polygon class="fil9" points="414223,514499 367528,514499 369019,552310 369663,568672 412089,568672 "/>
   <polygon class="fil5" points="615588,680396 683962,680396 683962,904616 615588,904616 "/>
   <polygon class="fil10" points="600000,599306 664638,599306 664638,680405 600000,680405 "/>
   <polygon class="fil1" points="600000,554858 664638,554858 664638,599306 600000,599306 "/>
   <path class="fil10" d="M616991 440631c-5417,-13507 -10777,-24718 -10777,-24718l-60789 -33364c8844,31544 25784,60333 49042,83384l0 88900 49067 3 0 -89813 -26543 -24392z"/>
   <path class="fil7" d="M608206 406558c-26220,-26223 -53659,-41297 -61282,-33672 -7625,7625 7450,35064 33670,61285 26220,26220 53657,41295 61282,33670 7625,-7626 -7449,-35062 -33670,-61283z"/>
   <polygon class="fil5" points="795332,730892 845230,730892 845230,904721 795332,904721 "/>
   <path class="fil1" d="M909784 914844l-619568 0c-5646,0 -10227,-4581 -10227,-10231 0,-5646 4581,-10227 10227,-10227l619568 0c5646,0 10227,4581 10227,10227 0,5650 -4581,10231 -10227,10231l0 0z"/>
  </g>
 </g>
</svg>
