<?xml version="1.0" encoding="UTF-8"?>
<!DOCTYPE svg PUBLIC "-//W3C//DTD SVG 1.1//EN" "http://www.w3.org/Graphics/SVG/1.1/DTD/svg11.dtd">
<!-- Creator: CorelDRAW X8 -->
<svg xmlns="http://www.w3.org/2000/svg" xml:space="preserve" width="120px" height="120px" version="1.1" style="shape-rendering:geometricPrecision; text-rendering:geometricPrecision; image-rendering:optimizeQuality; fill-rule:evenodd; clip-rule:evenodd"
viewBox="0 0 1200000 1200000"
 xmlns:xlink="http://www.w3.org/1999/xlink">
 <defs>
  <style type="text/css">
   <![CDATA[
    .fil9 {fill:#2F3A48}
    .fil11 {fill:#3B4254}
    .fil8 {fill:#495766}
    .fil7 {fill:#55A9E6}
    .fil10 {fill:#606572}
    .fil6 {fill:#60B4F0}
    .fil5 {fill:#E34F77}
    .fil4 {fill:#E6E6E6}
    .fil0 {fill:#F2F6FE}
    .fil2 {fill:#F7B081}
    .fil1 {fill:#FFC89F}
    .fil3 {fill:white}
   ]]>
  </style>
 </defs>
 <g id="Слой_x0020_1">
  <metadata id="CorelCorpID_0Corel-Layer"/>
  <g id="_2429895316976">
   <path class="fil0" d="M600000 0c331370,0 600000,268630 600000,600000 0,331370 -268630,600000 -600000,600000 -331370,0 -600000,-268630 -600000,-600000 0,-331370 268630,-600000 600000,-600000z"/>
   <g>
    <path class="fil1" d="M257037 717400c-9136,11233 -10293,22005 -10789,23507 -2605,-17750 984,-36587 10789,-51330 172913,-259919 493984,-259848 666846,0 8226,12365 12062,27607 11551,42676 -168304,-226000 -500728,-233172 -678394,-14853l-3 0zm0 0z"/>
    <path class="fil2" d="M563206 495728c132372,-10265 267877,54354 360677,193849 8226,12360 12062,27607 11546,42673 -33988,-45643 -74685,-82352 -119438,-110089 -72969,-77255 -162138,-119401 -252785,-126433zm0 0z"/>
    <path class="fil3" d="M257037 714800c178316,-216558 511562,-207929 678633,14942 7752,10346 7752,24485 0,34826 -167108,222936 -500357,231448 -678633,14941 -15480,-18802 -15475,-45910 0,-64709l0 0zm0 0z"/>
    <path class="fil4" d="M881185 764568c7753,-10347 7753,-24480 0,-34826 -79804,-106461 -197523,-163993 -318163,-171493 138872,-8723 280845,49030 372648,171493 7750,10346 7750,24485 0,34826 -91814,122485 -233776,180221 -372637,171499 120629,-7504 238340,-65021 318152,-171499l0 0zm0 0z"/>
    <path class="fil5" d="M1018997 445492c3331,0 6644,-1420 8952,-4175 4144,-4938 3498,-12300 -1440,-16447l-1265 -1054c-4946,-4128 -12310,-3461 -16438,1494 -4133,4952 -3461,12316 1491,16443l1205 1007c2188,1834 4847,2732 7495,2732zm-747095 -21220c2463,0 4935,-774 7044,-2378 2038,-1539 4076,-3073 6125,-4589 5182,-3836 6271,-11149 2432,-16325 -3840,-5182 -11151,-6273 -16333,-2432 -2114,1562 -4223,3149 -6332,4742 -5140,3901 -6140,11222 -2245,16362 2293,3027 5779,4620 9309,4620l0 0zm702707 -13042c3663,0 7263,-1715 9539,-4924 3724,-5261 2486,-12546 -2775,-16274 -2155,-1525 -4318,-3041 -6486,-4541 -5304,-3670 -12577,-2341 -16243,2960 -3668,5303 -2344,12577 2960,16242 2097,1452 4187,2911 6267,4385 2047,1457 4402,2152 6738,2152l0 0zm-651437 -22244c2103,0 4229,-569 6148,-1763 2169,-1340 4343,-2678 6517,-3988 5519,-3339 7285,-10517 3954,-16033 -3336,-5519 -10513,-7290 -16032,-3954 -2257,1366 -4510,2750 -6758,4147 -5474,3402 -7158,10596 -3756,16072 2211,3561 6026,5519 9927,5519l0 0zm599027 -11313c4040,0 7969,-2103 10132,-5859 3211,-5590 1289,-12724 -4301,-15936 -2296,-1324 -4595,-2625 -6896,-3912 -5630,-3146 -12742,-1131 -15888,4499 -3144,5632 -1126,12744 4501,15882 2217,1247 4430,2497 6647,3770 1828,1055 3830,1556 5805,1556zm-544611 -18918c1732,0 3487,-391 5145,-1205 2296,-1131 4590,-2248 6891,-3342 5823,-2775 8292,-9742 5511,-15559 -2772,-5825 -9740,-8291 -15557,-5519 -2392,1145 -4776,2302 -7160,3469 -5783,2852 -8167,9851 -5315,15636 2032,4122 6177,6520 10485,6520l0 0zm489189 -9383c4458,0 8719,-2571 10658,-6902 2636,-5882 6,-12790 -5876,-15432 -2404,-1077 -4816,-2140 -7232,-3186 -5913,-2565 -12784,156 -15349,6069 -2563,5919 150,12790 6069,15355 2319,1007 4643,2030 6962,3073 1545,695 3169,1023 4768,1023zm-432005 -15242c1349,0 2721,-232 4056,-728 2390,-887 4788,-1757 7183,-2608 6083,-2157 9258,-8835 7095,-14910 -2157,-6075 -8833,-9250 -14907,-7095 -2498,887 -4989,1791 -7475,2715 -6052,2240 -9136,8958 -6897,15001 1743,4709 6202,7628 10945,7628l0 -3zm374025 -7248c4907,0 9479,-3115 11089,-8033 2013,-6123 -1318,-12719 -7447,-14732 -2511,-827 -5025,-1635 -7543,-2420 -6151,-1931 -12699,1491 -14629,7639 -1928,6151 1491,12705 7645,14635 2415,760 4827,1534 7237,2325 1216,399 2443,586 3648,586zm-314583 -11239c947,0 1913,-119 2872,-360 2474,-624 4940,-1233 7415,-1820 6273,-1499 10142,-7795 8651,-14068 -1496,-6265 -7786,-10148 -14060,-8652 -2582,618 -5159,1253 -7730,1900 -6253,1581 -10034,7931 -8458,14181 1341,5290 6094,8819 11310,8819l0 0zm254542 -4972c5397,0 10245,-3762 11413,-9249 1335,-6305 -2685,-12504 -8992,-13848 -2588,-550 -5176,-1082 -7773,-1593 -6324,-1258 -12466,2858 -13716,9179 -1259,6327 2857,12467 9175,13725 2489,491 4975,1001 7456,1528 819,173 1635,258 2437,258l0 0zm-193455 -6973c538,0 1077,-43 1621,-114 2517,-348 5040,-683 7563,-995 6398,-805 10939,-6638 10136,-13036 -799,-6395 -6627,-10933 -13030,-10137 -2631,329 -5256,675 -7886,1041 -6387,887 -10843,6783 -9956,13169 814,5843 5817,10072 11552,10072zm131992 -2594c5933,0 11007,-4501 11605,-10528 635,-6415 -4051,-12132 -10466,-12767 -2636,-264 -5266,-502 -7903,-728 -6420,-559 -12078,4215 -12622,10638 -550,6429 4212,12078 10641,12628 2528,216 5057,451 7583,698 391,39 779,59 1162,59l0 0zm-69962 -2534c108,0 215,0 317,-9 2540,-65 5080,-113 7620,-150 6446,-76 11605,-5371 11528,-11820 -85,-6446 -5340,-11574 -11826,-11526 -2650,37 -5298,85 -7945,156 -6446,173 -11526,5536 -11359,11982 173,6338 5361,11364 11665,11364l0 3zm0 0z"/>
    <path class="fil6" d="M446102 703807c0,-59000 30291,-110913 76158,-141077 69296,-10964 140703,-5068 207436,17487 33137,30807 53873,74775 53873,123590 0,93189 -75541,168735 -168730,168735 -93191,0 -168737,-75546 -168737,-168735zm0 0z"/>
    <path class="fil7" d="M729092 703807c0,-1355 -17,-2710 -48,-4056 -1604,-67850 -52126,-124529 -119009,-136037 -15517,-2673 -31167,-4493 -46863,-5477 56177,-3512 112859,3841 166527,21974 33134,30813 53875,74781 53875,123596 0,93189 -75546,168735 -168735,168735 -9275,0 -18368,-759 -27241,-2197 80232,-13030 141494,-82624 141494,-166538l0 0zm0 0z"/>
    <path class="fil8" d="M583074 622212c9865,-3775 20569,-5865 31765,-5865 49167,0 89025,39861 89025,89034 0,49169 -39858,89024 -89025,89024 -49167,0 -89027,-39855 -89027,-89024 0,-12768 2707,-24894 7546,-35873 6236,9559 17022,15888 29256,15888 19256,0 34917,-15661 34917,-34911 0,-11614 -5703,-21923 -14457,-28273z"/>
    <path class="fil9" d="M649382 705381c0,-39649 -25923,-73228 -61738,-84753 8580,-2756 17705,-4278 27195,-4278 49167,0 89025,39858 89025,89025 0,49170 -39858,89033 -89025,89033 -9501,0 -18652,-1511 -27241,-4266 35836,-11509 61784,-45099 61784,-84761l0 0zm0 0z"/>
    <path class="fil10" d="M274663 476237c99529,-79577 343530,-214855 692638,-11441 16390,9544 20716,31278 9125,46293l-19701 25514c-10493,13601 -29970,16206 -43690,5854 -76918,-58065 -329416,-215742 -630549,-54391 -7668,4116 -14624,-6395 -7823,-11826l0 -3zm0 0z"/>
    <path class="fil11" d="M921950 511089c11585,-15015 7260,-36751 -9125,-46293 -123462,-71940 -233775,-101506 -329206,-106174 107095,-5321 235981,20112 383682,106174 16390,9542 20716,31278 9125,46293l-19701 25514c-10493,13601 -29970,16206 -43690,5854 -2990,-2254 -6242,-4660 -9754,-7195l18669 -24173zm0 0z"/>
   </g>
  </g>
 </g>
</svg>
