<?xml version="1.0" encoding="UTF-8"?>
<!DOCTYPE svg PUBLIC "-//W3C//DTD SVG 1.1//EN" "http://www.w3.org/Graphics/SVG/1.1/DTD/svg11.dtd">
<!-- Creator: CorelDRAW X8 -->
<svg xmlns="http://www.w3.org/2000/svg" xml:space="preserve" width="120px" height="120px" version="1.1" style="shape-rendering:geometricPrecision; text-rendering:geometricPrecision; image-rendering:optimizeQuality; fill-rule:evenodd; clip-rule:evenodd"
viewBox="0 0 1200000 1200000"
 xmlns:xlink="http://www.w3.org/1999/xlink">
 <defs>
  <style type="text/css">
   <![CDATA[
    .fil9 {fill:#2F3A48}
    .fil8 {fill:#495766}
    .fil1 {fill:#606572}
    .fil7 {fill:#A5D14D}
    .fil6 {fill:#B0DB5A}
    .fil5 {fill:#E6E6E6}
    .fil0 {fill:#F6FDF3}
    .fil3 {fill:#F7B081}
    .fil2 {fill:#FFC89F}
    .fil4 {fill:white}
   ]]>
  </style>
 </defs>
 <g id="Слой_x0020_1">
  <metadata id="CorelCorpID_0Corel-Layer"/>
  <g id="_2430015152576">
   <path class="fil0" d="M600000 0c331370,0 600000,268630 600000,600000 0,331370 -268630,600000 -600000,600000 -331370,0 -600000,-268630 -600000,-600000 0,-331370 268630,-600000 600000,-600000z"/>
   <g>
    <path class="fil1" d="M344610 545073c19667,-67461 -42565,-121147 -42565,-121147 52971,27751 59618,78109 57816,109877 9640,-6670 19777,-12824 30191,-18655 16648,-63799 -39724,-116580 -39724,-116580 50130,28972 56199,77221 53818,109009 10097,-5117 20520,-9800 31210,-14097 17002,-62232 -36284,-115883 -36284,-115883 48903,30719 53478,78902 50085,110585 12348,-4448 25010,-8376 38004,-11684 26130,-66359 -32947,-125853 -32947,-125853 55449,34829 53907,92095 48379,122318 14188,-3053 28658,-5477 43447,-7098 27652,-65642 -29985,-126632 -29985,-126632 55675,36966 51588,95709 45116,125268 10843,-805 21770,-1357 32862,-1357 995,0 1967,82 2959,85 28140,-63261 -25131,-125516 -25131,-125516 52928,39150 47191,96288 39506,125946 10545,414 20990,1117 31289,2260 38083,-58794 -7073,-129492 -7073,-129492 47679,47077 33503,103555 21838,131476 13700,1998 27204,4473 40343,7707 40532,-52730 6437,-125580 6437,-125580 39260,50723 21969,102050 7183,129348 11075,3129 21992,6548 32570,10513 43937,-48036 17788,-122904 17788,-122904 33403,53881 12322,102279 -4975,128131 11149,4626 22076,9562 32559,15072 50451,-47653 22498,-127686 22498,-127686 36584,59008 7827,111446 -9754,134886 10868,6256 21348,12946 31351,20123 49556,-47724 21819,-127077 21819,-127077 36977,59641 7191,112595 -10324,135652 7951,6196 15590,12665 22878,19426 55168,-47186 25954,-130805 25954,-130805 40564,65432 791,122800 -14992,141489 78440,70015 70492,152129 67940,167286 -79171,-74254 -233940,-229294 -352660,-229294 -144796,0 -255294,144564 -341628,200052 1967,-73953 60094,-144386 92202,-169172l0 3z"/>
    <path class="fil2" d="M262485 717400c-9136,11233 -10293,22005 -10792,23507 -2605,-17750 984,-36587 10792,-51330 172910,-259919 493982,-259848 666846,0 8224,12365 12059,27607 11552,42676 -168307,-226000 -500728,-233172 -678398,-14853l0 0zm0 0z"/>
    <path class="fil3" d="M568655 495728c132369,-10265 267873,54354 360676,193849 8224,12360 12059,27607 11543,42673 -33987,-45643 -74684,-82352 -119435,-110089 -72972,-77255 -162141,-119401 -252784,-126433zm0 0z"/>
    <path class="fil4" d="M262485 714800c178316,-216558 511559,-207929 678630,14942 7753,10346 7753,24485 0,34826 -167108,222936 -500357,231448 -678630,14941 -15483,-18802 -15477,-45910 0,-64709l0 0zm0 0z"/>
    <path class="fil5" d="M886633 764568c7753,-10347 7753,-24480 0,-34826 -79806,-106461 -197523,-163993 -318166,-171493 138872,-8723 280848,49030 372648,171493 7753,10346 7753,24485 0,34826 -91814,122485 -233776,180221 -372636,171499 120631,-7504 238342,-65021 318154,-171499l0 0zm0 0z"/>
    <path class="fil6" d="M451547 703807c0,-59000 30291,-110913 76158,-141077 69299,-10964 140706,-5068 207439,17487 33137,30807 53870,74775 53870,123590 0,93189 -75540,168735 -168729,168735 -93189,0 -168738,-75546 -168738,-168735zm0 0z"/>
    <path class="fil7" d="M734538 703807c0,-1355 -17,-2710 -46,-4056 -1607,-67850 -52129,-124529 -119012,-136037 -15517,-2673 -31164,-4493 -46862,-5477 56177,-3512 112858,3841 166526,21974 33137,30813 53878,74781 53878,123596 0,93189 -75546,168735 -168737,168735 -9275,0 -18369,-759 -27241,-2197 80231,-13030 141497,-82624 141497,-166538l-3 0zm0 0z"/>
    <path class="fil8" d="M588520 622212c9864,-3775 20568,-5865 31765,-5865 49167,0 89027,39861 89027,89034 0,49169 -39860,89024 -89027,89024 -49167,0 -89028,-39855 -89028,-89024 0,-12768 2707,-24894 7546,-35873 3447,5284 8286,9578 13986,12365l119 57c448,218 902,425 1358,623l159 65 705 295 60 23c357,139 711,278 1071,405l139 48c360,131 723,253 1089,369l20 6 289 90 261 80 124 39 420 119 108 32 425 116 734 184 306 71 125 31 465 102 187 37 380 79 42 9 417 76 164 32c301,54 607,102 913,147l286 43 289 39 165 23 261 31 487 57 304 31 8 0 468 40 184 17 275 20 261 17 938 45 312 11 193 3 272 6 490 5 899 -11 895 -34 888 -57c884,-68 1760,-170 2627,-303 11549,-1766 21249,-9210 26158,-19383l358 -768c700,-1545 1289,-3153 1763,-4808l224 -831 207 -841 184 -848 164 -853 145 -862 122 -870 99 -876 79 -882 57 -890c17,-297 26,-595 34,-893l11 -901 -11 -780 -3 -184 -28 -768 -11 -198 -40 -618 -14 -199 -71 -791 -6 -45 -88 -774 -22 -190c-68,-516 -148,-1026 -239,-1533l-31 -187 -136 -698 -31 -150 -156 -723 -11 -48 -170 -697 -60 -227c-422,-1624 -961,-3200 -1604,-4725l-29 -71 -314 -712 -48 -108 -261 -558 -102 -215c-236,-482 -479,-958 -734,-1429l0 0c-261,-482 -536,-952 -817,-1417l-48 -83c-431,-703 -884,-1391 -1361,-2060l-11 -17c-482,-675 -984,-1333 -1511,-1970l-34 -40c-346,-420 -703,-831 -1068,-1233l-17 -20c-556,-609 -1132,-1199 -1730,-1769l-39 -40 -559 -518 -107 -99 -511 -454 -90 -79 -542 -457 -91 -76c-419,-343 -844,-678 -1278,-1004l-8 -5 -414 -304z"/>
    <path class="fil9" d="M654828 705381c0,-39649 -25923,-73228 -61736,-84753 8578,-2756 17702,-4278 27193,-4278 49167,0 89024,39858 89024,89025 0,49170 -39857,89033 -89024,89033 -9502,0 -18649,-1511 -27241,-4266 35838,-11509 61784,-45099 61784,-84761l0 0zm0 0z"/>
   </g>
  </g>
 </g>
</svg>
