<?xml version="1.0" encoding="UTF-8"?>
<!DOCTYPE svg PUBLIC "-//W3C//DTD SVG 1.1//EN" "http://www.w3.org/Graphics/SVG/1.1/DTD/svg11.dtd">
<!-- Creator: CorelDRAW X8 -->
<svg xmlns="http://www.w3.org/2000/svg" xml:space="preserve" width="120px" height="120px" version="1.1" style="shape-rendering:geometricPrecision; text-rendering:geometricPrecision; image-rendering:optimizeQuality; fill-rule:evenodd; clip-rule:evenodd"
viewBox="0 0 1200000 1200000"
 xmlns:xlink="http://www.w3.org/1999/xlink">
 <defs>
  <style type="text/css">
   <![CDATA[
    .fil2 {fill:#AFB1B2}
    .fil1 {fill:silver}
    .fil4 {fill:#D9DADB}
    .fil3 {fill:#E6E7E8}
    .fil6 {fill:#E86660}
    .fil5 {fill:#F7716B}
    .fil0 {fill:#FFF4F3}
   ]]>
  </style>
 </defs>
 <g id="Слой_x0020_1">
  <metadata id="CorelCorpID_0Corel-Layer"/>
  <g id="_2430010459424">
   <path class="fil0" d="M600000 0c331370,0 600000,268630 600000,600000 0,331370 -268630,600000 -600000,600000 -331370,0 -600000,-268630 -600000,-600000 0,-331370 268630,-600000 600000,-600000z"/>
   <g>
    <path class="fil1" d="M666090 720878l8555 -1922 -13788 -62796c-1403,-17187 3470,-60483 -18181,-117377l-143173 -282092c-2018,-5307 -8679,-7019 -13008,-3345l0 0c-11273,9564 -17365,23888 -16435,38642l52449 301804c871,13819 6772,26836 16592,36593l54875 54527 31306 139396c3869,17235 22380,28069 39614,24196l391 -402 -19712 -94017c-3503,-15607 4904,-29701 20515,-33207z"/>
    <path class="fil2" d="M645062 743251l-13124 -59779c-1573,-19262 3889,-67794 -20378,-131562l-139836 -275518c2492,-8870 7566,-16932 14771,-23046 4329,-3674 10990,-1959 13008,3348l143173 282089c21619,56809 16786,100270 18181,117377l13790 62796c-2656,1264 -26526,1601 -29585,24295z"/>
    <path class="fil3" d="M533868 720878l-8555 -1922 13788 -62796c1403,-17187 -3470,-60483 18181,-117377l143172 -282092c2018,-5307 8680,-7019 13008,-3345l0 0c11274,9564 17365,23888 16435,38642l-52449 301804c-870,13819 -6772,26836 -16591,36593l-42690 42417c-7959,7909 -13493,17926 -15953,28877l-27539 122632c-3869,17234 -22382,28066 -39617,24196l-388 -402 19709 -94017c3507,-15610 -4904,-29704 -20511,-33210z"/>
    <path class="fil4" d="M555128 745684l14550 -64789c2457,-10947 7994,-20965 15953,-28874l42687 -42417c9822,-9757 15724,-22777 16594,-36593 54275,-317298 53473,-298742 52257,-309849l3285 -6471c2018,-5307 8680,-7019 13008,-3345 11274,9564 17365,23888 16435,38642l-52449 301804c-870,13819 -6772,26836 -16591,36593l-42690 42417c-7959,7909 -13493,17926 -15953,28877l-27539 122629c-3869,17235 -22382,28069 -39617,24196l-391 -402c20685,-100159 20792,-95581 20461,-102418z"/>
    <path class="fil5" d="M666090 719474l94016 -21115c68944,-15483 138234,27505 153210,96559 14686,67717 -27740,134714 -95233,150395 -68828,15988 -137313,-28270 -152796,-97211l-21115 -94017c-3503,-15607 6307,-31104 21918,-34611zm50587 118630c9014,40142 48866,65378 89010,56361 40144,-9014 65378,-48866 56361,-89010 -9014,-40144 -48866,-65378 -89010,-56364 -40142,9017 -65378,48866 -56361,89013z"/>
    <path class="fil6" d="M878243 794918c-11614,-53549 -55888,-91411 -107331,-98501 65231,-8965 128211,33055 142404,98501 18754,86491 -54817,164702 -141168,152416 72884,-10346 121702,-80447 106095,-152416z"/>
    <path class="fil5" d="M587788 579752c0,-12342 10004,-22342 22343,-22342 12339,0 22343,10000 22343,22342 0,12339 -10004,22340 -22343,22340 -12339,0 -22343,-10001 -22343,-22340z"/>
    <path class="fil6" d="M610128 557424c17034,-26 28006,18513 19358,33497 -8651,14986 -30195,14743 -38687,-17 7710,-12 27918,-18556 19329,-33480z"/>
    <path class="fil5" d="M286642 794918c14975,-69054 84265,-112039 153209,-96556l94017 21115c15610,3504 25421,19001 21917,34611l-21115 94017c-15483,68941 -83968,113198 -152796,97211 -67492,-15684 -109919,-82678 -95232,-150398zm107628 99547c40144,9017 79997,-16219 89011,-56361 9017,-40147 -16220,-79996 -56361,-89013 -40147,-9014 -79997,16220 -89014,56364 -9014,40144 16220,79996 56364,89010z"/>
    <path class="fil6" d="M501700 833138l21116 -94017c1882,-8382 -102,-16716 -4737,-23193l15789 3546c15610,3507 25421,19004 21917,34611l-21115 94017c-15483,68944 -83968,113201 -152796,97211 -14516,-3370 -27867,-9125 -39744,-16738 71121,20656 143594,-24290 159570,-95437z"/>
   </g>
  </g>
 </g>
</svg>
