<?xml version="1.0" encoding="UTF-8"?>
<!DOCTYPE svg PUBLIC "-//W3C//DTD SVG 1.1//EN" "http://www.w3.org/Graphics/SVG/1.1/DTD/svg11.dtd">
<!-- Creator: CorelDRAW X8 -->
<svg xmlns="http://www.w3.org/2000/svg" xml:space="preserve" width="120px" height="120px" version="1.1" style="shape-rendering:geometricPrecision; text-rendering:geometricPrecision; image-rendering:optimizeQuality; fill-rule:evenodd; clip-rule:evenodd"
viewBox="0 0 1200000 1200000"
 xmlns:xlink="http://www.w3.org/1999/xlink">
 <defs>
  <style type="text/css">
   <![CDATA[
    .fil3 {fill:#7240CF}
    .fil2 {fill:#8651E7}
    .fil8 {fill:#A489D6}
    .fil7 {fill:#B59AE6}
    .fil6 {fill:#BC9DF5}
    .fil1 {fill:#C9AEFC}
    .fil9 {fill:#D957A8}
    .fil5 {fill:#EFA628}
    .fil4 {fill:#F1C600}
    .fil0 {fill:#F5F1FE}
   ]]>
  </style>
 </defs>
 <g id="Слой_x0020_1">
  <metadata id="CorelCorpID_0Corel-Layer"/>
  <g id="_2430010465824">
   <path class="fil0" d="M600000 0c331370,0 600000,268630 600000,600000 0,331370 -268630,600000 -600000,600000 -331370,0 -600000,-268630 -600000,-600000 0,-331370 268630,-600000 600000,-600000z"/>
   <g>
    <path class="fil1" d="M851367 658493l-502740 0 0 -95754c0,-14865 12047,-26912 26906,-26912l448931 0c14856,0 26903,12047 26903,26912l0 95754zm0 0z"/>
    <path class="fil2" d="M909061 355084l-393536 0c-24092,0 -43620,-19531 -43620,-43614 0,-24088 19528,-43619 43620,-43619l393536 0c24089,0 43619,19531 43619,43614 0,24088 -19530,43619 -43619,43619zm0 0z"/>
    <path class="fil3" d="M952669 311459c0,12042 -4876,22958 -12770,30841 -7886,7903 -18791,12778 -30832,12778l-393548 0c-20035,0 -36927,-13512 -42026,-31920 7557,7358 17878,11885 29239,11885l378249 0c11588,0 22051,-4691 29636,-12282 7586,-7586 12277,-18065 12277,-29651 0,-9328 -3044,-17920 -8195,-24882 21413,2750 37970,21058 37970,43231l0 0zm0 0z"/>
    <path class="fil4" d="M606982 267851l-100159 0c-25419,0 -46021,20602 -46021,46017l0 129858c0,23927 19395,43322 43328,43322 23924,0 43324,-19395 43324,-43322l0 -47341c0,-16435 13323,-29764 29764,-29764 16441,0 29764,13329 29764,29764l0 6114c0,23927 19400,43325 43327,43325 23925,0 43325,-19398 43325,-43325l0 -88631c0,-25415 -20602,-46017 -46015,-46017l-40637 0zm0 0z"/>
    <path class="fil5" d="M693634 313874l0 88620c0,11973 -4847,22801 -12691,30642 -7840,7843 -18660,12691 -30625,12691 -5236,0 -10242,-922 -14891,-2622 5970,-2200 11328,-5658 15738,-10069 7841,-7841 12691,-18675 12691,-30642l0 -88623c0,-25412 -20602,-46014 -46012,-46014l29775 0c25413,0 46015,20602 46015,46017zm0 0z"/>
    <path class="fil2" d="M733767 970899l-267537 0c-89537,0 -162127,-72590 -162127,-162128l0 -132947c0,-13964 11319,-25280 25279,-25280l541233 0c13960,0 25279,11316 25279,25280l0 132947c0,89538 -72589,162128 -162127,162128l0 0zm0 0z"/>
    <path class="fil3" d="M895894 675829l0 132948c0,89532 -72584,162122 -162133,162122l-267531 0c-58223,0 -109272,-30688 -137845,-76774 28204,30575 68604,49717 113468,49717l263125 0c85263,0 154377,-69111 154377,-154375l0 -122119c0,-6536 -2613,-12464 -6834,-16804l18094 0c13966,0 25279,11316 25279,25285zm0 0z"/>
    <path class="fil6" d="M851373 562727l0 87645 -34033 0 0 -87645c0,-14856 -12052,-26900 -26914,-26900l34032 0c14859,0 26915,12044 26915,26900l0 0zm0 0z"/>
    <path class="fil7" d="M348627 573590l502740 0 0 39027 -502740 0 0 -39027zm0 0z"/>
    <path class="fil8" d="M817340 573590l34027 0 0 39027 -34027 0 0 -39027zm0 0z"/>
    <path class="fil9" d="M698796 782284c0,-24324 -19718,-44041 -44045,-44041 -3705,0 -7305,462 -10743,1323 17,-439 34,-878 34,-1323 0,-24324 -19718,-44048 -44045,-44048 -24324,0 -44047,19724 -44047,44048 0,445 22,884 34,1323 -3439,-861 -7039,-1323 -10744,-1323 -24326,0 -44044,19717 -44044,44041 0,19143 12214,35428 29276,41500 -4944,7123 -7858,15769 -7858,25097 0,24325 19724,44042 44048,44042 13323,0 25259,-5927 33332,-15276 8076,9349 20013,15276 33336,15276 24324,0 44047,-19717 44047,-44042 0,-9328 -2914,-17974 -7857,-25097 17061,-6072 29273,-22357 29273,-41500l3 0zm0 0z"/>
    <path class="fil4" d="M644603 796398c0,24636 -19967,44603 -44606,44603 -24636,0 -44603,-19967 -44603,-44603 0,-24639 19967,-44606 44603,-44606 24636,0 44606,19967 44606,44606zm0 0z"/>
   </g>
  </g>
 </g>
</svg>
