<?xml version="1.0" encoding="UTF-8"?>
<!DOCTYPE svg PUBLIC "-//W3C//DTD SVG 1.1//EN" "http://www.w3.org/Graphics/SVG/1.1/DTD/svg11.dtd">
<!-- Creator: CorelDRAW X8 -->
<svg xmlns="http://www.w3.org/2000/svg" xml:space="preserve" width="120px" height="120px" version="1.1" style="shape-rendering:geometricPrecision; text-rendering:geometricPrecision; image-rendering:optimizeQuality; fill-rule:evenodd; clip-rule:evenodd"
viewBox="0 0 1200000 1200000"
 xmlns:xlink="http://www.w3.org/1999/xlink">
 <defs>
  <style type="text/css">
   <![CDATA[
    .fil7 {fill:#424242}
    .fil8 {fill:#C97E67}
    .fil2 {fill:#CC3D63}
    .fil1 {fill:#D6466D}
    .fil3 {fill:#E34F77}
    .fil11 {fill:#F29C9C}
    .fil10 {fill:#F56C65}
    .fil5 {fill:#F7B081}
    .fil0 {fill:#FDF1F4}
    .fil9 {fill:#FF7870}
    .fil4 {fill:#FFC89F}
    .fil6 {fill:#FFF5F2}
    .fil12 {fill:white}
   ]]>
  </style>
 </defs>
 <g id="Слой_x0020_1">
  <metadata id="CorelCorpID_0Corel-Layer"/>
  <g id="_2429956269824">
   <path class="fil0" d="M600000 0c331370,0 600000,268630 600000,600000 0,331370 -268630,600000 -600000,600000 -331370,0 -600000,-268630 -600000,-600000 0,-331370 268630,-600000 600000,-600000z"/>
   <g>
    <path class="fil1" d="M801648 828452l-403299 0c-3,0 -3,0 -3,0 -3115,0 -6094,-1301 -8211,-3586l-8048 -8674c-1281,-1383 -2200,-3072 -2659,-4901 -2282,-9048 -3472,-18388 -3487,-27728l0 -111946c0,-124132 211428,-197963 220428,-201044 300,-108 606,-201 913,-278 1700,-425 170758,-44189 170758,-157172l0 -2140c0,0 0,0 0,0 0,-6185 5018,-11203 11203,-11203 1729,0 3438,400 4986,1171 106704,52943 174260,161855 174260,280992 0,0 0,37 0,37 0,46313 -19061,94116 -56651,142087 -11185,14133 -23357,27822 -36093,40558l-55874 60244c-2126,2282 -5102,3583 -8220,3583 0,0 -3,0 -3,0l0 0z"/>
    <path class="fil2" d="M656013 649207c0,0 0,0 0,0 0,-136004 110216,-246342 246219,-246461 -30135,-43257 -70812,-78324 -118017,-101795 -1534,-774 -3243,-1174 -4972,-1174 -6185,0 -11203,5018 -11203,11203 0,0 0,3 0,3l0 2140c0,112983 -169058,156747 -170758,157172 -309,80 -613,168 -913,272 -9000,3082 -220428,76910 -220428,201045l0 111945c29,9343 1205,18686 3487,27731 465,1826 1381,3513 2665,4896l8047 8674c2115,2287 5091,3591 8206,3594l334984 0c-49325,-46431 -77317,-111211 -77317,-178959 0,-91 0,-210 0,-301l0 15z"/>
    <path class="fil3" d="M390307 819778c0,0 -2,0 -2,0 -3119,0 -6098,-1301 -8218,-3586l-47829 -51573c-61543,-61727 -92749,-123171 -92749,-182630 0,-173211 140467,-313679 313678,-313679l89623 0c266,0 570,0 836,0 48070,0 95607,11222 138597,32641 3793,1891 6202,5780 6202,10032 0,0 0,0 0,0l0 2140c0,54555 -32887,102926 -95105,139864 -28814,16841 -59890,30025 -92094,38922 -10100,3564 -204891,73803 -204891,179714l0 111943c14,7509 984,15015 2820,22294 219,887 332,1800 332,2716 0,6182 -5014,11199 -11200,11202l0 0z"/>
    <path class="fil1" d="M267573 456420c-17164,39418 -26064,82014 -26064,125030 0,153 0,383 0,536 0,59456 31206,120903 92749,182630l47829 51571c2120,2290 5099,3588 8218,3588 6185,0 11202,-5014 11202,-11202 0,-913 -113,-1826 -334,-2713 -1834,-7279 -2804,-14785 -2827,-22300l0 -111946c68,-11894 2461,-23677 7011,-34662 -72505,-34191 -123934,-101559 -137792,-180527l8 -5z"/>
    <path class="fil4" d="M599997 985324c-32700,0 -64757,-9669 -92012,-27703 -60236,-39770 -132041,-102254 -132041,-174069l0 -111943c0,-124135 211428,-197966 220428,-201047 1162,-394 2392,-601 3625,-601 1236,0 2463,207 3631,606 9000,3082 220428,76913 220428,201045l0 111945c0,71816 -71805,134294 -132044,174073 -27272,18045 -59295,27694 -92009,27694l-6 0z"/>
    <path class="fil5" d="M482368 906870c-14065,0 -28258,-808 -42185,-2424 21339,20424 45371,38390 67813,53204 27264,18025 59275,27671 92001,27671 32726,0 64738,-9646 92010,-27697 60236,-39770 132040,-102257 132040,-174070l0 -114769c-51270,138980 -184901,238085 -341685,238085l6 0z"/>
    <path class="fil6" d="M667215 537179c0,-6188 -5014,-11203 -11202,-11203 -6189,0 -11203,5015 -11203,11203 0,6188 5014,11202 11203,11202 6188,0 11202,-5014 11202,-11202z"/>
    <path class="fil6" d="M723230 576387c0,-9280 -7526,-16803 -16806,-16803 -9281,0 -16804,7523 -16804,16803 0,9281 7523,16804 16804,16804 9280,0 16806,-7523 16806,-16804z"/>
    <path class="fil6" d="M499172 570786c0,-6185 -5015,-11202 -11203,-11202 -6185,0 -11202,5017 -11202,11202 0,6188 5017,11203 11202,11203 6188,0 11203,-5015 11203,-11203z"/>
    <path class="fil7" d="M542451 703680l-281 -281c-2080,-2055 -4889,-3209 -7817,-3209 -1642,0 -3266,363 -4751,1066 -5854,2614 -12201,3969 -18615,3969 -202,0 -414,-6 -607,-6 -28301,0 -47934,-18967 -48093,-19125 -2103,-2098 -4954,-3280 -7925,-3280 -2971,0 -5823,1182 -7920,3283l-22113 22110c-2223,2160 -3478,5130 -3478,8232 0,2667 932,5255 2630,7313 2126,2460 5222,3878 8476,3878 2971,0 5822,-1182 7923,-3283l15244 -15247c4805,3458 9922,6514 15242,9090l-12725 12725c-2097,2095 -3279,4947 -3279,7917 0,6185 5017,11203 11202,11203 2971,0 5823,-1182 7923,-3283l20667 -20667c5335,1009 10783,1542 16220,1542 267,-6 553,3 825,3 9749,0 19386,-2121 28230,-6200 3830,-1825 6271,-5694 6271,-9941 0,-2931 -1171,-5743 -3249,-7809l0 0z"/>
    <path class="fil8" d="M543985 671612c-3,0 -12,0 -15,0 -2965,0 -5813,-1183 -7908,-3280 -10106,-10108 -40201,-17033 -57300,-19123 -14499,111 -28817,3549 -41794,10015 -1536,754 -3223,1145 -4935,1145 -6185,0 -11202,-5017 -11202,-11202 0,-4210 2364,-8068 6114,-9981 16288,-8110 34268,-12370 52467,-12384 2,0 2,0 2,0 434,0 871,25 1301,73 5287,621 52183,6605 71190,25611 2100,2101 3282,4952 3282,7923 0,6185 -5017,11203 -11202,11203 0,0 0,0 0,0l0 0z"/>
    <path class="fil7" d="M657543 703680l281 -281c2080,-2055 4890,-3209 7818,-3209 1641,0 3265,366 4751,1066 5853,2614 12200,3969 18615,3969 201,0 419,-6 615,-6 28301,0 47931,-18967 48092,-19125 2098,-2098 4950,-3280 7920,-3280 2971,0 5823,1182 7923,3283l22110 22110c2223,2160 3478,5133 3478,8234 0,2668 -932,5253 -2627,7311 -2126,2460 -5224,3878 -8479,3878 -2970,0 -5822,-1182 -7920,-3283l-15247 -15247c-4805,3458 -9921,6514 -15242,9090l12725 12725c2126,2098 3328,4972 3328,7965 0,6186 -5018,11203 -11203,11203 -2993,0 -5868,-1199 -7971,-3331l-20667 -20667c-5335,1009 -10783,1542 -16220,1542 -267,-6 -553,3 -825,3 -9740,0 -19389,-2121 -28230,-6202 -3830,-1823 -6270,-5692 -6270,-9939 0,-2931 1167,-5743 3245,-7809l0 0z"/>
    <path class="fil8" d="M656013 671612c5,0 11,0 14,0 2968,0 5814,-1183 7908,-3280 10106,-10108 40201,-17033 57300,-19125 14499,113 28820,3551 41797,10017 1581,814 3339,1239 5116,1239 6188,0 11203,-5017 11203,-11203 0,-4286 -2447,-8197 -6299,-10074 -16291,-8124 -34254,-12370 -52464,-12384 -5,0 -8,0 -8,0 -434,0 -873,25 -1304,73 -5284,621 -52180,6605 -71186,25611 -2101,2101 -3283,4952 -3283,7923 0,6185 5017,11203 11203,11203 0,0 3,0 3,0l0 0z"/>
    <path class="fil9" d="M599997 951683c-48968,0 -67215,-34359 -67215,-56016 0,0 0,0 0,0 0,-3501 1636,-6803 4425,-8920 9768,-7421 33956,-24687 47514,-24687 5650,167 11064,2327 15279,6086 4212,-3759 9626,-5919 15276,-6086 13558,0 37743,17266 47514,24689 2787,2115 4425,5417 4425,8918 0,0 0,0 0,0 0,21657 -18247,56016 -67218,56016l0 0z"/>
    <path class="fil10" d="M537207 886747c-2789,2117 -4425,5419 -4425,8920 0,0 0,0 0,0 26,3776 525,7552 1463,11206l131505 -3c941,-3651 1440,-7427 1465,-11206 0,3 0,3 0,3 0,-3501 -1638,-6803 -4425,-8920 -898,-684 -1925,-1452 -3050,-2282l-119483 0c-1125,830 -2154,1598 -3050,2282l0 0z"/>
    <path class="fil11" d="M633608 929278c0,-6188 -5018,-11203 -11203,-11203 -6188,0 -11202,5015 -11202,11203 0,6185 5014,11202 11202,11202 6185,0 11203,-5017 11203,-11202z"/>
    <path class="fil12" d="M490248 859058c-11,0 -39,0 -48,0 -23890,0 -46411,-11234 -60786,-30308 -5746,-7498 -8875,-16705 -8875,-26164 0,-4810 813,-9598 2392,-14139 4479,-13099 15259,-23071 28661,-26521 349,-88 698,-162 1052,-215 16038,-2489 25024,5332 31589,11041 5460,4748 9068,7886 16988,7886 6395,0 12345,-3000 17691,-8913 5151,-5717 12501,-8991 20200,-8991 4258,0 8461,1003 12260,2922 9215,4780 15006,14307 15006,24690 0,1698 -156,3399 -465,5066 -6913,36878 -38732,63643 -75665,63643l0 3z"/>
    <path class="fil12" d="M633860 795412c-309,-1667 -465,-3368 -465,-5066 0,-10383 5791,-19910 15006,-24690 3799,-1919 8003,-2922 12260,-2922 7702,0 15052,3274 20203,8994 5343,5913 11296,8912 17691,8912 7920,0 11525,-3138 16988,-7886 6565,-5709 15551,-13532 31589,-11041 354,54 703,125 1052,213 13399,3450 24182,13422 28661,26518 1579,4544 2392,9332 2392,14142 0,9459 -3129,18666 -8884,26167 -14374,19080 -36890,30305 -60780,30305 -8,0 -37,0 -45,0 -36930,0 -68752,-26768 -75665,-63646l-3 0z"/>
   </g>
  </g>
 </g>
</svg>
