<?xml version="1.0" encoding="UTF-8"?>
<!DOCTYPE svg PUBLIC "-//W3C//DTD SVG 1.1//EN" "http://www.w3.org/Graphics/SVG/1.1/DTD/svg11.dtd">
<!-- Creator: CorelDRAW X8 -->
<svg xmlns="http://www.w3.org/2000/svg" xml:space="preserve" width="120px" height="120px" version="1.1" style="shape-rendering:geometricPrecision; text-rendering:geometricPrecision; image-rendering:optimizeQuality; fill-rule:evenodd; clip-rule:evenodd"
viewBox="0 0 1200000 1200000"
 xmlns:xlink="http://www.w3.org/1999/xlink">
 <defs>
  <style type="text/css">
   <![CDATA[
    .fil1 {fill:#3B4254}
    .fil4 {fill:#54C797}
    .fil6 {fill:#606572}
    .fil2 {fill:#6ADBAC}
    .fil7 {fill:#844747}
    .fil5 {fill:#965353}
    .fil10 {fill:#D3B1A9}
    .fil8 {fill:#E6E9ED}
    .fil0 {fill:#F3FDF9}
    .fil3 {fill:#F7B081}
    .fil9 {fill:#FFC89F}
   ]]>
  </style>
 </defs>
 <g id="Слой_x0020_1">
  <metadata id="CorelCorpID_0Corel-Layer"/>
  <path class="fil0" d="M600000 0c331370,0 600000,268630 600000,600000 0,331370 -268630,600000 -600000,600000 -331370,0 -600000,-268630 -600000,-600000 0,-331370 268630,-600000 600000,-600000z"/>
  <g id="_2429956276960">
   <path class="fil1" d="M542604 399126c0,31708 25682,57393 57393,57393l-43044 0c-17076,0 -32425,7461 -42899,19369l0 -119806 28550 0 0 43044zm0 0z"/>
   <path class="fil1" d="M657538 399126l0 -43044 28547 0 0 119381 -286 286c-10327,-11769 -25676,-19230 -42758,-19230l-43044 0c31708,0 57541,-25685 57541,-57393zm0 0z"/>
   <path class="fil2" d="M671884 585651c-15908,0 -28695,12773 -28695,28698 0,15783 12787,28556 28695,28556l0 139 -143768 0 0 -139c15908,0 28695,-12787 28695,-28556 0,-15925 -12787,-28698 -28695,-28698 -15786,0 -28556,12773 -28556,28698l0 -100437c0,-14491 5457,-27836 14494,-38024 10474,-11908 25823,-19369 42896,-19369l86091 0c17082,0 32431,7461 42758,19230 9184,10188 14635,23528 14635,38163l286 0 0 100437 -286 0c0,-15925 -12764,-28698 -28550,-28698l0 0zm0 0z"/>
   <path class="fil3" d="M593109 815013l0 93263c0,-19806 -12855,-35870 -28695,-35870 -15840,0 -28698,16064 -28698,35870l0 -93263 57393 0zm0 0z"/>
   <path class="fil4" d="M600283 908276l0 7174 -71741 0 0 -7174c0,-19806 16072,-35870 35872,-35870 19806,0 35869,16064 35869,35870zm0 0z"/>
   <path class="fil3" d="M664851 815013l0 93263c0,-19806 -12855,-35870 -28695,-35870 -15843,0 -28698,16064 -28698,35870l0 -93263 57393 0zm0 0z"/>
   <path class="fil4" d="M672025 908276l0 7174 -71742 0 0 -7174c0,-19806 16073,-35870 35873,-35870 19805,0 35869,16064 35869,35870l0 0zm0 0z"/>
   <path class="fil5" d="M430593 743481l28695 0 571288 147c7889,0 14349,6441 14349,14349l0 43044c0,7875 -6460,14349 -14349,14349l-251858 0c-7888,0 -20800,0 -28695,0l-393266 0c-7898,0 -20807,0 -28695,0l-158653 0c-7888,0 -14346,-6474 -14346,-14349l0 -43191c0,-7903 6458,-14349 14346,-14349l261184 0zm0 0z"/>
   <path class="fil3" d="M800732 643044c0,29707 22235,53955 50791,57393l-122533 0c0,-17059 7461,-32423 19372,-43044 10185,-8875 23539,-14349 38021,-14349l14349 0zm0 0z"/>
   <path class="fil6" d="M829427 643044c31709,0 57393,25699 57393,57393l-35297 0c-28556,-3438 -50791,-27686 -50791,-57393l28695 0zm0 0z"/>
   <path class="fil7" d="M987546 915521l0 139 -129421 0 0 -100290 129421 0 0 100151zm0 0z"/>
   <path class="fil7" d="M341730 915521l0 139 -129274 0 0 -100290 129274 0 0 100151zm0 0z"/>
   <path class="fil8" d="M571160 815370l0 28695 -143484 0 0 -172323c0,-15778 12915,-28698 28698,-28698l143771 0c-15911,0 -28698,12920 -28698,28698l-287 0 0 143628zm0 0z"/>
   <path class="fil1" d="M1044911 930009l-889822 0c-7937,0 -14346,-6412 -14346,-14349 0,-7931 6409,-14349 14346,-14349l889822 0c7929,0 14346,6418 14346,14349 0,7937 -6417,14349 -14346,14349zm0 0z"/>
   <path class="fil9" d="M728990 700437c0,-10460 3056,-20086 7966,-28548l-22300 0 -14364 -14496c0,-7875 -6457,-14202 -14346,-14202l0 -147 -85801 0c-15911,0 -28698,12920 -28698,28698l-287 0 0 71739 157830 0 0 -43044zm0 0z"/>
   <path class="fil9" d="M685833 643044l28823 28845c0,-15962 -12884,-28845 -28823,-28845zm0 0z"/>
   <path class="fil9" d="M987546 721960c0,11889 -9640,21521 -21523,21521 -11888,0 -21523,-9632 -21523,-21521 0,-11882 9635,-21523 21523,-21523 11883,0 21523,9641 21523,21523zm0 0z"/>
   <path class="fil9" d="M714627 700437l251396 0 0 43044 -251396 0 0 -43044zm0 0z"/>
   <path class="fil9" d="M427676 686153l-186525 0c-15840,0 -28695,12855 -28695,28695 0,15854 12855,28695 28695,28695 244,0 457,-62 701,-62l185824 0 0 -57328zm0 0z"/>
   <path class="fil4" d="M542448 528335l14349 0 0 86014 -14349 0 0 -86014zm0 0z"/>
   <path class="fil9" d="M528116 585651c15908,0 28695,12773 28695,28698 0,15783 -12787,28556 -28695,28556 -15786,0 -28556,-12773 -28556,-28556 0,-15925 12770,-28698 28556,-28698zm0 0z"/>
   <path class="fil4" d="M556797 528335c0,3960 -3214,7174 -7174,7174 -3966,0 -7175,-3214 -7175,-7174 0,-3963 3209,-7172 7175,-7172 3960,0 7174,3209 7174,7172zm0 0z"/>
   <path class="fil4" d="M642984 528335l14349 0 0 86014 -14349 0 0 -86014zm0 0z"/>
   <path class="fil4" d="M657333 528335c0,3960 -3208,7174 -7174,7174 -3957,0 -7175,-3214 -7175,-7174 0,-3963 3218,-7172 7175,-7172 3966,0 7174,3209 7174,7172zm0 0z"/>
   <path class="fil9" d="M671884 585651c15786,0 28550,12773 28550,28698 0,15783 -12764,28556 -28550,28556 -15908,0 -28695,-12787 -28695,-28556 0,-15925 12772,-28698 28695,-28698zm0 0z"/>
   <path class="fil10" d="M571376 413486l57393 0 0 43005 -57393 0 0 -43005zm0 0z"/>
   <path class="fil3" d="M628769 456491c0,15845 -12847,28695 -28695,28695 -15854,0 -28695,-12850 -28695,-28695 0,-15849 12841,-28698 28695,-28698 15848,0 28695,12849 28695,28698zm0 0z"/>
   <path class="fil6" d="M514054 357165c0,-48084 38469,-87174 85943,-87174 47639,0 86088,39090 86088,87174l-172031 0zm0 0z"/>
   <path class="fil9" d="M657538 356082l0 43044c0,31708 -25833,57393 -57541,57393 -31708,0 -57393,-25685 -57393,-57393l0 -43044 114934 0zm0 0z"/>
  </g>
 </g>
</svg>
