<?xml version="1.0" encoding="UTF-8"?>
<!DOCTYPE svg PUBLIC "-//W3C//DTD SVG 1.1//EN" "http://www.w3.org/Graphics/SVG/1.1/DTD/svg11.dtd">
<!-- Creator: CorelDRAW X8 -->
<svg xmlns="http://www.w3.org/2000/svg" xml:space="preserve" width="120px" height="120px" version="1.1" style="shape-rendering:geometricPrecision; text-rendering:geometricPrecision; image-rendering:optimizeQuality; fill-rule:evenodd; clip-rule:evenodd"
viewBox="0 0 1200000 1200000"
 xmlns:xlink="http://www.w3.org/1999/xlink">
 <defs>
  <style type="text/css">
   <![CDATA[
    .fil3 {fill:#444145}
    .fil4 {fill:#544F56}
    .fil2 {fill:#655E67}
    .fil5 {fill:#766D78}
    .fil7 {fill:#8C818F}
    .fil1 {fill:#A29AA5}
    .fil10 {fill:#B1ABB4}
    .fil6 {fill:#C8C3CA}
    .fil9 {fill:#E3B419}
    .fil8 {fill:#FFC919}
    .fil0 {fill:#FFFBEC}
   ]]>
  </style>
 </defs>
 <g id="Слой_x0020_1">
  <metadata id="CorelCorpID_0Corel-Layer"/>
  <path class="fil0" d="M600000 0c331370,0 600000,268630 600000,600000 0,331370 -268630,600000 -600000,600000 -331370,0 -600000,-268630 -600000,-600000 0,-331370 268630,-600000 600000,-600000z"/>
  <g id="_2429989258720">
   <polygon class="fil1" points="694807,528485 769427,528485 769427,587936 694807,587936 "/>
   <path class="fil2" d="M768284 535132l-93240 0 -12016 -80575 13351 -89160 53802 -13352 57674 13352 0 150165c0,10808 -8762,19570 -19571,19570l0 0z"/>
   <path class="fil3" d="M747804 365397l0 169735 20480 0c10809,0 19571,-8762 19571,-19570l0 -150165 -18428 -13352 -21623 13352z"/>
   <polygon class="fil1" points="581782,528485 658858,528485 658858,587936 581782,587936 "/>
   <path class="fil4" d="M676059 535132l-91905 0c-10808,0 -19570,-8762 -19570,-19570l0 -150165 57784 -13352 53691 13352 0 169735z"/>
   <polygon class="fil3" points="636006,365397 636006,535132 676059,535132 676059,365397 654485,352045 "/>
   <path class="fil5" d="M357910 591198l-22297 0 0 -11267 0 -7025c0,-5527 -4482,-10011 -10012,-10011 -5530,0 -10012,4484 -10012,10011l0 7025 0 11267 -14286 0c-5531,0 -10012,4485 -10012,10012 0,5531 4481,10015 10012,10015l14286 0 0 11268 0 7024c0,5528 4482,10012 10012,10012 5530,0 10012,-4484 10012,-10012l0 -7024 0 -11268 22297 0c5531,0 10012,-4484 10012,-10012 0,-5530 -4481,-10015 -10012,-10015l0 0z"/>
   <path class="fil6" d="M452236 528485c-5497,0 -9970,-5205 -10012,-11662l-1004 -161509c-39,-6489 4411,-11787 9939,-11835l76 0c5497,0 9970,5205 10012,11662l1004 161509c39,6489 -4408,11787 -9939,11835 -25,0 -51,0 -76,0l0 0z"/>
   <path class="fil6" d="M877180 581286l0 -74619c0,-5531 -4482,-10012 -10012,-10012l-37446 0c-5530,0 -10012,4481 -10012,10012l0 74619 28735 14683 28735 -14683z"/>
   <path class="fil7" d="M473731 979998l-36581 -68417c-4864,-9102 -7413,-19264 -7413,-29585l0 -354038c0,-12150 9848,-21997 21997,-21997 12149,0 21997,9847 21997,21997l0 452040 0 0z"/>
   <path class="fil8" d="M520012 573215c0,-4779 -3875,-8654 -8651,-8654l-142036 0c-7086,0 -12829,5746 -12829,12830l0 52840c0,7087 5746,12833 12829,12833l142036 0c4779,0 8654,-3875 8654,-8654 0,-4777 3875,-8652 8651,-8652l374694 0c2954,0 5349,-2395 5349,-5349l0 -33193c0,-2957 -2392,-5352 -5349,-5352l-374694 3c-4779,0 -8654,-3875 -8654,-8652z"/>
   <path class="fil9" d="M903358 581867l-40051 0c2954,0 5349,2395 5349,5349l0 33193c0,2957 -2395,5352 -5349,5352l40051 -3c2953,0 5349,-2395 5349,-5349l0 -33193c2,-2954 -2393,-5349 -5349,-5349l0 0z"/>
   <path class="fil8" d="M836605 321533l-423737 0c-5573,0 -10088,4519 -10088,10089l0 23714c0,5573 4515,10089 10088,10089l423737 0c2956,0 5351,-2393 5351,-5349l0 -33194c0,-2953 -2395,-5349 -5351,-5349l0 0z"/>
   <path class="fil9" d="M836605 321533l-40051 0c2954,0 5352,2396 5352,5349l0 33194c0,2956 -2395,5352 -5352,5352l40051 -3c2956,0 5351,-2393 5351,-5349l0 -33194c0,-2953 -2395,-5349 -5351,-5349l0 0z"/>
   <path class="fil6" d="M479154 847651l-51137 0c-18805,0 -34047,-15244 -34047,-34047l0 -85285c0,-22267 18048,-40318 40314,-40318l38599 0c22266,0 40317,18051 40317,40318l0 85285c0,18803 -15244,34047 -34046,34047z"/>
   <path class="fil10" d="M472883 688001l-38599 0c-244,0 -482,17 -726,20 21929,389 39589,18275 39589,40298l0 85285c0,18805 -15242,34047 -34047,34047l40051 0c18805,0 34049,-15242 34049,-34047l0 -85285c0,-22267 -18051,-40318 -40317,-40318l0 0z"/>
   <path class="fil1" d="M511358 756764l-116076 0c-5533,0 -10015,-4481 -10015,-10012 0,-5530 4482,-10012 10015,-10012l116073 0c5533,0 10015,4482 10015,10012 0,5531 -4482,10012 -10012,10012l0 0z"/>
   <path class="fil1" d="M511885 798915l-116603 0c-5533,0 -10015,-4484 -10015,-10015 0,-5527 4482,-10011 10015,-10011l116603 0c5533,0 10015,4481 10015,10011 0,5531 -4482,10012 -10015,10012l0 3z"/>
  </g>
 </g>
</svg>
