<?xml version="1.0" encoding="UTF-8"?>
<!DOCTYPE svg PUBLIC "-//W3C//DTD SVG 1.1//EN" "http://www.w3.org/Graphics/SVG/1.1/DTD/svg11.dtd">
<!-- Creator: CorelDRAW X8 -->
<svg xmlns="http://www.w3.org/2000/svg" xml:space="preserve" width="306px" height="307px" version="1.1" style="shape-rendering:geometricPrecision; text-rendering:geometricPrecision; image-rendering:optimizeQuality; fill-rule:evenodd; clip-rule:evenodd"
viewBox="0 0 3060000 3067721"
 xmlns:xlink="http://www.w3.org/1999/xlink">
 <defs>
  <style type="text/css">
   <![CDATA[
    .fil0 {fill:#F4F4F4}
   ]]>
  </style>
 </defs>
 <g id="Слой_x0020_1">
  <metadata id="CorelCorpID_0Corel-Layer"/>
  <path class="fil0" d="M88335 0c48786,0 88336,39550 88336,88335 0,48786 -39550,88336 -88336,88336 -48785,0 -88335,-39550 -88335,-88336 0,-48785 39550,-88335 88335,-88335zm0 2891051c48786,0 88336,39550 88336,88335 0,48786 -39550,88335 -88336,88335 -48785,0 -88335,-39549 -88335,-88335 0,-48785 39550,-88335 88335,-88335zm2883330 0c48785,0 88335,39550 88335,88335 0,48786 -39550,88335 -88335,88335 -48786,0 -88336,-39549 -88336,-88335 0,-48785 39550,-88335 88336,-88335zm-360421 0c48786,0 88336,39550 88336,88335 0,48786 -39550,88335 -88336,88335 -48785,0 -88335,-39549 -88335,-88335 0,-48785 39550,-88335 88335,-88335zm-360415 0c48786,0 88336,39550 88336,88335 0,48786 -39550,88335 -88336,88335 -48785,0 -88335,-39549 -88335,-88335 0,-48785 39550,-88335 88335,-88335zm-360417 0c48785,0 88338,39550 88338,88335 0,48786 -39553,88335 -88338,88335 -48783,0 -88335,-39549 -88335,-88335 0,-48785 39552,-88335 88335,-88335zm-360415 0c48786,0 88336,39550 88336,88335 0,48786 -39550,88335 -88336,88335 -48785,0 -88335,-39549 -88335,-88335 0,-48785 39550,-88335 88335,-88335zm-360415 0c48786,0 88336,39550 88336,88335 0,48786 -39550,88335 -88336,88335 -48785,0 -88335,-39549 -88335,-88335 0,-48785 39550,-88335 88335,-88335zm-360414 0c48782,0 88335,39550 88335,88335 0,48786 -39553,88335 -88335,88335 -48786,0 -88339,-39549 -88339,-88335 0,-48785 39553,-88335 88339,-88335zm-360418 0c48786,0 88335,39550 88335,88335 0,48786 -39549,88335 -88335,88335 -48785,0 -88335,-39549 -88335,-88335 0,-48785 39550,-88335 88335,-88335zm-360415 -361380c48786,0 88336,39550 88336,88335 0,48786 -39550,88336 -88336,88336 -48785,0 -88335,-39550 -88335,-88336 0,-48785 39550,-88335 88335,-88335zm2883330 0c48785,0 88335,39550 88335,88335 0,48786 -39550,88336 -88335,88336 -48786,0 -88336,-39550 -88336,-88336 0,-48785 39550,-88335 88336,-88335zm-360421 0c48786,0 88336,39550 88336,88335 0,48786 -39550,88336 -88336,88336 -48785,0 -88335,-39550 -88335,-88336 0,-48785 39550,-88335 88335,-88335zm-360415 0c48786,0 88336,39550 88336,88335 0,48786 -39550,88336 -88336,88336 -48785,0 -88335,-39550 -88335,-88336 0,-48785 39550,-88335 88335,-88335zm-360417 0c48785,0 88338,39550 88338,88335 0,48786 -39553,88336 -88338,88336 -48783,0 -88335,-39550 -88335,-88336 0,-48785 39552,-88335 88335,-88335zm-360415 0c48786,0 88336,39550 88336,88335 0,48786 -39550,88336 -88336,88336 -48785,0 -88335,-39550 -88335,-88336 0,-48785 39550,-88335 88335,-88335zm-360415 0c48786,0 88336,39550 88336,88335 0,48786 -39550,88336 -88336,88336 -48785,0 -88335,-39550 -88335,-88336 0,-48785 39550,-88335 88335,-88335zm-360414 0c48782,0 88335,39550 88335,88335 0,48786 -39553,88336 -88335,88336 -48786,0 -88339,-39550 -88339,-88336 0,-48785 39553,-88335 88339,-88335zm-360418 0c48786,0 88335,39550 88335,88335 0,48786 -39549,88336 -88335,88336 -48785,0 -88335,-39550 -88335,-88336 0,-48785 39550,-88335 88335,-88335zm-360415 -361380c48786,0 88336,39550 88336,88335 0,48786 -39550,88336 -88336,88336 -48785,0 -88335,-39550 -88335,-88336 0,-48785 39550,-88335 88335,-88335zm2883330 0c48785,0 88335,39550 88335,88335 0,48786 -39550,88336 -88335,88336 -48786,0 -88336,-39550 -88336,-88336 0,-48785 39550,-88335 88336,-88335zm-360421 0c48786,0 88336,39550 88336,88335 0,48786 -39550,88336 -88336,88336 -48785,0 -88335,-39550 -88335,-88336 0,-48785 39550,-88335 88335,-88335zm-360415 0c48786,0 88336,39550 88336,88335 0,48786 -39550,88336 -88336,88336 -48785,0 -88335,-39550 -88335,-88336 0,-48785 39550,-88335 88335,-88335zm-360417 0c48785,0 88338,39550 88338,88335 0,48786 -39553,88336 -88338,88336 -48783,0 -88335,-39550 -88335,-88336 0,-48785 39552,-88335 88335,-88335zm-360415 0c48786,0 88336,39550 88336,88335 0,48786 -39550,88336 -88336,88336 -48785,0 -88335,-39550 -88335,-88336 0,-48785 39550,-88335 88335,-88335zm-360415 0c48786,0 88336,39550 88336,88335 0,48786 -39550,88336 -88336,88336 -48785,0 -88335,-39550 -88335,-88336 0,-48785 39550,-88335 88335,-88335zm-360414 0c48782,0 88335,39550 88335,88335 0,48786 -39553,88336 -88335,88336 -48786,0 -88339,-39550 -88339,-88336 0,-48785 39553,-88335 88339,-88335zm-360418 0c48786,0 88335,39550 88335,88335 0,48786 -39549,88336 -88335,88336 -48785,0 -88335,-39550 -88335,-88336 0,-48785 39550,-88335 88335,-88335zm-360415 -361377c48786,0 88336,39550 88336,88335 0,48786 -39550,88336 -88336,88336 -48785,0 -88335,-39550 -88335,-88336 0,-48785 39550,-88335 88335,-88335zm2883330 0c48785,0 88335,39550 88335,88335 0,48786 -39550,88336 -88335,88336 -48786,0 -88336,-39550 -88336,-88336 0,-48785 39550,-88335 88336,-88335zm-360421 0c48786,0 88336,39550 88336,88335 0,48786 -39550,88336 -88336,88336 -48785,0 -88335,-39550 -88335,-88336 0,-48785 39550,-88335 88335,-88335zm-360415 0c48786,0 88336,39550 88336,88335 0,48786 -39550,88336 -88336,88336 -48785,0 -88335,-39550 -88335,-88336 0,-48785 39550,-88335 88335,-88335zm-360417 0c48785,0 88338,39550 88338,88335 0,48786 -39553,88336 -88338,88336 -48783,0 -88335,-39550 -88335,-88336 0,-48785 39552,-88335 88335,-88335zm-360415 0c48786,0 88336,39550 88336,88335 0,48786 -39550,88336 -88336,88336 -48785,0 -88335,-39550 -88335,-88336 0,-48785 39550,-88335 88335,-88335zm-360415 0c48786,0 88336,39550 88336,88335 0,48786 -39550,88336 -88336,88336 -48785,0 -88335,-39550 -88335,-88336 0,-48785 39550,-88335 88335,-88335zm-360414 0c48782,0 88335,39550 88335,88335 0,48786 -39553,88336 -88335,88336 -48786,0 -88339,-39550 -88339,-88336 0,-48785 39553,-88335 88339,-88335zm-360418 0c48786,0 88335,39550 88335,88335 0,48786 -39549,88336 -88335,88336 -48785,0 -88335,-39550 -88335,-88336 0,-48785 39550,-88335 88335,-88335zm-360415 -361380c48786,0 88336,39550 88336,88335 0,48786 -39550,88336 -88336,88336 -48785,0 -88335,-39550 -88335,-88336 0,-48785 39550,-88335 88335,-88335zm2883330 0c48785,0 88335,39550 88335,88335 0,48786 -39550,88336 -88335,88336 -48786,0 -88336,-39550 -88336,-88336 0,-48785 39550,-88335 88336,-88335zm-360421 0c48786,0 88336,39550 88336,88335 0,48786 -39550,88336 -88336,88336 -48785,0 -88335,-39550 -88335,-88336 0,-48785 39550,-88335 88335,-88335zm-360415 0c48786,0 88336,39550 88336,88335 0,48786 -39550,88336 -88336,88336 -48785,0 -88335,-39550 -88335,-88336 0,-48785 39550,-88335 88335,-88335zm-360417 0c48785,0 88338,39550 88338,88335 0,48786 -39553,88336 -88338,88336 -48783,0 -88335,-39550 -88335,-88336 0,-48785 39552,-88335 88335,-88335zm-360415 0c48786,0 88336,39550 88336,88335 0,48786 -39550,88336 -88336,88336 -48785,0 -88335,-39550 -88335,-88336 0,-48785 39550,-88335 88335,-88335zm-360415 0c48786,0 88336,39550 88336,88335 0,48786 -39550,88336 -88336,88336 -48785,0 -88335,-39550 -88335,-88336 0,-48785 39550,-88335 88335,-88335zm-360414 0c48782,0 88335,39550 88335,88335 0,48786 -39553,88336 -88335,88336 -48786,0 -88339,-39550 -88339,-88336 0,-48785 39553,-88335 88339,-88335zm-360418 0c48786,0 88335,39550 88335,88335 0,48786 -39549,88336 -88335,88336 -48785,0 -88335,-39550 -88335,-88336 0,-48785 39550,-88335 88335,-88335zm-360415 -361380c48786,0 88336,39550 88336,88335 0,48786 -39550,88336 -88336,88336 -48785,0 -88335,-39550 -88335,-88336 0,-48785 39550,-88335 88335,-88335zm2883330 0c48785,0 88335,39550 88335,88335 0,48786 -39550,88336 -88335,88336 -48786,0 -88336,-39550 -88336,-88336 0,-48785 39550,-88335 88336,-88335zm-360421 0c48786,0 88336,39550 88336,88335 0,48786 -39550,88336 -88336,88336 -48785,0 -88335,-39550 -88335,-88336 0,-48785 39550,-88335 88335,-88335zm-360415 0c48786,0 88336,39550 88336,88335 0,48786 -39550,88336 -88336,88336 -48785,0 -88335,-39550 -88335,-88336 0,-48785 39550,-88335 88335,-88335zm-360417 0c48785,0 88338,39550 88338,88335 0,48786 -39553,88336 -88338,88336 -48783,0 -88335,-39550 -88335,-88336 0,-48785 39552,-88335 88335,-88335zm-360415 0c48786,0 88336,39550 88336,88335 0,48786 -39550,88336 -88336,88336 -48785,0 -88335,-39550 -88335,-88336 0,-48785 39550,-88335 88335,-88335zm-360415 0c48786,0 88336,39550 88336,88335 0,48786 -39550,88336 -88336,88336 -48785,0 -88335,-39550 -88335,-88336 0,-48785 39550,-88335 88335,-88335zm-360414 0c48782,0 88335,39550 88335,88335 0,48786 -39553,88336 -88335,88336 -48786,0 -88339,-39550 -88339,-88336 0,-48785 39553,-88335 88339,-88335zm-360418 0c48786,0 88335,39550 88335,88335 0,48786 -39549,88336 -88335,88336 -48785,0 -88335,-39550 -88335,-88336 0,-48785 39550,-88335 88335,-88335zm-360415 -361377c48786,0 88336,39550 88336,88335 0,48786 -39550,88336 -88336,88336 -48785,0 -88335,-39550 -88335,-88336 0,-48785 39550,-88335 88335,-88335zm2883330 0c48785,0 88335,39550 88335,88335 0,48786 -39550,88336 -88335,88336 -48786,0 -88336,-39550 -88336,-88336 0,-48785 39550,-88335 88336,-88335zm-360421 0c48786,0 88336,39550 88336,88335 0,48786 -39550,88336 -88336,88336 -48785,0 -88335,-39550 -88335,-88336 0,-48785 39550,-88335 88335,-88335zm-360415 0c48786,0 88336,39550 88336,88335 0,48786 -39550,88336 -88336,88336 -48785,0 -88335,-39550 -88335,-88336 0,-48785 39550,-88335 88335,-88335zm-360417 0c48785,0 88338,39550 88338,88335 0,48786 -39553,88336 -88338,88336 -48783,0 -88335,-39550 -88335,-88336 0,-48785 39552,-88335 88335,-88335zm-360415 0c48786,0 88336,39550 88336,88335 0,48786 -39550,88336 -88336,88336 -48785,0 -88335,-39550 -88335,-88336 0,-48785 39550,-88335 88335,-88335zm-360415 0c48786,0 88336,39550 88336,88335 0,48786 -39550,88336 -88336,88336 -48785,0 -88335,-39550 -88335,-88336 0,-48785 39550,-88335 88335,-88335zm-360414 0c48782,0 88335,39550 88335,88335 0,48786 -39553,88336 -88335,88336 -48786,0 -88339,-39550 -88339,-88336 0,-48785 39553,-88335 88339,-88335zm-360418 0c48786,0 88335,39550 88335,88335 0,48786 -39549,88336 -88335,88336 -48785,0 -88335,-39550 -88335,-88336 0,-48785 39550,-88335 88335,-88335zm-360415 -361380c48786,0 88336,39550 88336,88335 0,48786 -39550,88336 -88336,88336 -48785,0 -88335,-39550 -88335,-88336 0,-48785 39550,-88335 88335,-88335zm2883330 0c48785,0 88335,39550 88335,88335 0,48786 -39550,88336 -88335,88336 -48786,0 -88336,-39550 -88336,-88336 0,-48785 39550,-88335 88336,-88335zm-360421 0c48786,0 88336,39550 88336,88335 0,48786 -39550,88336 -88336,88336 -48785,0 -88335,-39550 -88335,-88336 0,-48785 39550,-88335 88335,-88335zm-360415 0c48786,0 88336,39550 88336,88335 0,48786 -39550,88336 -88336,88336 -48785,0 -88335,-39550 -88335,-88336 0,-48785 39550,-88335 88335,-88335zm-360417 0c48785,0 88338,39550 88338,88335 0,48786 -39553,88336 -88338,88336 -48783,0 -88335,-39550 -88335,-88336 0,-48785 39552,-88335 88335,-88335zm-360415 0c48786,0 88336,39550 88336,88335 0,48786 -39550,88336 -88336,88336 -48785,0 -88335,-39550 -88335,-88336 0,-48785 39550,-88335 88335,-88335zm-360415 0c48786,0 88336,39550 88336,88335 0,48786 -39550,88336 -88336,88336 -48785,0 -88335,-39550 -88335,-88336 0,-48785 39550,-88335 88335,-88335zm-360414 0c48782,0 88335,39550 88335,88335 0,48786 -39553,88336 -88335,88336 -48786,0 -88339,-39550 -88339,-88336 0,-48785 39553,-88335 88339,-88335zm-360418 0c48786,0 88335,39550 88335,88335 0,48786 -39549,88336 -88335,88336 -48785,0 -88335,-39550 -88335,-88336 0,-48785 39550,-88335 88335,-88335zm2522915 -361397c48785,0 88335,39550 88335,88335 0,48786 -39550,88336 -88335,88336 -48786,0 -88336,-39550 -88336,-88336 0,-48785 39550,-88335 88336,-88335zm-360421 0c48786,0 88336,39550 88336,88335 0,48786 -39550,88336 -88336,88336 -48785,0 -88335,-39550 -88335,-88336 0,-48785 39550,-88335 88335,-88335zm-360415 0c48786,0 88336,39550 88336,88335 0,48786 -39550,88336 -88336,88336 -48785,0 -88335,-39550 -88335,-88336 0,-48785 39550,-88335 88335,-88335zm-360417 0c48785,0 88338,39550 88338,88335 0,48786 -39553,88336 -88338,88336 -48783,0 -88335,-39550 -88335,-88336 0,-48785 39552,-88335 88335,-88335zm-360415 0c48786,0 88336,39550 88336,88335 0,48786 -39550,88336 -88336,88336 -48785,0 -88335,-39550 -88335,-88336 0,-48785 39550,-88335 88335,-88335zm-360415 0c48786,0 88336,39550 88336,88335 0,48786 -39550,88336 -88336,88336 -48785,0 -88335,-39550 -88335,-88336 0,-48785 39550,-88335 88335,-88335zm-360414 0c48782,0 88335,39550 88335,88335 0,48786 -39553,88336 -88335,88336 -48786,0 -88339,-39550 -88339,-88336 0,-48785 39553,-88335 88339,-88335zm-360418 0c48786,0 88335,39550 88335,88335 0,48786 -39549,88336 -88335,88336 -48785,0 -88335,-39550 -88335,-88336 0,-48785 39550,-88335 88335,-88335z"/>
 </g>
</svg>
