<?xml version="1.0" encoding="UTF-8"?>
<!DOCTYPE svg PUBLIC "-//W3C//DTD SVG 1.1//EN" "http://www.w3.org/Graphics/SVG/1.1/DTD/svg11.dtd">
<!-- Creator: CorelDRAW X8 -->
<svg xmlns="http://www.w3.org/2000/svg" xml:space="preserve" width="392px" height="469px" version="1.1" style="shape-rendering:geometricPrecision; text-rendering:geometricPrecision; image-rendering:optimizeQuality; fill-rule:evenodd; clip-rule:evenodd"
viewBox="0 0 3920003 4685015"
 xmlns:xlink="http://www.w3.org/1999/xlink">
 <defs>
  <style type="text/css">
   <![CDATA[
    .fil1 {fill:#F0F0F0}
    .fil0 {fill:#F7F7F7}
   ]]>
  </style>
 </defs>
 <g id="Слой_x0020_1">
  <metadata id="CorelCorpID_0Corel-Layer"/>
  <path class="fil0" d="M2057688 2419638c625567,0 1132688,507121 1132688,1132688 0,625567 -507121,1132689 -1132688,1132689 -625567,0 -1132689,-507122 -1132689,-1132689 0,-625567 507122,-1132688 1132689,-1132688z"/>
  <path class="fil0" d="M1960003 0c1082478,0 1960000,877522 1960000,1960003 0,1082478 -877522,1960000 -1960000,1960000 -1082481,0 -1960003,-877522 -1960003,-1960000 0,-1082481 877522,-1960003 1960003,-1960003zm1343509 616490c-343828,-343825 -818833,-556492 -1343509,-556492 -524676,0 -999684,212664 -1343513,556492 -343828,343829 -556492,818834 -556492,1343513 0,524676 212667,999681 556492,1343509 343829,343829 818837,556493 1343513,556493 524676,0 999681,-212667 1343509,-556493 343826,-343828 556493,-818833 556493,-1343509 0,-524676 -212664,-999684 -556493,-1343513z"/>
  <path class="fil1" d="M3182056 3412507c2889,23871 5032,47968 6409,72273 -336095,270703 -763311,432845 -1228462,432845 -378944,0 -732689,-107652 -1032546,-293877 -1542,-23984 -2409,-48158 -2441,-72527 297774,193788 653222,306405 1034987,306405 465401,0 891701,-167349 1222053,-445119z"/>
 </g>
</svg>
