<?xml version="1.0" encoding="UTF-8"?>
<!DOCTYPE svg PUBLIC "-//W3C//DTD SVG 1.1//EN" "http://www.w3.org/Graphics/SVG/1.1/DTD/svg11.dtd">
<!-- Creator: CorelDRAW X8 -->
<svg xmlns="http://www.w3.org/2000/svg" xml:space="preserve" width="356px" height="497px" version="1.1" style="shape-rendering:geometricPrecision; text-rendering:geometricPrecision; image-rendering:optimizeQuality; fill-rule:evenodd; clip-rule:evenodd"
viewBox="0 0 3559538 4965442"
 xmlns:xlink="http://www.w3.org/1999/xlink">
 <defs>
  <style type="text/css">
   <![CDATA[
    .fil1 {fill:#F0F0F0}
    .fil0 {fill:#F7F7F7}
   ]]>
  </style>
 </defs>
 <g id="Слой_x0020_1">
  <metadata id="CorelCorpID_0Corel-Layer"/>
  <path class="fil0" d="M2298989 4965442c696183,0 1260549,-564367 1260549,-1260546 0,-696183 -564366,-1260549 -1260549,-1260549 -696180,0 -1260546,564366 -1260546,1260549 0,696179 564366,1260546 1260546,1260546z"/>
  <path class="fil0" d="M1715750 0c947582,0 1715747,768166 1715747,1715750 0,947582 -768165,1715747 -1715747,1715747 -947584,0 -1715750,-768165 -1715750,-1715747 0,-947584 768166,-1715750 1715750,-1715750zm1170795 544952c-299624,-299628 -713567,-484954 -1170795,-484954 -457231,0 -871171,185326 -1170798,484954 -299628,299627 -484954,713567 -484954,1170798 0,457228 185326,871171 484954,1170795 299627,299628 713570,484954 1170798,484954 457228,0 871171,-185326 1170795,-484954 299628,-299624 484954,-713567 484954,-1170795 0,-457228 -185326,-871171 -484954,-1170798z"/>
  <path class="fil1" d="M3099345 2734699c-15423,-12688 -31144,-25021 -47168,-36980 -50131,68346 -105367,132715 -165169,192517 -299625,299628 -713568,484954 -1170796,484954 -210532,0 -411874,-39320 -597118,-110971 -7029,18663 -13626,37534 -19785,56605 191454,73803 399429,114364 616903,114364 567646,0 1070820,-275729 1383133,-700489z"/>
 </g>
</svg>
