<?xml version="1.0" encoding="UTF-8"?>
<!DOCTYPE svg PUBLIC "-//W3C//DTD SVG 1.1//EN" "http://www.w3.org/Graphics/SVG/1.1/DTD/svg11.dtd">
<!-- Creator: CorelDRAW X8 -->
<svg xmlns="http://www.w3.org/2000/svg" xml:space="preserve" width="588px" height="588px" version="1.1" style="shape-rendering:geometricPrecision; text-rendering:geometricPrecision; image-rendering:optimizeQuality; fill-rule:evenodd; clip-rule:evenodd"
viewBox="0 0 5880000 5880000"
 xmlns:xlink="http://www.w3.org/1999/xlink">
 <defs>
  <style type="text/css">
   <![CDATA[
    .fil0 {fill:#F7F7F7}
   ]]>
  </style>
 </defs>
 <g id="Слой_x0020_1">
  <metadata id="CorelCorpID_0Corel-Layer"/>
  <path class="fil0" d="M2940000 0c1623720,0 2940000,1316280 2940000,2940000 0,1623720 -1316280,2940000 -2940000,2940000 -1623720,0 -2940000,-1316280 -2940000,-2940000 0,-1623720 1316280,-2940000 2940000,-2940000zm1089055 1850945c-278615,-278614 -663654,-450947 -1089055,-450947 -425401,0 -810437,172333 -1089052,450947 -278617,278618 -450950,663654 -450950,1089055 0,425401 172333,810434 450950,1089052 278618,278617 663651,450950 1089052,450950 425401,0 810437,-172333 1089055,-450950 278614,-278615 450947,-663651 450947,-1089052 0,-425401 -172333,-810440 -450947,-1089055z"/>
 </g>
</svg>
