<?xml version="1.0" encoding="UTF-8"?>
<!DOCTYPE svg PUBLIC "-//W3C//DTD SVG 1.1//EN" "http://www.w3.org/Graphics/SVG/1.1/DTD/svg11.dtd">
<!-- Creator: CorelDRAW X8 -->
<svg xmlns="http://www.w3.org/2000/svg" xml:space="preserve" width="34px" height="34px" version="1.1" style="shape-rendering:geometricPrecision; text-rendering:geometricPrecision; image-rendering:optimizeQuality; fill-rule:evenodd; clip-rule:evenodd"
viewBox="0 0 340003 340000"
 xmlns:xlink="http://www.w3.org/1999/xlink">
 <defs>
  <style type="text/css">
   <![CDATA[
    .fil0 {fill:url(#id0)}
   ]]>
  </style>
  <linearGradient id="id0" gradientUnits="userSpaceOnUse" x1="-0" y1="170000" x2="340003" y2="170000">
   <stop offset="0" style="stop-opacity:1; stop-color:#A655E8"/>
   <stop offset="1" style="stop-opacity:1; stop-color:#8651E7"/>
  </linearGradient>
 </defs>
 <g id="Слой_x0020_1">
  <metadata id="CorelCorpID_0Corel-Layer"/>
  <path class="fil0" d="M170140 0c93754,0 169863,76106 169863,170137 0,93757 -76109,169863 -169863,169863 -94031,0 -170140,-76106 -170140,-169863 0,-94031 76109,-170137 170140,-170137zm-28678 95959c12682,-825 61216,-825 72521,1103 11859,1654 18750,6620 23718,13788 5514,7996 6065,19301 6340,30332 551,12408 277,24821 277,37229 0,21510 2757,47428 -14891,59287 -8548,5514 -19024,5791 -30609,6343 -14062,551 -60667,825 -72798,-1103 -11305,-1654 -19027,-6620 -23715,-13788 -5517,-8271 -5791,-19024 -6343,-30332 -551,-12133 -277,-24821 -277,-37229 0,-21510 -2480,-47428 15168,-59287 9373,-6066 18473,-5514 30609,-6343zm-61767 106719c551,13785 2479,25921 9096,35849 5240,7994 14065,15439 26476,19024 12407,3309 28403,3034 41914,3034 15165,0 30332,275 44945,-277 14339,-551 26476,-2205 36401,-9099 23441,-15716 22061,-42189 22061,-68387 0,-15165 552,-30335 -274,-45223 -551,-14062 -2206,-26198 -9099,-36126 -6069,-9373 -15168,-15716 -26199,-19024 -12407,-3309 -28955,-3034 -42191,-3034 -14888,0 -30055,-275 -44946,277 -14339,551 -26472,2482 -36400,9099 -23441,15716 -22061,42189 -22061,68387 0,15165 -552,30609 277,45500zm60387 -30335c-1380,-17371 11856,-31161 27575,-32538 17373,-1103 31161,12131 32541,27852 1377,17371 -12134,31161 -27852,32538 -17371,1380 -31161,-12131 -32264,-27852zm24818 -48531c-23992,2757 -44397,23992 -41085,51565 2756,23715 24266,44120 51565,40811 23715,-2757 44120,-23992 40811,-51565 -2760,-23715 -23992,-44120 -51291,-40811zm51014 -11305c-13788,3308 -9374,24267 4688,21510 5240,-1103 9925,-6343 8548,-13237 -1102,-5236 -6619,-9650 -13236,-8270l0 -3z"/>
 </g>
</svg>
