<?xml version="1.0" encoding="UTF-8"?>
<!DOCTYPE svg PUBLIC "-//W3C//DTD SVG 1.1//EN" "http://www.w3.org/Graphics/SVG/1.1/DTD/svg11.dtd">
<!-- Creator: CorelDRAW X8 -->
<svg xmlns="http://www.w3.org/2000/svg" xml:space="preserve" width="34px" height="34px" version="1.1" style="shape-rendering:geometricPrecision; text-rendering:geometricPrecision; image-rendering:optimizeQuality; fill-rule:evenodd; clip-rule:evenodd"
viewBox="0 0 340003 340000"
 xmlns:xlink="http://www.w3.org/1999/xlink">
 <defs>
  <style type="text/css">
   <![CDATA[
    .fil0 {fill:white}
   ]]>
  </style>
 </defs>
 <g id="Слой_x0020_1">
  <metadata id="CorelCorpID_0Corel-Layer"/>
  <path class="fil0" d="M267919 164897c16268,-319 18179,-2871 30938,-11482 -12759,0 -17862,638 -28387,-2871 8294,-2234 16268,-1914 27113,-14353 -5423,2234 -28707,5102 -30621,-320 -8611,-32212 -19776,-43694 -55179,-48480 1594,-1594 8294,-2871 10845,-3508 12439,-3508 11482,-7974 8294,-8931 -3829,-957 -13397,2551 -17545,3828l7657 -7973c-7974,637 -13077,4782 -19139,8291l2551 -6060c-7334,2551 -21050,20413 -24558,27430l-15948 34766c-6696,-9248 -29980,-21687 -46565,-29024 -13396,-5742 -27430,-11165 -40189,-15947 1274,18818 8931,24241 21370,32532l-14990 1914c6059,18181 16264,20093 27747,26155 -10525,1594 -8611,1594 -16265,6377 5740,13716 22007,15310 30938,16267 -3828,3509 -8294,6697 -8931,14354l17225 7973c-958,1915 -6380,6380 -8294,7654 -19776,13716 -44017,17225 -66341,8294 -9571,-3828 -13397,-7017 -20413,-12439 2231,3508 7016,8611 9888,11482 27109,29344 71443,45291 117692,36997 36680,-6696 75592,-27429 93133,-61876 3189,-6379 6060,-13716 7974,-21050zm-97919 -164897c94091,0 170003,75909 170003,170000 0,94091 -75912,170000 -170003,170000 -94091,0 -170000,-75909 -170000,-170000 0,-94091 75909,-170000 170000,-170000l0 0z"/>
 </g>
</svg>
