<?xml version="1.0" encoding="UTF-8"?>
<!DOCTYPE svg PUBLIC "-//W3C//DTD SVG 1.1//EN" "http://www.w3.org/Graphics/SVG/1.1/DTD/svg11.dtd">
<!-- Creator: CorelDRAW X8 -->
<svg xmlns="http://www.w3.org/2000/svg" xml:space="preserve" width="34px" height="34px" version="1.1" style="shape-rendering:geometricPrecision; text-rendering:geometricPrecision; image-rendering:optimizeQuality; fill-rule:evenodd; clip-rule:evenodd"
viewBox="0 0 340003 340003"
 xmlns:xlink="http://www.w3.org/1999/xlink">
 <defs>
  <style type="text/css">
   <![CDATA[
    .fil0 {fill:white}
   ]]>
  </style>
 </defs>
 <g id="Слой_x0020_1">
  <metadata id="CorelCorpID_0Corel-Layer"/>
  <path class="fil0" d="M144810 170137c549,826 275,88648 275,97185l39643 0 277 -97185c0,0 25052,277 26155,0l274 -274 3580 -33312 -30009 0c-277,-4957 0,-9911 0,-14865 0,-4680 -277,-10188 2477,-12665l27255 -2751 0 -33589c-9634,-552 -23401,-274 -33038,274 -38543,2480 -36614,32489 -36614,63599l-20099 0 0 33586 19824 0 0 -3zm25327 -170137c93880,0 169866,76261 169866,170137 0,93880 -75986,169866 -169866,169866 -93876,0 -170137,-75986 -170137,-169866 0,-93876 76261,-170137 170137,-170137l0 0z"/>
 </g>
</svg>
