<?xml version="1.0" encoding="UTF-8"?>
<!DOCTYPE svg PUBLIC "-//W3C//DTD SVG 1.1//EN" "http://www.w3.org/Graphics/SVG/1.1/DTD/svg11.dtd">
<!-- Creator: CorelDRAW X8 -->
<svg xmlns="http://www.w3.org/2000/svg" xml:space="preserve" width="24px" height="24px" version="1.1" style="shape-rendering:geometricPrecision; text-rendering:geometricPrecision; image-rendering:optimizeQuality; fill-rule:evenodd; clip-rule:evenodd"
viewBox="0 0 239997 239997"
 xmlns:xlink="http://www.w3.org/1999/xlink">
 <defs>
  <style type="text/css">
   <![CDATA[
    .fil0 {fill:url(#id0)}
   ]]>
  </style>
  <linearGradient id="id0" gradientUnits="userSpaceOnUse" x1="-0" y1="120000" x2="239997" y2="120000">
   <stop offset="0" style="stop-opacity:1; stop-color:#A655E8"/>
   <stop offset="1" style="stop-opacity:1; stop-color:#8651E7"/>
  </linearGradient>
 </defs>
 <g id="Слой_x0020_1">
  <metadata id="CorelCorpID_0Corel-Layer"/>
  <path class="fil0" d="M49997 0l140003 0c27499,0 49997,22498 49997,49997l0 140003c0,27499 -22498,49997 -49997,49997l-140003 0c-27499,0 -49997,-22498 -49997,-49997l0 -140003c0,-27499 22498,-49997 49997,-49997zm140003 19998l-140003 0c-8229,0 -15727,3382 -21172,8827 -5445,5445 -8827,12946 -8827,21172l0 140003c0,8229 3382,15727 8827,21172 5445,5445 12943,8827 21172,8827l140003 0c8226,0 15727,-3382 21172,-8827 5445,-5445 8827,-12943 8827,-21172l0 -140003c0,-8226 -3382,-15727 -8827,-21172 -5445,-5445 -12946,-8827 -21172,-8827z"/>
 </g>
</svg>
