<?xml version="1.0" encoding="UTF-8"?>
<!DOCTYPE svg PUBLIC "-//W3C//DTD SVG 1.1//EN" "http://www.w3.org/Graphics/SVG/1.1/DTD/svg11.dtd">
<!-- Creator: CorelDRAW X8 -->
<svg xmlns="http://www.w3.org/2000/svg" xml:space="preserve" width="16px" height="16px" version="1.1" style="shape-rendering:geometricPrecision; text-rendering:geometricPrecision; image-rendering:optimizeQuality; fill-rule:evenodd; clip-rule:evenodd"
viewBox="0 0 160000 160003"
 xmlns:xlink="http://www.w3.org/1999/xlink">
 <defs>
  <style type="text/css">
   <![CDATA[
    .fil0 {fill:#D2D2D2}
   ]]>
  </style>
 </defs>
 <g id="Слой_x0020_1">
  <metadata id="CorelCorpID_0Corel-Layer"/>
  <g id="_3203740735984">
   <path class="fil0" d="M45545 24574c-2971,-6353 -9457,-10761 -16991,-10761 -10338,0 -18718,8303 -18718,18536 0,10245 8380,18547 18718,18547 9689,0 17654,-7290 18618,-16639 -995,-3064 -1562,-6316 -1627,-9683zm-2396 32837c-1885,-769 -3906,-1259 -6009,-1412 -2744,1020 -5667,1531 -8586,1531 -3090,0 -6010,-511 -8587,-1531 -9272,680 -16829,7824 -18031,17181l-1888 15990c-343,2041 1202,4082 3090,4422 2920,683 6012,1021 9102,1531l2234 37423c170,3065 2744,5273 5663,5273l17173 0c2922,0 5323,-2208 5669,-5273l1194 -20013c-3498,-921 -6563,-3132 -8578,-6018 -2030,-2916 -3107,-6610 -2599,-10420l2469 -20744c873,-6806 3619,-12954 7684,-17940zm10395 36357l771 -176c2061,-510 3430,-2381 3093,-4422l-1769 -12682c-91,408 -167,822 -224,1244l-1871 16036z"/>
   <path class="fil0" d="M157712 73180c-1029,-9357 -8753,-16501 -18034,-17181 -2741,1020 -5663,1531 -8583,1531 -3087,0 -6007,-511 -8589,-1531 -2106,156 -4125,643 -6001,1417 4087,4998 6829,11157 7605,17980l2858 20467c578,3886 -406,7597 -2503,10596 -2010,2874 -5043,5068 -8646,6057l1190 20030c176,3065 2753,5273 5670,5273l17175 0c2917,0 5324,-2208 5664,-5273l2236 -37423c3087,-340 6180,-848 9102,-1531 2058,-510 3430,-2381 3090,-4422l-2234 -15990zm-53688 3815l-1440 12175c-340,2041 1205,4082 3092,4422l681 150 -2242 -16086 -91 -661zm45788 -44646c0,-10233 -8379,-18536 -18717,-18536 -7620,0 -14173,4510 -17093,10976 -82,3209 -615,6313 -1545,9244 856,9456 8867,16863 18638,16863 10338,0 18717,-8302 18717,-18547z"/>
   <path class="fil0" d="M114118 76601c-1327,-12075 -11299,-21291 -23264,-22167 -3543,1315 -7311,1976 -11078,1976 -3985,0 -7756,-661 -11081,-1976 -11962,876 -21716,10092 -23267,22167l-2435 20628c-442,2634 1554,5270 3986,5706 3770,879 7758,1321 11747,1979l2880 48283c221,3951 3546,6803 7313,6803l22159 0c3764,0 6868,-2852 7310,-6803l2878 -48283c3991,-439 7979,-1100 11747,-1979 2661,-660 4430,-3072 3988,-5706l-2883 -20628zm-10191 -52676c0,-13210 -10814,-23922 -24151,-23922 -13340,0 -24151,10712 -24151,23922 0,13215 10811,23927 24151,23927 13337,0 24151,-10712 24151,-23927z"/>
  </g>
 </g>
</svg>
