<?xml version="1.0" encoding="UTF-8"?>
<!DOCTYPE svg PUBLIC "-//W3C//DTD SVG 1.1//EN" "http://www.w3.org/Graphics/SVG/1.1/DTD/svg11.dtd">
<!-- Creator: CorelDRAW X8 -->
<svg xmlns="http://www.w3.org/2000/svg" xml:space="preserve" width="22px" height="22px" version="1.1" style="shape-rendering:geometricPrecision; text-rendering:geometricPrecision; image-rendering:optimizeQuality; fill-rule:evenodd; clip-rule:evenodd"
viewBox="0 0 220000 219997"
 xmlns:xlink="http://www.w3.org/1999/xlink">
 <defs>
  <style type="text/css">
   <![CDATA[
    .fil0 {fill:#D2D2D2}
   ]]>
  </style>
 </defs>
 <g id="Слой_x0020_1">
  <metadata id="CorelCorpID_0Corel-Layer"/>
  <path class="fil0" d="M110000 3c-60766,-281 -110000,49013 -110000,109858 0,60562 49234,110136 110000,110136 60766,0 110000,-49574 110000,-110136 0,-60845 -49234,-110139 -110000,-109858zm0 193235c-4221,0 -14065,-14646 -19411,-42533 6375,-142 12894,-213 19411,-213 6517,0 13036,71 19411,213 -5346,27887 -15190,42533 -19411,42533zm0 -68943c-7526,0 -15052,71 -22507,213 -280,-4788 -561,-9579 -561,-14647 0,-5071 281,-9862 561,-14649 7597,280 14910,564 22507,564 7597,0 14910,-284 22507,-564 280,4787 561,9578 561,14649 0,5068 -281,9859 -561,14647 -7455,-142 -14981,-213 -22507,-213zm0 -55349c-6517,0 -13036,-71 -19411,-212 5346,-27887 15190,-42534 19411,-42534 4221,0 14065,14647 19411,42534 -6375,141 -12894,212 -19411,212zm81586 59224c1406,-5916 1967,-12112 1967,-18309 0,-6199 -842,-12396 -1967,-18311 -10412,1128 -21101,1972 -32354,2536 280,5352 280,10421 280,15775 0,5068 -280,10420 -561,15772 11534,564 22223,1409 32635,2537zm-10412 25350c-7874,-561 -16316,-1406 -24754,-1690 -1970,11832 -5066,23100 -8722,32675 13504,-7041 25318,-17745 33476,-30985zm-25038 -85631c8442,-564 16880,-1128 24758,-1973 -8158,-13238 -19692,-23941 -33758,-30985 3938,9859 7033,20846 9000,32958zm-127722 60281c-1406,-5916 -1967,-12112 -1967,-18309 0,-6199 842,-12396 1967,-18311 10412,1128 21101,1972 32354,2536 -280,5352 -280,10421 -280,15775 0,5068 280,10420 561,15772 -11534,564 -22223,1409 -32635,2537zm10412 25350c7874,-561 16316,-1406 24754,-1690 1970,11832 5066,23100 8722,32675 -13504,-7041 -25318,-17745 -33476,-30985zm25038 -85631c-8442,-564 -16880,-1128 -24758,-1973 8158,-13238 19692,-23941 33758,-30985 -3938,9859 -7033,20846 -9000,32958z"/>
 </g>
</svg>
