<?xml version="1.0" encoding="UTF-8"?>
<!DOCTYPE svg PUBLIC "-//W3C//DTD SVG 1.1//EN" "http://www.w3.org/Graphics/SVG/1.1/DTD/svg11.dtd">
<!-- Creator: CorelDRAW X8 -->
<svg xmlns="http://www.w3.org/2000/svg" xml:space="preserve" width="120px" height="120px" version="1.1" style="shape-rendering:geometricPrecision; text-rendering:geometricPrecision; image-rendering:optimizeQuality; fill-rule:evenodd; clip-rule:evenodd"
viewBox="0 0 1200000 1200000"
 xmlns:xlink="http://www.w3.org/1999/xlink">
 <defs>
  <style type="text/css">
   <![CDATA[
    .fil5 {fill:#424242}
    .fil6 {fill:#757575}
    .fil7 {fill:#BDBDBD}
    .fil3 {fill:#E0E0E0}
    .fil10 {fill:#EF5350}
    .fil9 {fill:#F7B081}
    .fil4 {fill:#FF8F00}
    .fil2 {fill:#FFA000}
    .fil8 {fill:#FFC89F}
    .fil1 {fill:#FFCA28}
    .fil0 {fill:#FFFBEC}
   ]]>
  </style>
 </defs>
 <g id="Слой_x0020_1">
  <metadata id="CorelCorpID_0Corel-Layer"/>
  <g id="_1945522013552">
   <path class="fil0" d="M600000 0c331370,0 600000,268630 600000,600000 0,331370 -268630,600000 -600000,600000 -331370,0 -600000,-268630 -600000,-600000 0,-331370 268630,-600000 600000,-600000z"/>
   <g>
    <path class="fil1" d="M702676 491087l-58606 -33837c-3223,-1862 -4328,-5984 -2466,-9209l42270 -73216c1863,-3226 5984,-4329 9210,-2467l58606 33838c3223,1859 4329,5984 2466,9206l-42270 73219c-1862,3223 -5984,4326 -9210,2466z"/>
    <path class="fil1" d="M772958 531665l-58606 -33837c-3226,-1862 -4328,-5984 -2466,-9207l42270 -73219c1863,-3222 5984,-4328 9210,-2466l58606 33837c3223,1863 4329,5984 2466,9210l-42270 73216c-1862,3223 -5984,4326 -9210,2466z"/>
    <path class="fil2" d="M751690 406196l-58606 -33838c-3226,-1859 -7347,-756 -9210,2469l-6372 11039 23423 13524c9734,5618 13070,18068 7449,27802l-29092 50388 23394 13505c3226,1862 7348,756 9210,-2467l42270 -73216c1863,-3222 757,-7344 -2466,-9206z"/>
    <path class="fil2" d="M821972 446773l-58609 -33837c-3223,-1862 -7344,-756 -9207,2466l-6372 11041 23423 13522c9734,5621 13070,18070 7449,27805l-29092 50385 23394 13507c3226,1863 7348,757 9210,-2466l42270 -73218c1863,-3221 757,-7342 -2466,-9205z"/>
    <path class="fil3" d="M704970 492411l-63190 -36482c-1959,-1131 -4465,-462 -5593,1497l-10780 18672c-1131,1959 -462,4464 1497,5595l63189 36482c1959,1131 4465,459 5593,-1499l10780 -18672c1131,-1959 462,-4462 -1496,-5593z"/>
    <path class="fil3" d="M775252 532989l-63190 -36485c-1959,-1128 -4465,-459 -5596,1500l-10780 18672c-1128,1958 -459,4464 1500,5592l63189 36485c1959,1128 4465,459 5593,-1499l10780 -18672c1131,-1959 462,-4465 -1496,-5593z"/>
    <path class="fil3" d="M768857 381755l-63190 -36482c-1959,-1131 -4465,-462 -5593,1497l-10780 18672c-1131,1959 -462,4465 1497,5596l63190 36481c1958,1129 4464,460 5595,-1499l10780 -18672c1128,-1959 457,-4465 -1499,-5593z"/>
    <path class="fil3" d="M839139 422330l-63190 -36481c-1959,-1129 -4465,-460 -5593,1499l-10780 18672c-1131,1959 -462,4464 1497,5593l63190 36481c1958,1131 4464,462 5595,-1496l10780 -18672c1129,-1959 457,-4465 -1499,-5596z"/>
    <path class="fil4" d="M790261 515176l-35141 -20287c-4660,-2690 -6256,-8652 -3566,-13312 2690,-4660 8649,-6256 13309,-3566l35144 20291 -9746 16874zm-9059 -65460c-4661,-2693 -10619,-1097 -13309,3566 -2690,4660 -1094,10618 3566,13308l35141 20288 9743 -16875 -35141 -20287z"/>
    <path class="fil4" d="M719979 474598l-35141 -20287c-4660,-2693 -6256,-8652 -3566,-13312 2690,-4660 8646,-6259 13311,-3566l35142 20288 -9746 16877zm-9059 -65460c-4663,-2693 -10619,-1094 -13309,3566 -2690,4660 -1094,10618 3566,13309l35141 20290 9743 -16878 -35141 -20287z"/>
    <g>
     <path class="fil5" d="M615154 417191c-1653,0 -3328,-419 -4861,-1307 -4661,-2690 -6256,-8648 -3566,-13308l49546 -85822c2690,-4660 8649,-6259 13312,-3566 4660,2690 6256,8649 3566,13309l-49550 85821c-1805,3127 -5079,4873 -8447,4873z"/>
    </g>
    <g>
     <path class="fil6" d="M852156 438834c-2495,0 -5021,-632 -7331,-1968l-204471 -118051c-3404,-1967 -5837,-5139 -6854,-8935 -1018,-3795 -496,-7761 1471,-11166l10996 -19043c1961,-3401 5136,-5836 8931,-6854 3796,-1017 7762,-493 11166,1471l204471 118052 0 0c7022,4053 9440,13070 5386,20095l-10998 19046c-2724,4714 -7679,7353 -12767,7353z"/>
    </g>
    <g>
     <path class="fil3" d="M601046 476506c-1695,0 -3379,-442 -4873,-1304l-30192 -17433c-2239,-1293 -3872,-3421 -4541,-5916 -669,-2497 -317,-5156 975,-7393l29214 -50601c2690,-4660 8652,-6259 13309,-3566l30192 17433c4660,2690 6259,8649 3569,13309l-29214 50601c-1293,2237 -3422,3869 -5919,4538 -828,224 -1675,332 -2520,332z"/>
    </g>
    <rect class="fil3" transform="matrix(0.150007 0.0866091 -0.0866091 0.150007 537032 507893)" width="201271" height="188572"/>
    <path class="fil7" d="M558430 557968l-45255 -26127c-5346,-3087 -12183,-1256 -15270,4090l-10650 18448c-51,88 -23,199 68,250l64298 37125c88,48 199,20 250,-68l10649 -18448c3090,-5346 1256,-12183 -4090,-15270z"/>
    <path class="fil7" d="M502624 676618l-64298 -37123c-88,-51 -201,-23 -252,68l-10650 18445c-3087,5346 -1256,12186 4093,15273l45253 26127c5349,3087 12186,1253 15273,-4093l10649 -18448c49,-85 20,-198 -68,-249z"/>
    <path class="fil6" d="M542097 586255l-45252 -26127c-5349,-3087 -12187,-1256 -15273,4093l-5151 8924c-3087,5346 -1256,12186 4090,15273l45255 26127c5347,3086 12184,1252 15271,-4094l5153 -8926c3087,-5343 1256,-12183 -4093,-15270z"/>
    <path class="fil6" d="M525764 614545l-45253 -26127c-5349,-3087 -12186,-1256 -15273,4090l-5150 8926c-3087,5346 -1256,12184 4090,15271l45255 26126c5346,3087 12184,1256 15270,-4090l5154 -8926c3087,-5346 1256,-12184 -4093,-15270z"/>
    <path class="fil6" d="M509433 642831l-45255 -26126c-5346,-3087 -12183,-1256 -15270,4090l-5153 8926c-3087,5346 -1253,12184 4093,15270l45255 26127c5346,3087 12183,1256 15270,-4090l5153 -8926c3087,-5346 1253,-12184 -4093,-15271z"/>
    <g>
     <path class="fil6" d="M748819 610896c-3663,0 -7376,-929 -10769,-2891l-119211 -68825c-57,-34 -230,-139 -496,-65 -261,71 -363,246 -397,303l-2713 4703c-2333,4039 -6103,6933 -10610,8141 -4510,1207 -9218,587 -13260,-1746l-82395 -47571c-4039,-2333 -6933,-6100 -8141,-10610 -1207,-4507 -587,-9216 1746,-13258l27465 -47571c4057,-7027 13071,-9439 20098,-5386l225666 130289 0 0c7024,4056 9442,13070 5388,20095l-13620 23590c-3997,6925 -11276,10802 -18751,10802zm17240 -37610c0,0 0,0 0,0l0 0z"/>
    </g>
    <path class="fil3" d="M438890 677539l-10717 18564c4490,5057 5485,12608 1916,18788 -3569,6179 -10605,9096 -17229,7736l-7183 12438c-9060,15693 -12464,34019 -9641,51919 16915,-6505 31085,-18615 40144,-34310l33214 -57526 -30504 -17609z"/>
    <path class="fil8" d="M932580 785505l0 0c0,-15704 -12733,-28438 -28437,-28438l-10264 0c15704,0 28437,-12730 28437,-28437l0 0c0,-15704 -12731,-28437 -28437,-28437l-71895 0 0 -28437c0,-15704 -12731,-28437 -28438,-28437l-41652 0 0 0c-35640,0 -68221,13116 -93174,34781 -9729,8447 -22303,12889 -35187,12889l-128993 3 -2497 4326c-3087,5349 -9924,7180 -15273,4093l-7376 -4258 -33214 57524c-9059,15692 -23229,27805 -40144,34307 -2823,-17898 581,-36224 9641,-51919l7183 -12438c6624,1363 13660,-1554 17229,-7733 3566,-6180 2574,-13731 -1916,-18788l2953 -5114 -155446 0c-4561,0 -8257,3696 -8257,8257l0 172511c0,4561 3696,8257 8257,8257l347850 6c12887,0 25461,4442 35190,12889 24953,21668 57534,34781 93174,34781l115676 0c15704,0 28437,-12730 28437,-28437l0 0c0,-15704 -12733,-28437 -28437,-28437l28437 0c15704,0 28438,-12731 28438,-28437l0 0c0,-15704 -12734,-28437 -28440,-28437l8135 2c15707,-5 28440,-12736 28440,-28442z"/>
    <path class="fil9" d="M824977 700193c-7809,6996 -12736,17150 -12736,28437 0,13972 7543,26215 18771,32871 -5318,6562 -8510,14919 -8510,24004 0,6519 1642,12662 4536,18036 2157,4009 1301,8964 -1874,12226 -6698,6880 -10828,16274 -10828,26612 0,3231 402,6369 1162,9365 1293,5106 -1432,10296 -6279,12357 -11761,5003 -20503,15740 -22722,28655 -882,5142 -5244,8952 -10463,8952l-76104 0c-12518,0 -24653,-1624 -36219,-4660 24237,19185 54871,30642 88183,30642l46786 0 20452 0 48435 0c15704,0 28438,-12730 28438,-28437l0 0c0,-15704 -12734,-28437 -28440,-28437l27756 0c15421,0 28554,-11991 29101,-27400 575,-16177 -12368,-29474 -28417,-29474l8135 0c15704,0 28437,-12731 28437,-28437l0 0c0,-15704 -12733,-28438 -28437,-28438l-10264 3c15704,0 28437,-12733 28437,-28437l0 0c0,-15707 -12733,-28437 -28437,-28437l-68899 -3zm35186 0l0 0z"/>
    <path class="fil9" d="M612356 871547c-12257,-9592 -34968,-17506 -50536,-17506l-294397 -3 0 17722c0,4561 3696,8257 8257,8257l347850 6c309,0 618,14 927,20 -4186,-2625 -8223,-5460 -12101,-8496z"/>
    <path class="fil10" d="M500493 787137c-1046,-847 -1046,-2418 0,-3268 9147,-7421 14797,-18984 14074,-31839 -1055,-18774 -15948,-34180 -34679,-35815 -10463,-910 -20140,2406 -27525,8427l-16183 28035c-9042,15661 -23176,27754 -40045,34268 324,3223 1732,6358 4235,8801l49040 47948 0 -3c7650,7691 18555,12138 30478,11101 18731,-1630 33621,-17039 34679,-35813 723,-12855 -4927,-24418 -14074,-31842z"/>
    <path class="fil9" d="M821984 700193l0 -28437c0,-8546 -3776,-16208 -9746,-21418l0 117558c0,10309 -8385,18694 -18694,18694 -10307,0 -18695,-8385 -18695,-18694l0 -63303c0,-5381 -4360,-9743 -9742,-9743 -5383,0 -9743,4362 -9743,9743 0,15721 -12793,28510 -28514,28510 -15721,0 -28511,-12789 -28511,-28510 0,-5381 -4359,-9743 -9742,-9743 -5383,0 -9743,4362 -9743,9743 0,26467 21529,47999 47996,47999 10670,0 20537,-3498 28514,-9409l0 24710c0,21056 17127,38183 38180,38183 21053,0 38182,-17127 38182,-38183l0 -67700 -9742 0z"/>
    <path class="fil8" d="M893879 757067l-43458 0c-15707,0 -28437,-12730 -28437,-28437l0 0c0,-15704 12730,-28437 28437,-28437l43458 0c15704,0 28437,12733 28437,28437l0 0c0,15707 -12733,28437 -28437,28437z"/>
    <path class="fil8" d="M895976 870816l-43458 0c-15706,0 -28437,-12730 -28437,-28434l0 0c0,-15707 12731,-28437 28437,-28437l43458 0c15704,0 28437,12730 28437,28437l0 0c0,15704 -12733,28434 -28437,28434z"/>
    <path class="fil8" d="M867582 927693l-43458 0c-15707,0 -28437,-12733 -28437,-28437l0 0c0,-15707 12730,-28437 28437,-28437l43458 0c15704,0 28437,12730 28437,28437l0 0c0,15704 -12733,28437 -28437,28437z"/>
    <path class="fil8" d="M904143 813942l-43458 0c-15707,0 -28437,-12731 -28437,-28437l0 0c0,-15704 12730,-28438 28437,-28438l43458 3c15704,0 28437,12731 28437,28435l0 0c0,15706 -12733,28437 -28437,28437z"/>
    <path class="fil9" d="M906413 703102c1860,3784 2912,8036 2912,12537l0 0c0,15704 -12734,28437 -28438,28437l-43460 0c-4499,0 -8754,-1051 -12535,-2911 4635,9420 14321,15902 25526,15902l43458 0c15707,0 28440,-12733 28440,-28437l0 0c0,-11205 -6483,-20894 -15903,-25528z"/>
    <path class="fil9" d="M908511 816853c1862,3781 2911,8033 2911,12535l0 0c0,15706 -12730,28437 -28437,28437l-43461 0c-4498,0 -8753,-1049 -12534,-2911 4634,9419 14323,15902 25526,15902l43460 0c15704,0 28437,-12730 28437,-28437l0 0c0,-11206 -6482,-20891 -15902,-25526z"/>
    <path class="fil9" d="M880116 873727c1860,3782 2912,8034 2912,12535 0,15707 -12734,28437 -28438,28437l-43460 0c-4499,0 -8754,-1049 -12535,-2911 4635,9419 14321,15902 25526,15902l43458 0c15707,0 28440,-12730 28440,-28437 0,-11205 -6486,-20891 -15903,-25526z"/>
    <path class="fil9" d="M916678 759979c1859,3781 2911,8033 2911,12534l0 0c0,15704 -12733,28438 -28437,28438l-43458 0c-4502,0 -8754,-1052 -12538,-2912 4635,9420 14324,15903 25529,15903l43458 0c15704,0 28437,-12733 28437,-28437l0 0c0,-11206 -6486,-20895 -15902,-25526z"/>
   </g>
  </g>
 </g>
</svg>
