<?xml version="1.0" encoding="UTF-8"?>
<!DOCTYPE svg PUBLIC "-//W3C//DTD SVG 1.1//EN" "http://www.w3.org/Graphics/SVG/1.1/DTD/svg11.dtd">
<!-- Creator: CorelDRAW X8 -->
<svg xmlns="http://www.w3.org/2000/svg" xml:space="preserve" width="21px" height="20px" version="1.1" style="shape-rendering:geometricPrecision; text-rendering:geometricPrecision; image-rendering:optimizeQuality; fill-rule:evenodd; clip-rule:evenodd"
viewBox="0 0 210000 200005"
 xmlns:xlink="http://www.w3.org/1999/xlink">
 <defs>
  <style type="text/css">
   <![CDATA[
    .fil0 {fill:#D2D2D2}
   ]]>
  </style>
 </defs>
 <g id="Слой_x0020_1">
  <metadata id="CorelCorpID_0Corel-Layer"/>
  <g id="_1817864962672">
   <path class="fil0" d="M187339 70522c-323,0 -323,0 -646,0l-46514 0c-2906,0 -4845,-2325 -4845,-4981l0 -44822c0,-20251 -20671,-21249 -30683,-20583 -2908,332 -4847,2656 -4524,5644 2909,58103 -25515,76696 -40374,82339 -5168,1990 -8400,6971 -8400,12615l0 72713c0,26561 25841,26561 25841,26561l90441 0c12921,0 25842,-9961 23579,-19256 -646,-2657 0,-5313 970,-7637l3875 -7305c1616,-3320 1939,-6973 0,-10293 -1616,-3319 -1616,-7305 323,-10624l5168 -8632c1616,-2324 1939,-5312 1292,-7968l-1939 -8966c-969,-3652 324,-7303 2586,-9959l3228 -3322c1616,-1658 2586,-3983 2909,-6307 3552,-24569 -19058,-28554 -22287,-29217z"/>
   <path class="fil0" d="M33588 83802l-22286 0c-6460,0 -11305,5312 -11305,11622l0 92630c0,6641 5168,11622 11305,11622l22286 0c6461,0 11308,-5312 11308,-11622l0 -92632c0,-6308 -5171,-11620 -11308,-11620z"/>
  </g>
 </g>
</svg>
