<?xml version="1.0" encoding="UTF-8"?>
<!DOCTYPE svg PUBLIC "-//W3C//DTD SVG 1.1//EN" "http://www.w3.org/Graphics/SVG/1.1/DTD/svg11.dtd">
<!-- Creator: CorelDRAW X8 -->
<svg xmlns="http://www.w3.org/2000/svg" xml:space="preserve" width="21px" height="20px" version="1.1" style="shape-rendering:geometricPrecision; text-rendering:geometricPrecision; image-rendering:optimizeQuality; fill-rule:evenodd; clip-rule:evenodd"
viewBox="0 0 210000 204113"
 xmlns:xlink="http://www.w3.org/1999/xlink">
 <defs>
  <style type="text/css">
   <![CDATA[
    .fil0 {fill:#333333;fill-rule:nonzero}
   ]]>
  </style>
 </defs>
 <g id="Слой_x0020_1">
  <metadata id="CorelCorpID_0Corel-Layer"/>
  <path class="fil0" d="M103470 204113l78256 0c7777,0 14853,-3128 19988,-8208 5115,-5060 8286,-12061 8286,-19837l0 -147979c0,-7794 -3171,-14801 -8280,-19870 -5132,-5092 -12214,-8219 -19994,-8219l-78256 0c-7777,0 -14894,3133 -20049,8219 -5156,5080 -8364,12096 -8364,19870l0 22458c0,2720 1096,5176 2873,6952 1773,1777 4235,2876 6955,2876 2722,0 5181,-1099 6955,-2876 1773,-1773 2875,-4232 2875,-6952l0 -22458c0,-2329 958,-4415 2488,-5908l21 -23c1579,-1551 3804,-2500 6246,-2500l78256 0c2419,0 4600,943 6160,2480 1513,1498 2456,3596 2456,5951l0 147935c0,2355 -943,4453 -2456,5948 -1557,1536 -3741,2480 -6160,2480l-78256 0c-2436,0 -4667,-955 -6258,-2512 -1530,-1513 -2497,-3601 -2497,-5916l0 -19322c0,-2717 -1096,-5179 -2873,-6958 -1776,-1777 -4238,-2873 -6957,-2873 -2720,0 -5173,1094 -6955,2876 -1774,1773 -2873,4235 -2873,6955l0 19322c0,7794 3203,14801 8352,19875 5161,5086 12281,8214 20061,8214zm8994 -136676c122,2482 1186,4901 3139,6697l21649 19476 -127421 0c-2717,0 -5179,1097 -6958,2873 -1777,1779 -2873,4241 -2873,6958 0,2719 1096,5175 2873,6952 1779,1779 4241,2875 6958,2875l127513 0 -21698 19618c-1967,1805 -3032,4293 -3147,6813 -110,2520 703,5086 2476,7077l23 23c941,1044 2069,1848 3301,2398 1291,579 2656,868 4001,868 1163,0 2373,-208 3530,-654 1105,-422 2173,-1070 3119,-1961l40444 -36545c1033,-935 1849,-2043 2399,-3264 564,-1273 870,-2635 870,-4015 0,-1366 -303,-2731 -870,-4001 -550,-1236 -1372,-2358 -2399,-3287l-40577 -36655c-2000,-1773 -4545,-2609 -7031,-2490 -2517,118 -4976,1203 -6787,3234l-66 72c-1771,2002 -2587,4502 -2468,6938z"/>
 </g>
</svg>
