<?xml version="1.0" encoding="UTF-8"?>
<!DOCTYPE svg PUBLIC "-//W3C//DTD SVG 1.1//EN" "http://www.w3.org/Graphics/SVG/1.1/DTD/svg11.dtd">
<!-- Creator: CorelDRAW X8 -->
<svg xmlns="http://www.w3.org/2000/svg" xml:space="preserve" width="16px" height="16px" version="1.1" style="shape-rendering:geometricPrecision; text-rendering:geometricPrecision; image-rendering:optimizeQuality; fill-rule:evenodd; clip-rule:evenodd"
viewBox="0 0 160000 160000"
 xmlns:xlink="http://www.w3.org/1999/xlink">
 <defs>
  <style type="text/css">
   <![CDATA[
    .fil0 {fill:#D2D2D2}
   ]]>
  </style>
 </defs>
 <g id="Слой_x0020_1">
  <metadata id="CorelCorpID_0Corel-Layer"/>
  <g id="_2329891565280">
   <path class="fil0" d="M109461 160000l-43031 0 -31640 -82619 -1673 0c1106,21586 1673,21149 1673,31079l0 51540 -34793 0 0 -160000 42821 0 31133 81094 2180 0c-984,-16619 -1491,-15622 -1491,-29330l0 -51764 34821 0 0 160000z"/>
   <path class="fil0" d="M160000 117032c0,7353 -2004,13139 -6007,17377 -4025,4235 -9487,6363 -16410,6363 -6675,0 -12055,-2171 -16163,-6514 -4087,-4345 -6131,-10085 -6131,-17226 0,-7183 2001,-12883 5987,-17118 3982,-4235 9507,-6367 16557,-6367 6588,0 11925,2174 16036,6517 4087,4345 6131,10000 6131,16968zm-44045 42968l0 -13915 43730 0 0 13915 -43730 0zm15642 -42710c0,3634 479,6321 1437,8022 961,1698 2525,2537 4671,2537 2067,0 3589,-839 4547,-2537 961,-1701 1440,-4388 1440,-8022 0,-3657 -479,-6367 -1440,-8152 -958,-1783 -2480,-2665 -4547,-2665 -2146,0 -3710,882 -4671,2665 -958,1785 -1437,4495 -1437,8152z"/>
  </g>
 </g>
</svg>
