<?xml version="1.0" encoding="UTF-8"?>
<!DOCTYPE svg PUBLIC "-//W3C//DTD SVG 1.1//EN" "http://www.w3.org/Graphics/SVG/1.1/DTD/svg11.dtd">
<!-- Creator: CorelDRAW X8 -->
<svg xmlns="http://www.w3.org/2000/svg" xml:space="preserve" width="20px" height="20px" version="1.1" style="shape-rendering:geometricPrecision; text-rendering:geometricPrecision; image-rendering:optimizeQuality; fill-rule:evenodd; clip-rule:evenodd"
viewBox="0 0 200000 200000"
 xmlns:xlink="http://www.w3.org/1999/xlink">
 <defs>
  <style type="text/css">
   <![CDATA[
    .fil0 {fill:#D2D2D2}
   ]]>
  </style>
 </defs>
 <g id="Слой_x0020_1">
  <metadata id="CorelCorpID_0Corel-Layer"/>
  <path class="fil0" d="M100000 0c-55122,0 -100000,44849 -100000,100000 0,19970 5879,39183 16971,55698l-16727 40121c-488,1120 -213,2424 666,3302 575,576 1332,879 2120,879 394,0 788,-91 1182,-244l40122 -16727c16483,11123 35727,16971 55666,16971 55151,0 100000,-44849 100000,-100000 0,-55151 -44849,-100000 -100000,-100000zm-52815 83593c9063,0 16407,7345 16407,16407 0,9062 -7344,16407 -16407,16407 -9062,0 -16407,-7345 -16407,-16407 0,-9062 7345,-16407 16407,-16407zm105457 0c9065,0 16407,7345 16407,16407 0,9062 -7342,16407 -16407,16407 -9062,0 -16407,-7345 -16407,-16407 0,-9062 7345,-16407 16407,-16407zm-52642 0c9065,0 16407,7345 16407,16407 0,9062 -7342,16407 -16407,16407 -9062,0 -16407,-7345 -16407,-16407 0,-9062 7345,-16407 16407,-16407z"/>
 </g>
</svg>
