<?xml version="1.0" encoding="UTF-8"?>
<!DOCTYPE svg PUBLIC "-//W3C//DTD SVG 1.1//EN" "http://www.w3.org/Graphics/SVG/1.1/DTD/svg11.dtd">
<!-- Creator: CorelDRAW X8 -->
<svg xmlns="http://www.w3.org/2000/svg" xml:space="preserve" width="22px" height="22px" version="1.1" style="shape-rendering:geometricPrecision; text-rendering:geometricPrecision; image-rendering:optimizeQuality; fill-rule:evenodd; clip-rule:evenodd"
viewBox="0 0 220000 220003"
 xmlns:xlink="http://www.w3.org/1999/xlink">
 <defs>
  <style type="text/css">
   <![CDATA[
    .fil0 {fill:url(#id0)}
   ]]>
  </style>
  <linearGradient id="id0" gradientUnits="userSpaceOnUse" x1="-0" y1="110000" x2="220000" y2="110000">
   <stop offset="0" style="stop-opacity:1; stop-color:#A655E8"/>
   <stop offset="1" style="stop-opacity:1; stop-color:#8651E7"/>
  </linearGradient>
 </defs>
 <g id="Слой_x0020_1">
  <metadata id="CorelCorpID_0Corel-Layer"/>
  <path class="fil0" d="M139974 217100c-2293,3087 -6253,3654 -9116,1976 -14029,-8051 -27777,-8093 -41619,-131 -3028,1718 -7013,925 -9170,-1936 -1647,-2154 -2061,-4972 -1188,-7611l8249 -26620c504,442 961,924 1375,1321 4399,4444 11044,11089 21495,11089 10451,0 17005,-6602 21408,-10959 408,-439 915,-924 1465,-1451l8343 26796c870,2506 408,5369 -1242,7526zm66689 -217100l-193280 0c-7379,0 -13383,5720 -13383,12807l0 139654c0,7084 6004,12849 13383,12849l45698 0c-4627,-10485 1465,-21435 1465,-25211 0,-4196 -7016,-16399 -275,-27545 6883,-11325 21036,-11478 25025,-13507 2177,-1282 8739,-10525 18731,-13201l-71618 0c-2534,0 -4581,-1970 -4581,-4400 0,-2432 2047,-4399 4581,-4399l150808 0c2534,0 4584,1967 4584,4399 0,2430 -2050,4400 -4584,4400l-67185 0c10293,2741 16096,11741 18766,13201 3200,1845 17983,2069 24976,13465 6628,11015 -272,23706 -272,27587 0,3773 6095,14723 1466,25211l45695 0c7381,0 13337,-5765 13337,-12846l0 -139657c0,-7087 -5956,-12807 -13337,-12807zm-146434 31700l95169 0c2531,0 4580,1970 4580,4400 0,2432 -2049,4402 -4580,4402l-95169 0c-2535,0 -4587,-1970 -4587,-4402 0,-2430 2052,-4400 4587,-4400zm122988 31471l-150808 0c-2534,0 -4581,-1967 -4581,-4397 0,-2429 2047,-4402 4581,-4402l150808 0c2534,0 4584,1973 4584,4402 0,2430 -2050,4397 -4584,4397zm-31371 53785c-4760,-7821 -16223,-7265 -21680,-10298 -5165,-2891 -10409,-12847 -20166,-12847 -9658,0 -15004,9981 -20121,12847 -5516,3064 -16897,2446 -21676,10298 -4567,7566 1508,16955 1508,23143 0,6281 -6084,15565 -1508,23142 4762,7821 16211,7260 21676,10298 5148,2883 10435,12850 20121,12850 9743,0 14803,-9845 20166,-12850 5508,-3061 16883,-2423 21680,-10298 4572,-7580 -1514,-16832 -1514,-23142 0,-6217 6083,-15568 1514,-23143zm-41826 42685c-11237,0 -20376,-8765 -20376,-19542 0,-10772 9139,-19540 20376,-19540 11242,0 20384,8768 20384,19540 0,10777 -9142,19542 -20384,19542zm11191 -19539c0,-5933 -5009,-10741 -11191,-10741 -6177,0 -11186,4808 -11186,10741 0,5933 5009,10740 11186,10740 6182,0 11191,-4807 11191,-10740z"/>
 </g>
</svg>
