<?xml version="1.0" encoding="UTF-8"?>
<!DOCTYPE svg PUBLIC "-//W3C//DTD SVG 1.1//EN" "http://www.w3.org/Graphics/SVG/1.1/DTD/svg11.dtd">
<!-- Creator: CorelDRAW X8 -->
<svg xmlns="http://www.w3.org/2000/svg" xml:space="preserve" width="45px" height="44px" version="1.1" style="shape-rendering:geometricPrecision; text-rendering:geometricPrecision; image-rendering:optimizeQuality; fill-rule:evenodd; clip-rule:evenodd"
viewBox="0 0 450000 443162"
 xmlns:xlink="http://www.w3.org/1999/xlink">
 <defs>
  <style type="text/css">
   <![CDATA[
    .fil0 {fill:url(#id0)}
   ]]>
  </style>
  <linearGradient id="id0" gradientUnits="userSpaceOnUse" x1="-0" y1="221581" x2="450000" y2="221581">
   <stop offset="0" style="stop-opacity:1; stop-color:#A655E8"/>
   <stop offset="1" style="stop-opacity:1; stop-color:#8651E7"/>
  </linearGradient>
 </defs>
 <g id="Слой_x0020_1">
  <metadata id="CorelCorpID_0Corel-Layer"/>
  <path class="fil0" d="M450000 423525l0 -288343 -450000 0 0 288343c0,10840 8794,19637 19637,19637l410726 0c10843,0 19637,-8797 19637,-19637zm-128750 -356144c0,12403 10053,22459 22459,22459 12403,0 22459,-10056 22459,-22459l0 -44919c0,-12406 -10056,-22462 -22459,-22462 -12406,0 -22462,10056 -22462,22462l3 44919zm-237435 -44919l0 44919c0,12403 10056,22459 22462,22459 12403,0 22459,-10056 22459,-22459l0 -44919c0,-12406 -10056,-22462 -22459,-22462 -12406,0 -22462,10056 -22462,22462zm366185 35267c0,-10841 -8794,-19637 -19637,-19637l-50589 0 0 29317c0,19842 -16161,36071 -36068,36071 -19910,0 -36071,-16229 -36071,-36071l0 -29317 -165270 0 0 29317c0,19842 -16158,36071 -36068,36071 -19910,0 -36136,-16229 -36136,-36071l0 -29317 -50524 0c-10843,0 -19637,8796 -19637,19637l0 63819 450000 0 0 -63819zm-336887 324884c0,7296 -5929,13228 -13225,13228l-38524 0c-7296,0 -13228,-5932 -13228,-13228l0 -38520c0,-7296 5932,-13228 13228,-13228l38524 0c7293,0 13225,5932 13225,13228l0 38520zm0 -80998c0,7296 -5929,13228 -13225,13228l-38524 0c-7296,0 -13228,-5932 -13228,-13228l0 -38523c0,-7296 5932,-13225 13228,-13225l38524 -3c7293,0 13225,5932 13225,13228l0 38523zm96206 80998c0,7296 -5931,13228 -13227,13228l-38456 0c-7293,0 -13228,-5932 -13228,-13228l0 -38520c0,-7296 5935,-13228 13228,-13228l38456 0c7296,0 13227,5932 13227,13228l0 38520zm0 -80998c0,7296 -5931,13228 -13227,13228l-38456 0c-7293,0 -13228,-5932 -13228,-13228l0 -38523c0,-7296 5935,-13225 13228,-13225l38456 -3c7296,0 13227,5932 13227,13228l0 38523zm0 -81001c0,7296 -5931,13228 -13227,13228l-38456 0c-7293,0 -13228,-5932 -13228,-13228l0 -38520c0,-7296 5932,-13231 13228,-13231l38456 0c7296,0 13227,5935 13227,13231l0 38520zm96273 81001c0,7296 -5932,13228 -13228,13228l-38524 0c-7296,0 -13228,-5932 -13228,-13228l0 -38523c0,-7296 5932,-13225 13228,-13225l38524 -3c7296,0 13228,5932 13228,13228l0 38523zm0 -81001c0,7296 -5932,13228 -13228,13228l-38524 0c-7296,0 -13228,-5932 -13228,-13228l0 -38520c0,-7296 5932,-13231 13228,-13231l38524 0c7296,0 13228,5935 13228,13231l0 38520zm96272 81001c0,7296 -5932,13228 -13228,13228l-38524 0c-7296,0 -13225,-5932 -13225,-13228l0 -38523c0,-7296 5929,-13225 13225,-13225l38524 -3c7296,0 13228,5932 13228,13228l0 38523zm0 -81001c0,7296 -5932,13228 -13228,13228l-38524 0c-7296,0 -13225,-5932 -13225,-13228l0 -38520c0,-7296 5929,-13231 13225,-13231l38524 0c7296,0 13228,5935 13228,13231l0 38520z"/>
 </g>
</svg>
