<?xml version="1.0" encoding="UTF-8"?>
<!DOCTYPE svg PUBLIC "-//W3C//DTD SVG 1.1//EN" "http://www.w3.org/Graphics/SVG/1.1/DTD/svg11.dtd">
<!-- Creator: CorelDRAW X8 -->
<svg xmlns="http://www.w3.org/2000/svg" xml:space="preserve" width="130px" height="16px" version="1.1" style="shape-rendering:geometricPrecision; text-rendering:geometricPrecision; image-rendering:optimizeQuality; fill-rule:evenodd; clip-rule:evenodd"
viewBox="0 0 1300003 165125"
 xmlns:xlink="http://www.w3.org/1999/xlink">
 <defs>
  <style type="text/css">
   <![CDATA[
    .fil0 {fill:#1D94DA}
    .fil7 {fill:#26A6D1}
    .fil3 {fill:#39569A}
    .fil6 {fill:#E1E5EA}
    .fil1 {fill:white}
    .fil2 {fill:url(#id0)}
    .fil5 {fill:url(#id1)}
    .fil4 {fill:url(#id2)}
   ]]>
  </style>
  <linearGradient id="id0" gradientUnits="userSpaceOnUse" x1="307731" y1="157619" x2="300225" y2="0">
   <stop offset="0" style="stop-opacity:1; stop-color:#7B519C"/>
   <stop offset="20.0627" style="stop-opacity:1; stop-color:#7B519C"/>
   <stop offset="1" style="stop-opacity:1; stop-color:#7B519C"/>
  </linearGradient>
  <linearGradient id="id1" gradientUnits="userSpaceOnUse" x1="983242" y1="157619" x2="983242" y2="0">
   <stop offset="0" style="stop-opacity:1; stop-color:#20B038"/>
   <stop offset="70.3216" style="stop-opacity:1; stop-color:#20B038"/>
   <stop offset="1" style="stop-opacity:1; stop-color:#60D66A"/>
  </linearGradient>
  <radialGradient id="id2" gradientUnits="userSpaceOnUse" gradientTransform="matrix(1.48998 -1.79476 1.79476 1.48998 -628064 1.22742E+06)" cx="725365" cy="151914" r="79260.3" fx="725365" fy="151914">
   <stop offset="0" style="stop-opacity:1; stop-color:#EEA233"/>
   <stop offset="0.121569" style="stop-opacity:1; stop-color:#EEA233"/>
   <stop offset="0.388235" style="stop-opacity:1; stop-color:#F14F44"/>
   <stop offset="0.709804" style="stop-opacity:1; stop-color:#963AC0"/>
   <stop offset="1" style="stop-opacity:1; stop-color:#314DF0"/>
   <stop offset="-109.733" style="stop-opacity:1; stop-color:#ECB754"/>
   <stop offset="1" style="stop-opacity:1; stop-color:#ECB754"/>
  </radialGradient>
 </defs>
 <g id="Слой_x0020_1">
  <metadata id="CorelCorpID_0Corel-Layer"/>
  <g id="_2236418947056">
   <path class="fil0" d="M122987 91050c6995,6326 11815,11421 14465,15432 1395,2006 1702,3705 1237,5248 -466,1544 -1396,2315 -3107,2315l-18036 925c-5285,309 -14147,-8488 -16791,-12808 -621,-1234 -2026,-2006 -3887,-2162 -2019,-153 -3109,619 -3730,2624l-624 7098c-156,1543 -621,2624 -1555,3242 -3580,2931 -13996,1697 -18036,925 -10108,-1696 -17568,-10031 -24099,-17128 -9024,-12811 -15707,-23767 -20062,-33026 -1710,-3549 -2641,-6636 -2797,-9260 2020,-1852 21614,-3395 24096,1699 4669,10185 9180,18054 13534,23611 2800,2777 4817,2315 5748,-1234 318,0 465,-4476 465,-13426 159,-5558 -2017,-9107 -6837,-10650 1090,-2777 4976,-4320 11506,-4320 3425,0 6690,618 9955,618 5441,0 8082,2159 8082,6479 0,4630 -2956,21915 2335,23920 930,-771 1861,-1387 2791,-2005 2650,-1853 8556,-11418 9645,-14352 150,-462 775,-1852 1861,-4167 1089,-2315 1714,-3396 1714,-3396l314 -771c772,-1697 1396,-2621 1861,-2931 466,-156 1555,-309 3422,-309l16949 0c2017,0 3266,0 3572,153 315,0 939,466 1560,1081 1396,1699 151,5248 -3421,10650 -3424,5401 -6845,10030 -10261,13579 -4510,5092 -5134,9260 -1869,12346zm-40425 -91050c-45559,0 -82562,37037 -82562,82562 0,45681 37003,82563 82562,82563 45559,0 82563,-36882 82563,-82563 0,-45525 -37004,-82562 -82563,-82562z"/>
   <polygon class="fil1" points="242178,21112 381349,21112 381349,155429 242178,155429 "/>
   <path class="fil2" d="M357415 165125l-96330 0c-18998,0 -34399,-15404 -34399,-34397l0 -96326c0,-18998 15401,-34402 34399,-34402l96330 0c19004,0 34396,15404 34396,34402l0 96326c0,18993 -15392,34397 -34396,34397zm-5549 -122406c-2888,-2658 -14544,-11120 -40507,-11236 0,0 -30623,-1844 -45545,11846 -8309,8312 -11228,20465 -11537,35543 -315,15083 -712,43332 26518,50988l37 12 -14 11687c0,0 -173,4732 2933,5697 3771,1171 5992,-2426 9586,-6301 1974,-2127 4698,-5259 6754,-7648 18624,1563 32953,-2011 34587,-2544 3761,-1223 25032,-3952 28501,-32193 3563,-29131 -1736,-47553 -11313,-55853l0 2zm3154 53749c-2927,23588 -20183,25081 -23366,26096 -1351,434 -13932,3566 -29753,2533 0,0 -11792,14221 -15469,17921 -578,578 -1254,817 -1705,703 -629,-156 -808,-905 -803,-2003l100 -19426c-23038,-6400 -21693,-30448 -21438,-43037 264,-12590 2635,-22910 9659,-29852 12627,-11430 38626,-9727 38626,-9727 21969,99 32493,6714 34938,8933 8099,6936 12227,23534 9203,47854l8 5zm-41462 1416c0,0 2065,179 3174,-1191l2170 -2727c1044,-1353 3572,-2218 6043,-842 3265,1844 7497,4749 10394,7452 1600,1348 1966,3328 879,5418l-8 43c-1118,1980 -2619,3832 -4511,5552l-45 36c-2125,1773 -4570,2806 -7197,1949l-46 -65c-4697,-1328 -15979,-7081 -23171,-12814 -11753,-9279 -20115,-24584 -22427,-32782l-66 -51c-856,-2627 188,-5078 1949,-7194l40 -43c1725,-1897 3580,-3390 5546,-4507l45 -6c2085,-1101 4077,-729 5419,871 1778,1838 5120,6244 7452,10400 1381,2465 519,4992 -840,6036l-2723 2168c-1382,1109 -1194,3171 -1194,3171 0,0 4022,15271 19117,19120l0 6zm23747 -12661c811,-3 1472,-664 1458,-1475 -68,-9665 -3033,-17415 -8791,-23035 -5748,-5602 -12985,-8473 -21512,-8533l-6 0c-802,0 -1463,650 -1463,1461 0,809 638,1470 1446,1481 7748,51 14301,2641 19486,7696 5180,5053 7836,12102 7904,20959 8,802 661,1446 1463,1446l15 0zm-7731 -3012l-28 0c-811,-20 -1458,-687 -1435,-1501 113,-5021 -1320,-9081 -4383,-12420 -3047,-3336 -7228,-5154 -12797,-5563 -803,-62 -1419,-763 -1350,-1568 65,-812 765,-1416 1568,-1365 6258,460 11220,2653 14755,6513 3543,3867 5276,8738 5143,14471 -17,803 -670,1433 -1473,1433zm-7529 -2522c-771,0 -1424,-616 -1469,-1399 -250,-4981 -2590,-7427 -7387,-7679 -809,-51 -1433,-738 -1387,-1549 45,-803 734,-1427 1546,-1382 6320,341 9841,3958 10161,10465 40,809 -576,1501 -1387,1544l-77 0z"/>
   <path class="fil3" d="M607573 0l-142550 0c-6238,0 -11287,5543 -11287,12383l0 140359c0,6840 5049,12383 11287,12383l142550 0c6235,0 11287,-5543 11287,-12383l0 -140359c0,-6840 -5052,-12383 -11287,-12383z"/>
   <path class="fil1" d="M564751 27131c-10584,0 -23696,9932 -23696,24709l0 24663 -21270 0 0 22709 21270 0 0 65913 23892 0 0 -65913 21452 0 0 -22709 -21452 0 0 -18700c0,-5524 7211,-10011 12624,-10011l10989 0 0 -20661 -23809 0z"/>
   <path class="fil4" d="M691763 154152c-7049,-7041 -10981,-16516 -10981,-26493 0,-30067 0,-60129 0,-90188 0,-20575 16664,-37471 37469,-37471 30067,0 60129,0 90187,0 20814,0 37469,16896 37469,37471 0,30059 0,60121 0,90188 0,20581 -16661,37466 -37469,37466 -30058,0 -60120,0 -90187,0 -10343,0 -19710,-4193 -26488,-10973z"/>
   <path class="fil1" d="M788969 22138l-51249 0c-19333,0 -34998,15668 -34998,34995l0 51256c0,19327 15665,34997 34998,34997l51249 0c19328,0 35001,-15670 35001,-34997l0 -51256c0,-19327 -15673,-34995 -35001,-34995zm23838 87150c0,12831 -10402,23233 -23231,23233l-52455 0c-12836,0 -23230,-10402 -23230,-23233l0 -52453c0,-12828 10394,-23233 23230,-23233l52455 0c12829,0 23231,10405 23231,23233l0 52453z"/>
   <path class="fil1" d="M763345 51601c-17376,0 -31458,14085 -31458,31461 0,17375 14082,31460 31458,31460 17375,0 31463,-14085 31463,-31460 0,-17376 -14088,-31461 -31463,-31461zm0 51854c-11260,0 -20394,-9131 -20394,-20393 0,-11262 9134,-20394 20394,-20394 11267,0 20402,9132 20402,20394 0,11262 -9135,20393 -20402,20393z"/>
   <path class="fil1" d="M795860 43077c-4045,0 -7333,3282 -7333,7327 0,4051 3288,7331 7333,7331 4045,0 7325,-3280 7325,-7331 0,-4045 -3280,-7327 -7325,-7327z"/>
   <path class="fil1" d="M953436 138921l2499 1472c10491,6196 22516,9473 34779,9484l23 0c37664,0 68325,-30513 68342,-68007 0,-18172 -7101,-35253 -20006,-48112 -12901,-12851 -30058,-19934 -48313,-19940 -37693,0 -68347,30501 -68353,67995 -8,12851 3603,25364 10439,36190l1629 2575 -6905 25092 25866 -6749zm-45607 26190l11665 -42396c-7192,-12412 -10973,-26488 -10973,-40907 14,-45108 36898,-81808 82216,-81808 21994,9 42635,8530 58163,23994 15515,15466 24062,36019 24056,57882 -22,45111 -36907,81816 -82219,81816 0,0 0,0 0,0l-28 3c-13759,-3 -27285,-3441 -39293,-9963l-43587 11379z"/>
   <path class="fil5" d="M911358 81856c-9,13917 3648,27503 10598,39486l-11268 40923 42079 -10978c11596,6289 24649,9605 37925,9611l40 0c43743,0 79348,-35435 79370,-78980 9,-21105 -8240,-40946 -23230,-55879 -14981,-14930 -34907,-23154 -56140,-23165 -43744,0 -79352,35429 -79374,78982zm79374 79042l22711 0c-9,0 -9,0 0,0l-22711 0z"/>
   <path class="fil6" d="M908521 81830c0,14417 3781,28493 10973,40904l-11665 42391 43587 -11373c12008,6519 25534,9954 39284,9960l37 0c45312,0 82197,-36711 82219,-81822 6,-21863 -8541,-42416 -24056,-57879 -15528,-15467 -36169,-23985 -58163,-23997 -45312,0 -82193,36706 -82216,81816zm25954 38763l-1629 -2571c-6836,-10825 -10447,-23338 -10439,-36186 6,-37494 30660,-68001 68361,-68001 18247,9 35404,7089 48314,19943 12896,12853 19997,29939 19997,48109 -17,37497 -30678,68004 -68342,68004l-23 0c-12263,-8 -24294,-3285 -34787,-9478l-2491 -1475 -25866 6749 6905 -25094zm56262 43119l22706 0c-9,0 -9,0 0,0l-22706 0z"/>
   <path class="fil1" d="M970196 47621c-1541,-3404 -3160,-3472 -4624,-3534 -1203,-51 -2576,-46 -3940,-46 -1373,0 -3598,511 -5481,2559 -1875,2046 -7189,6993 -7189,17055 0,10062 7362,19784 8392,21148 1027,1362 14215,22667 35088,30868 17353,6811 20887,5458 24649,5112 3767,-335 12150,-4942 13869,-9716 1714,-4778 1714,-8871 1203,-9728 -519,-851 -1884,-1361 -3940,-2383 -2057,-1021 -12153,-5968 -14037,-6652 -1883,-681 -3251,-1021 -4624,1027 -1373,2045 -5307,6647 -6507,8008 -1195,1368 -2395,1543 -4451,516 -2057,-1021 -8670,-3177 -16519,-10144 -6111,-5424 -10232,-12116 -11424,-14164 -1203,-2043 -136,-3152 899,-4170 925,-919 2057,-2389 3078,-3580 1027,-1197 1373,-2048 2057,-3413 684,-1367 338,-2559 -173,-3580 -511,-1021 -4502,-11137 -6335,-15183l9 0z"/>
   <path class="fil7" d="M1217440 0c45596,0 82563,36966 82563,82562 0,45602 -36967,82563 -82563,82563 -45604,0 -82562,-36964 -82562,-82563 0,-45596 36958,-82562 82562,-82562z"/>
   <path class="fil1" d="M1269056 55621c-3608,1558 -7489,2607 -11557,3081 4159,-2420 7347,-6244 8848,-10811 -3895,2244 -8196,3872 -12783,4743 -3668,-3793 -8893,-6161 -14686,-6161 -11103,0 -20116,8737 -20116,19520 0,1531 179,3024 525,4453 -16723,-814 -31554,-8592 -41468,-20402 -1733,2882 -2726,6233 -2726,9813 0,6771 3551,12757 8947,16252 -3302,-105 -6394,-976 -9120,-2449l0 250c0,9464 6936,17353 16147,19149 -1691,445 -3470,686 -5299,686 -1300,0 -2562,-119 -3785,-352 2559,7762 9991,13407 18794,13563 -6882,5242 -15560,8360 -24987,8360 -1628,0 -3225,-93 -4802,-275 8910,5543 19477,8777 30847,8777 37003,0 57247,-29764 57247,-55564l-60 -2528c3926,-2746 7333,-6184 10034,-10105z"/>
  </g>
 </g>
</svg>
