<?xml version="1.0" encoding="UTF-8"?>
<!DOCTYPE svg PUBLIC "-//W3C//DTD SVG 1.1//EN" "http://www.w3.org/Graphics/SVG/1.1/DTD/svg11.dtd">
<!-- Creator: CorelDRAW X8 -->
<svg xmlns="http://www.w3.org/2000/svg" xml:space="preserve" width="21px" height="20px" version="1.1" style="shape-rendering:geometricPrecision; text-rendering:geometricPrecision; image-rendering:optimizeQuality; fill-rule:evenodd; clip-rule:evenodd"
viewBox="0 0 209997 196330"
 xmlns:xlink="http://www.w3.org/1999/xlink">
 <defs>
  <style type="text/css">
   <![CDATA[
    .fil0 {fill:#ededed}
   ]]>
  </style>
 </defs>
 <g id="Слой_x0020_1">
  <metadata id="CorelCorpID_0Corel-Layer"/>
  <path class="fil0" d="M115845 6758l25052 52131 58521 7189c6592,785 11287,6649 10488,13097 -394,3107 -1987,5782 -4275,7628l-42473 38940 11088 56636c1244,6368 -3028,12521 -9544,13736 -2857,534 -5677,32 -8040,-1241l-51676 -27806 -51677 27806c-5819,3125 -13125,1047 -16319,-4638 -1401,-2500 -1778,-5277 -1264,-7871l11087 -56622 -43032 -39442c-4831,-4444 -5062,-11875 -522,-16590 2007,-2084 4607,-3288 7295,-3613l0 -20 58515 -7189 25057 -52131c2803,-5859 9944,-8388 15937,-5654 2651,1211 4635,3254 5782,5654z"/>
 </g>
</svg>
